<svg xmlns="http://www.w3.org/2000/svg" width="225" height="60" shape-rendering="geometricPrecision" text-rendering="geometricPrecision" image-rendering="optimizeQuality" fill-rule="evenodd" clip-rule="evenodd"><defs><style>.fil0,.fil1{fill:#00aec3;fill-rule:nonzero}.fil1{fill:#838382}</style></defs><g id="Capa_x0020_1"><g id="_240135456"><path id="_240143928" class="fil0" d="M41.611 39.013a6.63 6.63 0 0 1-1.001-.078 5.654 5.654 0 0 1-.925-.215v-1.228c.288.093.607.165.952.22.346.054.669.082.97.082.443 0 .764-.068.962-.203.199-.135.298-.333.298-.597 0-.146-.03-.269-.09-.366a.744.744 0 0 0-.306-.256 3.032 3.032 0 0 0-.6-.21l-.516-.136c-.614-.151-1.072-.391-1.377-.715-.304-.323-.456-.745-.456-1.266 0-.667.242-1.183.726-1.548.483-.364 1.2-.546 2.144-.546.301 0 .593.018.874.053.28.036.533.085.76.148v1.232a4.76 4.76 0 0 0-.737-.158 6.074 6.074 0 0 0-.813-.056c-.514 0-.883.069-1.107.207a.656.656 0 0 0-.335.59c0 .139.027.254.079.348a.657.657 0 0 0 .27.242c.124.068.3.133.526.195l.52.13c.67.167 1.164.413 1.478.735.316.323.472.748.472 1.275 0 .437-.11.816-.33 1.135-.22.319-.537.563-.95.73-.415.171-.911.256-1.488.256zm8.257-.089l-.568-1.837h-2.553l-.568 1.837H44.7l2.224-6.884h2.213l2.224 6.884H49.87zm-2.754-3.042h1.814l-.907-2.935-.907 2.935zm4.931 3.042V32.04h1.517v5.624h3.163v1.26h-4.68zm8.07.089c-.997 0-1.73-.242-2.2-.724-.47-.483-.707-1.222-.707-2.22v-4.03h1.521v4.178c0 .54.114.933.34 1.181.226.248.575.372 1.047.372.471 0 .82-.124 1.046-.372.227-.248.34-.64.34-1.18V32.04h1.493v4.029c0 .998-.232 1.737-.698 2.22-.465.482-1.193.724-2.181.724zm5.969-.019c-.658 0-1.285-.037-1.884-.11v-6.69a10.825 10.825 0 0 1 2.186-.228c1.263 0 2.21.286 2.842.862.633.575.95 1.46.95 2.654 0 .82-.152 1.488-.452 2.005-.3.519-.752.898-1.353 1.141-.603.243-1.366.366-2.29.366zm.396-1.233c.49 0 .891-.076 1.204-.228.313-.151.547-.394.703-.73.155-.334.231-.777.231-1.325 0-.543-.076-.984-.233-1.32a1.494 1.494 0 0 0-.705-.736c-.313-.155-.71-.233-1.191-.233-.246 0-.503.024-.772.07v4.47c.198.021.452.032.763.032z"/><path id="_240144048" class="fil0" d="M5.732 21.273h1.881v7.023H6.168V23.33L4.444 27.28H3.171l-1.725-3.821v4.838H0v-7.023h1.885l1.948 4.42z"/><path id="_240143496" class="fil0" d="M8.893 21.273h1.55v7.023h-1.55z"/><path id="_240142968" class="fil0" d="M16.305 21.273h1.46v7.023h-1.558l-3.05-4.7v4.7h-1.456v-7.023h1.557l3.047 4.7z"/><path id="_240142896" class="fil0" d="M19.025 21.273h1.545v7.023h-1.545z"/><path id="_240143088" class="fil0" d="M22.574 28.309a5.806 5.806 0 0 1-.944-.226v-1.25c.291.094.616.172.968.227.352.056.682.085.99.085.453 0 .778-.07.981-.213.202-.135.304-.338.304-.606a.691.691 0 0 0-.095-.375.807.807 0 0 0-.308-.26 3.384 3.384 0 0 0-.612-.213l-.528-.139c-.626-.153-1.093-.396-1.402-.727-.31-.332-.465-.763-.465-1.293 0-.68.247-1.203.74-1.576.492-.374 1.222-.559 2.188-.559.306 0 .6.02.89.055.285.034.543.085.772.15v1.257a4.413 4.413 0 0 0-.753-.164 6.254 6.254 0 0 0-.825-.055c-.526 0-.901.067-1.13.212a.667.667 0 0 0-.342.598.7.7 0 0 0 .082.358.64.64 0 0 0 .275.247c.125.07.303.134.536.2l.533.133c.682.168 1.183.42 1.503.746.324.332.486.763.486 1.3 0 .446-.115.831-.34 1.16-.225.327-.548.573-.97.743-.42.173-.927.261-1.515.261a6.96 6.96 0 0 1-1.019-.076z"/><path id="_240142800" class="fil0" d="M28.64 28.296V22.56h-2.216v-1.287H32.4v1.287h-2.21v5.736z"/><path id="_240143400" class="fil0" d="M34.624 27.063h3.458v1.233h-4.984v-7.023h4.938v1.234h-3.412v1.582h2.924v1.234h-2.924z"/><path id="_240143376" class="fil0" d="M40.572 24.53c.263.029.52.042.762.042.512 0 .888-.09 1.135-.268.243-.176.364-.463.364-.858 0-.387-.116-.67-.35-.85-.228-.178-.592-.268-1.083-.268a4.76 4.76 0 0 0-.828.07v2.132zm2.613 3.766l-1.793-2.578h-.087c-.22 0-.465-.008-.733-.024v2.602h-1.524v-6.861c.337-.08.691-.135 1.072-.179.38-.042.754-.065 1.125-.065 1.015 0 1.773.181 2.28.552.505.366.763.937.763 1.703 0 .496-.125.915-.366 1.258-.241.339-.59.599-1.047.768l1.996 2.824h-1.686z"/><path id="_240142992" class="fil0" d="M45.587 21.273h1.544v7.023h-1.544z"/><path id="_240143136" class="fil0" d="M52.75 26.583c.296-.372.442-.961.442-1.766 0-.834-.146-1.44-.445-1.817-.295-.38-.72-.568-1.277-.568-.562 0-.989.184-1.285.553-.294.371-.44.962-.44 1.767 0 .839.146 1.443.438 1.82.296.375.723.565 1.287.565.559 0 .99-.185 1.28-.554zm-3.043 1.407a2.696 2.696 0 0 1-1.145-1.205c-.271-.535-.407-1.205-.407-2 0-.797.136-1.464.407-2.002.27-.536.652-.936 1.145-1.202.498-.266 1.083-.4 1.763-.4.68 0 1.264.138 1.761.402.496.266.879.668 1.146 1.205.266.54.405 1.203.405 1.997 0 .792-.14 1.456-.406 1.997-.27.538-.654.937-1.148 1.205-.499.266-1.084.398-1.758.398-.68 0-1.265-.132-1.763-.395z"/><path id="_240143304" class="fil0" d="M61.745 26.875c.315-.155.556-.4.715-.742.156-.34.236-.794.236-1.351 0-.559-.08-1.003-.242-1.345a1.505 1.505 0 0 0-.717-.753c-.317-.158-.722-.237-1.214-.237-.248 0-.51.023-.785.07v4.56c.203.021.46.034.778.034.499 0 .908-.08 1.229-.236zm-3.554 1.378v-6.818c.328-.08.692-.133 1.084-.174.395-.044.773-.063 1.144-.063 1.29 0 2.253.295 2.899.882.646.585.968 1.487.968 2.705 0 .834-.154 1.513-.46 2.043-.306.528-.766.918-1.381 1.163-.614.252-1.391.374-2.334.374-.67 0-1.31-.036-1.92-.112z"/><path id="_240143112" class="fil0" d="M66.835 27.063h3.463v1.233H65.31v-7.023h4.94v1.234h-3.415v1.582h2.93v1.234h-2.93z"/><path id="_240143208" class="fil1" d="M126.828 23.764v2.256c-.429.068-.82.102-1.185.102-.91 0-1.59-.194-2.038-.592-.451-.394-.678-1-.68-1.817 0-.81.231-1.417.69-1.827.462-.412 1.13-.616 2.01-.616.373 0 .73.04 1.07.117v.86a4.301 4.301 0 0 0-.977-.115c-.394 0-.714.056-.963.164a1.078 1.078 0 0 0-.554.508c-.121.236-.182.544-.182.923 0 .533.127.923.38 1.168.252.248.638.37 1.165.37.065 0 .163 0 .292-.005v-1.496h.972z"/><path id="_240142056" class="fil1" d="M130.61 24.913c.2-.25.3-.646.3-1.192 0-.563-.1-.972-.3-1.227-.2-.255-.49-.383-.866-.383-.378 0-.668.127-.867.374-.2.251-.3.648-.3 1.193 0 .566.1.975.298 1.23.197.252.489.38.87.38.378 0 .668-.125.865-.375zm-2.057.95a1.824 1.824 0 0 1-.779-.812c-.18-.362-.273-.812-.273-1.351 0-.537.092-.989.273-1.35.183-.364.444-.635.779-.81.334-.18.73-.27 1.191-.27.46 0 .857.09 1.192.27.333.18.594.45.775.812.182.364.273.813.273 1.348 0 .536-.091.984-.273 1.346a1.817 1.817 0 0 1-.78.815c-.333.18-.728.27-1.187.27-.46 0-.857-.09-1.191-.268z"/><path id="_240141960" class="fil1" d="M134.944 25.29a.624.624 0 0 0 .343-.218.63.63 0 0 0 .1-.374c0-.228-.07-.396-.213-.502-.143-.105-.375-.156-.697-.156h-.777v1.296c.16.018.36.025.59.025.275 0 .495-.023.654-.071zm-1.244-3.2v1.167h.672c.312 0 .538-.048.67-.149.135-.098.203-.252.203-.46a.6.6 0 0 0-.093-.352.502.502 0 0 0-.286-.2 1.774 1.774 0 0 0-.534-.064 3.31 3.31 0 0 0-.632.058zm2.422 1.905c.158.19.236.437.236.746 0 .303-.077.556-.234.759-.155.204-.405.36-.75.464-.344.108-.797.158-1.36.158a10.707 10.707 0 0 1-1.337-.09v-4.595c.224-.05.47-.09.742-.118.268-.032.53-.045.78-.045.702 0 1.215.108 1.54.324.325.217.485.548.485.995 0 .25-.066.47-.198.652a.985.985 0 0 1-.559.377c.281.063.5.186.655.373z"/><path id="_240142632" class="fil1" d="M136.954 21.33H138v4.74h-1.046z"/><path id="_240142320" class="fil1" d="M139.886 25.237h2.34v.834h-3.372v-4.742h3.341v.833h-2.309v1.066h1.981v.833h-1.981z"/><path id="_240142560" class="fil1" d="M143.909 23.528c.182.02.353.028.519.028.346 0 .6-.06.766-.178.165-.122.247-.313.247-.58 0-.265-.078-.455-.234-.574-.158-.122-.402-.181-.735-.181-.19 0-.375.013-.563.047v1.438zm1.77 2.543l-1.213-1.741h-.056c-.154 0-.318-.005-.501-.016v1.757h-1.03v-4.636c.228-.049.471-.085.726-.116.257-.03.512-.046.762-.046.685 0 1.201.125 1.544.373.342.25.511.632.511 1.148 0 .338-.081.621-.244.852-.164.229-.4.402-.709.517l1.348 1.908h-1.139z"/><path id="_240142608" class="fil1" d="M150.418 21.33h.985v4.74h-1.051l-2.065-3.174v3.174h-.986v-4.74h1.054l2.063 3.176z"/><path id="_240142104" class="fil1" d="M155.206 24.913c.197-.25.298-.646.298-1.192 0-.563-.102-.972-.3-1.227-.201-.255-.488-.383-.866-.383-.38 0-.667.127-.867.374-.2.251-.301.648-.301 1.193 0 .566.1.975.299 1.23.2.252.49.38.869.38.38 0 .667-.125.868-.375zm-2.06.95a1.813 1.813 0 0 1-.776-.812c-.183-.362-.275-.812-.275-1.351 0-.537.092-.989.275-1.35.182-.364.442-.635.776-.81.334-.18.732-.27 1.192-.27.46 0 .859.09 1.192.27.335.18.594.45.777.812.18.364.271.813.271 1.348 0 .536-.092.984-.272 1.346a1.843 1.843 0 0 1-.778.815c-.335.18-.73.27-1.19.27-.46 0-.858-.09-1.192-.268z"/><path id="_240142464" class="fil1" d="M161.288 25.111c.216-.104.38-.27.487-.502.105-.231.158-.533.158-.911 0-.376-.053-.677-.16-.909a1.027 1.027 0 0 0-.487-.506c-.217-.108-.49-.163-.822-.163-.168 0-.348.016-.53.05v3.076c.135.017.31.024.524.024.339 0 .616-.051.83-.159zm-2.402.93v-4.606c.22-.049.467-.085.733-.115.267-.026.525-.041.775-.041.872 0 1.525.198 1.958.596.438.395.657 1.003.657 1.825 0 .565-.104 1.023-.312 1.38-.205.356-.518.617-.932.785-.417.169-.941.253-1.58.253-.453 0-.885-.029-1.3-.077z"/><path id="_240141984" class="fil1" d="M164.735 25.237h2.339v.834h-3.373v-4.742h3.341v.833h-2.307v1.066h1.98v.833h-1.98z"/><path id="_240142392" class="fil1" d="M169.343 26.07v-4.74h1.045v3.872h2.183v.868z"/><path id="_240141360" class="fil1" d="M174.314 23.975h1.252l-.628-2.02-.624 2.02zm1.897 2.095l-.389-1.266h-1.763l-.39 1.266h-1.022l1.532-4.742h1.529l1.535 4.742h-1.032z"/><path id="_240141792" class="fil1" d="M181.628 23.698c.167-.147.25-.382.25-.707 0-.323-.083-.563-.25-.713-.164-.149-.42-.223-.767-.223a3.13 3.13 0 0 0-.486.037v1.793c.157.022.312.03.465.03.363 0 .624-.072.788-.217zm-2.3-2.285c.487-.093.967-.14 1.437-.14.717 0 1.248.138 1.6.417.353.276.528.71.528 1.297 0 .563-.172.988-.52 1.278-.346.287-.86.43-1.539.43-.097 0-.25-.003-.46-.012v1.387h-1.047v-4.657z"/><path id="_240141768" class="fil1" d="M184.586 23.528c.182.02.352.028.519.028.344 0 .6-.06.764-.178.166-.122.249-.313.249-.58 0-.265-.08-.455-.236-.574-.157-.122-.402-.181-.734-.181-.188 0-.374.013-.562.047v1.438zm1.767 2.543l-1.21-1.741h-.06a8.57 8.57 0 0 1-.497-.016v1.757h-1.029v-4.636c.227-.049.47-.085.727-.116.254-.03.506-.046.76-.046.685 0 1.2.125 1.542.373.343.25.513.632.513 1.148 0 .338-.081.621-.244.852-.165.229-.4.402-.709.517l1.348 1.908h-1.141z"/><path id="_240141720" class="fil1" d="M190.702 24.913c.2-.25.3-.646.3-1.192 0-.563-.1-.972-.3-1.227-.2-.255-.488-.383-.865-.383-.379 0-.668.127-.869.374-.2.251-.299.648-.299 1.193 0 .566.1.975.298 1.23.198.252.49.38.87.38s.669-.125.865-.375zm-2.059.95a1.832 1.832 0 0 1-.776-.812c-.18-.362-.272-.812-.272-1.351 0-.537.092-.989.272-1.35.183-.364.444-.635.776-.81.336-.18.733-.27 1.194-.27.458 0 .857.09 1.19.27.338.18.595.45.777.812.18.364.274.813.274 1.348 0 .536-.093.984-.274 1.346a1.84 1.84 0 0 1-.778.815c-.336.18-.733.27-1.189.27-.461 0-.858-.09-1.194-.268z"/><path id="_240141744" class="fil1" d="M195.787 21.33h1.019l-1.526 4.74h-1.545l-1.525-4.74h1.094l1.234 3.948z"/><path id="_240141696" class="fil1" d="M197.236 21.33h1.047v4.74h-1.047z"/><path id="_240141552" class="fil1" d="M202.252 21.33h.984v4.74h-1.054l-2.061-3.174v3.174h-.987v-4.74h1.055l2.063 3.176z"/><path id="_240141624" class="fil1" d="M204.561 25.543c-.422-.394-.632-1.003-.632-1.832 0-.808.219-1.415.652-1.826.434-.41 1.062-.615 1.882-.615.367 0 .707.037 1.018.113v.858a3.995 3.995 0 0 0-.937-.11c-.347 0-.63.052-.853.162-.224.105-.39.273-.5.502-.11.23-.163.53-.163.903 0 .379.054.683.161.913.11.233.273.398.49.502.214.106.492.157.83.157.304 0 .627-.051.972-.153v.864a3.646 3.646 0 0 1-.508.108 3.71 3.71 0 0 1-.56.042c-.815 0-1.43-.195-1.852-.588z"/><path id="_240141864" class="fil1" d="M208.062 21.33h1.045v4.74h-1.045z"/><path id="_240141840" class="fil1" d="M211.246 23.975h1.25l-.628-2.02-.622 2.02zm1.9 2.095l-.392-1.266h-1.763l-.391 1.266h-1.02l1.533-4.742h1.528l1.535 4.742h-1.03z"/><path id="_240141600" class="fil1" d="M218.665 25.111a1.01 1.01 0 0 0 .483-.502c.108-.231.162-.533.162-.911 0-.376-.054-.677-.163-.909a1.025 1.025 0 0 0-.488-.506c-.216-.108-.488-.163-.82-.163a3.03 3.03 0 0 0-.532.05v3.076c.137.017.313.024.525.024.34 0 .616-.051.833-.159zm-2.404.93v-4.606c.223-.049.467-.085.733-.115.267-.026.524-.041.775-.041.87 0 1.522.198 1.96.596.438.395.656 1.003.656 1.825 0 .565-.105 1.023-.31 1.38-.21.356-.52.617-.936.785-.416.169-.942.253-1.578.253-.453 0-.887-.029-1.3-.077z"/><path id="_240140520" class="fil1" d="M222.109 25.237h2.338v.834h-3.372v-4.742h3.342v.833h-2.308v1.066h1.979v.833h-1.979z"/><path id="_240140952" class="fil0" d="M128.096 37.297c.347-.104.599-.26.749-.47.151-.21.224-.484.224-.821 0-.507-.156-.873-.466-1.1-.312-.23-.82-.345-1.53-.345h-1.698v2.84c.352.036.78.058 1.29.058.605 0 1.084-.055 1.431-.162zm-2.721-7.005v2.56h1.474c.685 0 1.171-.11 1.467-.33.294-.215.438-.552.438-1.01 0-.317-.067-.577-.196-.773-.134-.194-.343-.339-.634-.435-.29-.093-.68-.137-1.166-.137-.47 0-.93.04-1.383.125zm5.303 4.175c.342.415.514.957.514 1.63 0 .664-.17 1.219-.51 1.665-.34.446-.886.786-1.64 1.016-.755.231-1.747.346-2.979.346-.441 0-.932-.018-1.467-.055a21.87 21.87 0 0 1-1.464-.146V28.86a16.328 16.328 0 0 1 3.339-.354c1.535 0 2.657.236 3.367.709.711.476 1.065 1.203 1.065 2.178 0 .551-.145 1.028-.435 1.429-.29.402-.698.678-1.224.828.614.13 1.091.402 1.434.817z"/><path id="_240140808" class="fil0" d="M133.514 38.048c-.711-.726-1.064-1.843-1.064-3.348v-6.07h2.296v6.295c0 .813.171 1.408.514 1.782.342.375.868.56 1.58.56.711 0 1.238-.185 1.58-.56.343-.374.514-.97.514-1.782V28.63h2.256v6.07c0 1.505-.352 2.622-1.056 3.348-.702.728-1.8 1.091-3.294 1.091-1.508 0-2.616-.363-3.326-1.091z"/><path id="_240140448" class="fil0" d="M145.271 37.184h5.122v1.822h-7.384V28.63h7.316v1.821h-5.054v2.335h4.337v1.824h-4.337z"/><path id="_240140616" class="fil0" d="M158.648 28.631h2.158v10.374h-2.304l-4.518-6.946v6.946h-2.158V28.63h2.305l4.517 6.946z"/><path id="_240140424" class="fil0" d="M169.131 36.476c.435-.547.652-1.416.652-2.608 0-1.234-.219-2.133-.656-2.688-.439-.56-1.07-.841-1.894-.841-.83 0-1.462.275-1.9.822-.44.547-.658 1.416-.658 2.61 0 1.237.217 2.135.653 2.692.434.555 1.072.833 1.905.833.83 0 1.46-.272 1.898-.82zm-4.508 2.076c-.734-.387-1.3-.98-1.7-1.774-.4-.795-.601-1.782-.601-2.96 0-1.177.2-2.163.601-2.96.4-.792.966-1.385 1.7-1.777.733-.39 1.602-.583 2.61-.583 1.007 0 1.878.196 2.61.588.734.392 1.298.987 1.696 1.78.398.796.598 1.78.598 2.951 0 1.174-.2 2.16-.6 2.953-.403.795-.97 1.39-1.702 1.78-.732.393-1.602.588-2.602.588-1.008 0-1.877-.193-2.61-.586z"/><path id="_240141048" class="fil0" d="M174.748 39.024a8.797 8.797 0 0 1-1.395-.325v-1.852c.436.14.917.251 1.438.332.52.082 1.01.123 1.465.123.67 0 1.154-.103 1.454-.306.299-.202.449-.501.449-.9 0-.218-.046-.403-.137-.548-.092-.15-.246-.278-.462-.387a4.67 4.67 0 0 0-.905-.319l-.78-.203c-.926-.229-1.62-.588-2.079-1.077-.46-.486-.687-1.125-.687-1.91 0-1.006.362-1.782 1.095-2.331.73-.55 1.81-.823 3.238-.823.454 0 .895.027 1.318.081.423.053.806.126 1.148.219v1.857a6.92 6.92 0 0 0-1.114-.237 9.118 9.118 0 0 0-1.227-.085c-.777 0-1.333.105-1.67.312-.338.209-.505.504-.505.888 0 .21.039.385.119.526.078.14.214.26.404.365.188.102.456.2.795.295l.786.194c1.015.252 1.758.622 2.233 1.109.476.486.712 1.125.712 1.921 0 .66-.164 1.229-.497 1.71-.332.481-.813.852-1.438 1.105-.626.254-1.372.38-2.244.38a10.2 10.2 0 0 1-1.514-.114z"/><path id="_240140904" class="fil0" d="M188.108 34.422h2.738l-1.37-4.424-1.368 4.424zm4.156 4.584l-.856-2.77h-3.856l-.859 2.77h-2.233l3.359-10.376h3.343l3.358 10.376h-2.256z"/><path id="_240140832" class="fil0" d="M195.555 28.631h2.288v10.375h-2.288z"/><path id="_240140688" class="fil0" d="M201.97 33.44c.393.042.769.063 1.131.063.76 0 1.317-.13 1.678-.393.36-.262.54-.685.54-1.267 0-.576-.17-.996-.516-1.26-.344-.266-.878-.396-1.605-.396-.41 0-.82.034-1.228.105v3.149zm3.87 5.566l-2.656-3.807h-.124c-.328 0-.693-.012-1.09-.035v3.842h-2.256V28.861a17.505 17.505 0 0 1 1.586-.26 15.37 15.37 0 0 1 1.666-.095c1.504 0 2.63.27 3.378.815.75.544 1.125 1.382 1.125 2.514 0 .739-.178 1.359-.536 1.864-.36.505-.875.885-1.55 1.138l2.953 4.169h-2.496z"/><path id="_240140064" class="fil0" d="M211.657 37.184h5.123v1.822h-7.384V28.63h7.314v1.821h-5.053v2.335h4.337v1.824h-4.337z"/><path id="_240139992" class="fil0" d="M219.305 39.024a8.813 8.813 0 0 1-1.394-.325v-1.852c.434.14.912.251 1.438.332.52.082 1.008.123 1.464.123.668 0 1.153-.103 1.453-.306.299-.202.451-.501.451-.9 0-.218-.046-.403-.138-.548-.09-.15-.244-.278-.46-.387a4.73 4.73 0 0 0-.905-.319l-.781-.203c-.927-.229-1.62-.588-2.08-1.077-.46-.486-.69-1.125-.69-1.91 0-1.006.365-1.782 1.096-2.331.731-.55 1.811-.823 3.24-.823.455 0 .893.027 1.316.081.426.053.809.126 1.151.219v1.857a6.936 6.936 0 0 0-1.115-.237 9.128 9.128 0 0 0-1.226-.085c-.778 0-1.333.105-1.67.312-.339.209-.509.504-.509.888 0 .21.042.385.122.526.08.14.213.26.403.365.188.102.458.2.798.295l.786.194c1.013.252 1.755.622 2.23 1.109.474.486.715 1.125.715 1.921 0 .66-.166 1.229-.498 1.71-.336.481-.814.852-1.438 1.105-.626.254-1.376.38-2.245.38a10.2 10.2 0 0 1-1.514-.114z"/><path id="_240140376" class="fil0" d="M89.785 13.572l.001-1.793h-.449v1.793z"/><path id="_240140256" class="fil0" d="M90.905 13.572v-1.79h-.448l-.001 1.79z"/><path id="_240139824" class="fil0" d="M88.334 13.111h-1.217l.078-.918v-.012c0-.087.07-.16.153-.16h.985v1.09zm-.889 1.67a.35.35 0 0 1 .35.349.348.348 0 1 1-.35-.35zm3.13-3.837h-2a.243.243 0 0 0-.242.243v.349h-.985a.636.636 0 0 0-.637.63l-.091 1.081-.233.233c-.16.16-.169.417-.169.468v1.182a.24.24 0 0 0 .242.243h.188a.836.836 0 0 0 1.633-.243.835.835 0 0 0-1.577-.378v-.364h.098a.243.243 0 0 0 0-.486h-.095a.19.19 0 0 1 .024-.078l.224-.225h1.378v1.53c0 .137.11.244.243.244h.298c.244-.173.499-.335.767-.48.005 0 .008-.003.012-.004h-.833v-.5h1.94a10.205 10.205 0 0 1 1.82-.487h-3.76V11.43h2.534c-.25-.162-.513-.329-.78-.486z"/><path id="_240139920" class="fil0" d="M91.868 11.783h-.291v1.79h.449v-1.678a5.683 5.683 0 0 0-.157-.112z"/><path id="_240140400" class="fil0" d="M92.705 12.39v1.182l.447.001.002-.843a44.554 44.554 0 0 0-.45-.34z"/><path id="_240140304" class="fil0" d="M80.713 14.348l.969.718-.969.921v-1.639zm0-2.713l.958.778-.958.779v-1.557zm0-2.096h.842l-.842.825V9.54zm1.122.835v1.446l-.983-.8.983-.965v.319zm0 4.105l-.946-.704.946-.765v1.47zm0 3.16l-1-.991 1-.948v1.939zm.565-6.71l.8.58-.8.434V10.93zm2.27-.3c-.08.068-.159.14-.232.213l-.686.371-.78-.568 1.698-.016zm.244 5.508l.027.032-.32.29-.028-.033a1.18 1.18 0 0 1-.306-.664c.255.058.46.185.627.375zm-4.201 3.192v-2.006l1.206 1.193.48-.2v-5.734l1.243-.67c-.14.277-.247.57-.313.873-.348 1.583.484 2.904.521 2.96l.01-.007c.018.36.166.702.413.976l.169.189c.084.093.205.1.3.013l.16-.144.285.316c.084.092.206.098.3.012a.431.431 0 0 1 .606.027.427.427 0 0 1-.041.601.424.424 0 0 1-.602-.027c-.085-.093-.206-.097-.302-.01-.097.085-.104.205-.02.3a.858.858 0 0 0 1.208.053.86.86 0 0 0 .077-1.206.852.852 0 0 0-1.028-.177l-.161-.178.163-.142c.096-.09.104-.21.019-.303l-.17-.189a1.572 1.572 0 0 0-.798-.483l.021-.014c-.066-.105-1.531-2.487.948-4.39l.71-.383-.137-.529-3.58.04v-.836l-.283-.281h-1.686l-.283.28v10.454l.345-.25.22-.128z"/><path id="_240139800" class="fil0" d="M83.805 25.598a.559.559 0 0 1-.109-.417.56.56 0 0 1 1.114.148.578.578 0 0 1-.217.375.576.576 0 0 1-.413.11h-.003a.575.575 0 0 1-.372-.216zm.45 1.13c.735 0 1.36-.549 1.458-1.278a1.461 1.461 0 0 0-.293-1.091c-.24-.31-.585-.51-.975-.562a1.468 1.468 0 0 0-1.653 1.265 1.478 1.478 0 0 0 1.463 1.666z"/><path id="_240140208" class="fil0" d="M117.811 26.099a1.587 1.587 0 0 0-.124.138c-.12.14-.4.404-.55.54l-.07.068c-.142.128-.327.205-.523.277-.496.184-.805.546-.918 1.08-.069-.26-.112-.531-.089-.727.057-.47.305-.87.567-1.291.063-.103.128-.207.19-.313a.254.254 0 0 0-.008-.279.259.259 0 0 0-.25-.122c-.607.068-1.13.31-1.605.605.088-.307.311-.562.558-.843.031-.04.065-.08.097-.118a.264.264 0 0 0-.325-.407 30.17 30.17 0 0 1-1.083.549c-.3.142-.619.264-.92.377-.24.093-.46.213-.666.344a1.42 1.42 0 0 1 .191-.319c.146-.188.322-.348.508-.523.09-.081.181-.164.27-.253.379-.374.69-.763.948-1.195a.268.268 0 0 0-.143-.391 2.306 2.306 0 0 0-.846-.109.652.652 0 0 0-.354.152l-.024.016c-.008.006-.017.01-.024.017.004-.018.01-.036.016-.055a.891.891 0 0 1 .314-.456.18.18 0 0 0 .046-.048.302.302 0 0 0 .052-.308.3.3 0 0 0-.258-.176.246.246 0 0 0-.098.008 1.32 1.32 0 0 1-.644.022c-.429-.09-.867-.1-1.343-.03.023-.02.043-.036.063-.056.278-.268.623-.401 1.088-.531.28-.08.532-.21.77-.337.085-.044.166-.085.25-.125.189-.092.22-.232.22-.305 0-.09-.035-.222-.221-.318-.248-.127-.5-.135-.743-.118a.92.92 0 0 0 .326-.3c.073-.112.223-.164.457-.237l.027-.008c.1-.031.17-.116.186-.216a.27.27 0 0 0-.12-.261c-.043-.026-.084-.055-.123-.078-.078-.05-.152-.096-.22-.145-.34-.245-.56-.496-.69-.79-.12-.265-.35-.4-.512-.476a3.15 3.15 0 0 0-.49-.178c.34-.069.669-.052 1.014.076.441.168.871.379 1.273.624l.002.004c.037.027.143.114.299.083a.27.27 0 0 0 .213-.227c.087-.672-.15-1.165-.514-1.595.344.1.7.276 1.096.533a.27.27 0 0 0 .334-.037.264.264 0 0 0 .034-.331c-.126-.198-.132-.217-.167-.317-.017-.046-.037-.104-.07-.191-.042-.105-.035-.233-.025-.38.005-.067.01-.132.01-.207.004-.242.106-.506.231-.765-.124-.105-.263-.218-.42-.35-.182.35-.338.724-.343 1.109 0 .058-.005.114-.008.175-.01.14-.021.291.01.45a3.263 3.263 0 0 0-1.435-.328.272.272 0 0 0-.248.173.26.26 0 0 0 .073.29c.458.413.825.782.909 1.284a8.573 8.573 0 0 0-1.068-.493c-.853-.324-1.621-.073-2.324.248a.268.268 0 0 0-.156.245.27.27 0 0 0 .16.241c.095.041.184.053.244.062.4.054.784.117 1.137.28.142.074.215.134.252.216.165.365.423.672.809.96a.86.86 0 0 0-.278.259c-.094.14-.21.185-.439.17-.21-.052-.315.068-.35.122-.045.07-.101.212.018.388l.004.006a.882.882 0 0 0 .857.447 2.32 2.32 0 0 1-.394.156c-.427.118-.915.276-1.315.66a.529.529 0 0 1-.337.133c-.009 0-.016 0-.023-.003-.273-.027-.37.122-.402.215-.081.228.076.4.156.487a.582.582 0 0 0 .393.193c.162.016.316-.009.443-.034.47-.088.898-.088 1.309 0 .096.018.191.03.287.036-.039.08-.072.162-.098.248-.07.237-.16.35-.322.398a.342.342 0 0 0-.25.262c-.008.06-.014.21.157.338.25.187.502.072.624.019.187-.084.346-.2.5-.31l.112-.081.028-.019c.027-.019.068-.047.078-.052.1-.003.2-.003.297.008a6.173 6.173 0 0 1-.92 1.018c-.192.18-.391.363-.566.587a1.866 1.866 0 0 0-.411 1.185.262.262 0 0 0 .098.203c.06.05.138.071.215.057a.618.618 0 0 0 .257-.116l.049-.033c.29-.195.564-.381.872-.497.315-.117.647-.245.967-.397.032-.017.066-.032.099-.047-.123.267-.188.57-.128.939a.269.269 0 0 0 .16.203.268.268 0 0 0 .256-.027c.42-.294.804-.528 1.214-.67-.232.385-.442.79-.5 1.278-.075.61.307 1.747.602 1.998a.26.26 0 0 0 .275.043.26.26 0 0 0 .162-.23c.014-.274.04-.539.079-.807.059-.417.247-.661.601-.794.238-.088.487-.19.696-.386l.072-.063c.1-.092.216-.2.323-.31.057-.056.1-.102.141-.143a2.831 2.831 0 0 0-.15-.62z"/><path id="_240140136" class="fil0" d="M94.902 6.27h-.577v.577h.577z"/><path id="_240138984" class="fil0" d="M97.069 6.27h-.579v.577h.579z"/><path id="_240139272" class="fil0" d="M93.697 5.526l1.748-1.265v1.134a.23.23 0 0 0 .094.185l.013-.011-.005.019c.077.059.186.059.266 0l.087-.064v.002l1.748-1.265v1.134a.23.23 0 0 0 .094.185l.013-.011-.006.019c.077.059.187.059.268 0l.088-.064v.002l1.748-1.265v.595h.455V3.823a.234.234 0 0 0-.096-.185v.002l.001-.01a.229.229 0 0 0-.266 0l-.087.064v-.002l-1.755 1.272V3.823a.234.234 0 0 0-.096-.185v.002l.002-.01a.233.233 0 0 0-.268 0l-.086.064v-.002L95.9 4.964V3.823a.232.232 0 0 0-.094-.185l-.002.002.004-.01a.23.23 0 0 0-.267 0l-2.204 1.595a.233.233 0 0 0-.095.186v2.552c.153.104.306.211.455.324v-2.76z"/><path id="_240139248" class="fil0" d="M91.584 9.557l.25.145.29-.5-.25-.144c-.26-.152-.524-.29-.785-.417l-.261-.128-.252.522.26.127a9.5 9.5 0 0 1 .748.395z"/><path id="_240139632" class="fil0" d="M102.077 13.915l.283-.055-.112-.568-.282.056c-.26.05-.537.088-.827.112l-.286.023.045.577.287-.023c.31-.026.612-.066.892-.122z"/><path id="_240139224" class="fil0" d="M95.594 12.363l.325-.48-.673-.458s-.108-.076-.272-.195l-.238-.169-.334.472.235.168c.167.12.276.196.28.201l.677.46z"/><path id="_240139512" class="fil0" d="M93.066 10.56l.393.293.234.17.34-.466-.232-.172a29.33 29.33 0 0 1-.383-.282 8.793 8.793 0 0 0-.31-.237l-.233-.17-.343.466.233.17.301.227z"/><path id="_240139104" class="fil0" d="M99.983 14.066l.05-.575-.287-.025a5.65 5.65 0 0 1-.813-.136l-.28-.069-.136.563.281.07c.306.071.608.12.897.146l.288.026z"/><path id="_240139608" class="fil0" d="M97.649 13.521l.234-.525-.266-.118a8.534 8.534 0 0 1-.75-.375l-.253-.142-.282.504.254.141c.255.144.524.278.797.4l.266.115z"/><path id="_240139416" class="fil0" d="M114.273 21.685c.42 2.317 2.659 3.625 2.815 3.71.04.026.276.166.616.321a3.729 3.729 0 0 1-.422-.961c-.458-.292-2.051-1.426-2.371-3.182-.21-1.17.18-2.405 1.162-3.671a2.805 2.805 0 0 0-.06-.919 3.437 3.437 0 0 0-.184.187c-1.299 1.534-1.823 3.053-1.556 4.515z"/><path id="_240139128" class="fil0" d="M112.27 36.242c-.037-.007-.085-.019-.115-.026-.138-.132-.545-.755-.875-1.259-.407-.618-.857-1.307-1.243-1.796.28-.21.415-.596.373-1.104-.004-.01-.12-1.166-.613-1.23a.346.346 0 0 0-.371.244l-.005.017c-.106.293-.242.682-.532.891a1.047 1.047 0 0 0-.269-.095c.19-.397.238-.895-.141-1.394v.001c-.085-.14-.2-.169-.28-.165a.298.298 0 0 0-.255.16c-.032.064-.058.128-.084.19-.089.225-.18.457-.694.707-.445.217-.706.565-.76.991a2.165 2.165 0 0 0-.522-.206 1.122 1.122 0 0 0-.901.206c-.183.136-.289.305-.3.471-.016.23.15.46.383.664-.26.048-.511.086-.759.117-.135.234-.295.45-.476.641a12.137 12.137 0 0 0 2.024-.328.297.297 0 0 0 .222-.243.288.288 0 0 0-.142-.297c-.28-.165-.564-.393-.645-.514a.553.553 0 0 1 .466-.139c.274.06.643.292.762.475l.01.02c.158.248.354.172.41.145a.299.299 0 0 0 .132-.394c-.29-.764.193-.998.352-1.076.378-.185.603-.382.742-.567-.03.398-.406.708-.464.752a.295.295 0 0 0-.053.41c.097.13.282.157.414.061.031-.024.32-.225.607-.042.154.12.29.085.356.055.369-.177.593-.487.746-.789.054.228.082.501.023.71-.047.162-.127.205-.19.222-.041.013-.236.08-.292.266a.307.307 0 0 0 .069.293c.392.45.93 1.272 1.404 1.996.652.992.897 1.349 1.082 1.454a.996.996 0 0 0 .28.084l.13.028c.059.202-.047.566-.17.827l-.034.007a.29.29 0 0 0-.165.113c-.152.204-.41.526-.503.606-.19.161-.424.069-.784-.105-.142-.067-.276-.132-.41-.164-.597-.146-1.325-.272-2.204-.09-.401.085-.815.23-1.222.435-.484.242-.75 1.34-.841 1.8a.294.294 0 0 0 .288.353c.14 0 .263-.097.29-.236.13-.647.38-1.31.527-1.39.362-.181.724-.31 1.078-.383.763-.158 1.41-.046 1.945.084.073.016.18.068.294.126.367.174.924.442 1.418.024.15-.125.407-.457.534-.626l.065-.014a.298.298 0 0 0 .188-.147c.056-.102.547-1.03.17-1.605-.09-.138-.259-.176-.47-.222z"/><path id="_240138288" class="fil0" d="M115.748 33.158c-.429-.378-.9-.588-1.3-.57-.315-.512-1.124-.923-1.702-.864-.187-.174-.605-.535-1.101-.759a2.553 2.553 0 0 1 1.756-.68c1.349 0 2.447 1.01 2.447 2.243 0 .215-.034.43-.1.63zm-2.347-3.394c-.91 0-1.751.379-2.314 1.029a.053.053 0 0 0-.019-.004l-.004.03a2.573 2.573 0 0 0-.177.23l.107.26c.722.104 1.468.871 1.476.882l.11.113.153-.045c.144-.04.356 0 .569.086l-.803 1.482a9.147 9.147 0 0 0-.316-.012c-.063-.002-.125-.002-.189-.002-.148 0-.3 0-.447.007-.175-.007-.35-.007-.523-.007l.549.722a32.527 32.527 0 0 1 1.085.023 10.775 10.775 0 0 1 2.656.516c.136-.223.293-.415.434-.61-.842-.3-1.746-.504-2.675-.596l.686-1.264c.135.107.242.226.286.34l.074.257.252-.075c.247-.07.704.096 1.143.53l-.002.007.02.011c.067.068.133.139.198.221l.224.05c.274-.428.419-.915.419-1.417 0-1.525-1.334-2.764-2.972-2.764z"/><path id="_240138120" class="fil0" d="M105.531 37.396a.6.6 0 0 1 .09-.359.23.23 0 0 0 .019-.218.935.935 0 0 0-.494-.497 1.157 1.157 0 0 0-.81-.034.762.762 0 0 0-.472.384c-.17.315-.185.796-.04 1.369a2.426 2.426 0 0 0-.13 0 1.7 1.7 0 0 0-.026-.49.336.336 0 0 0-.196-.24.929.929 0 0 0-1.007.267c-.17.211.02.487.081.579.023.032.052.082.083.137.021.039.044.077.066.11-.066.044-.13.086-.19.128-.122-.31-.23-.717-.184-1.134v-.009c.004-.084.046-.273.07-.373l.01-.051c.004-.006.005-.013.007-.019.12-.422.344-.777.646-1.029.259-.212.599-.346 1.047-.413.61-.087 1.43.752 1.69 1.077.05.069.129.104.214.096.258-.03.414.036.511.118h-.008c-.158 0-.343.033-.547.131a.843.843 0 0 0-.43.47zm-2.655.426a.543.543 0 0 1 .171-.083.57.57 0 0 1 .183-.012c.01.073.017.216-.018.41-.04.015-.08.03-.12.047a1.234 1.234 0 0 1-.216-.362zm1.04 2.242c-.067.027-.226-.016-.43-.17-.277-.205-.562-.551-.777-.935.257-.268.665-.525 1.24-.437.04.211.077.529.084.599l.002.007c.067.45-.04.884-.119.936zm2.25-2.722c.22-.107.4-.092.512-.062a.346.346 0 0 0 .354-.11.334.334 0 0 0 .051-.348.966.966 0 0 0-.35-.443 1.072 1.072 0 0 0-.65-.176c-.51-.59-1.157-1.05-1.588-1.124a1.49 1.49 0 0 0-.443-.036c-.48.036-.928.214-1.292.515-.37.306-.644.733-.79 1.232-.04.106-.1.376-.111.559-.048.456.038.945.259 1.459l.117.252c.253.488.616.94.97 1.204.278.209.495.273.665.273a.59.59 0 0 0 .219-.042c.35-.14.498-.65.407-1.4a7.46 7.46 0 0 0-.174-.99 3.612 3.612 0 0 1-.116-.54c-.001-.006-.095-.717.262-.834.33-.094.575.013.694.18a1.252 1.252 0 0 0-.081.272.975.975 0 0 0 .259.853.341.341 0 0 0 .376.088.342.342 0 0 0 .214-.324c-.003-.227.076-.38.235-.458z"/><path id="_240138816" class="fil0" d="M103.561 39.177a.288.288 0 0 0-.22-.028.285.285 0 0 0-.178.136.281.281 0 0 0-.028.22.283.283 0 0 0 .28.217.296.296 0 0 0 .252-.144.303.303 0 0 0 .03-.221.302.302 0 0 0-.136-.18z"/><path id="_240138768" class="fil0" d="M98.843 8.93h-1.56v.576h1.56z"/><path id="_240138648" class="fil0" d="M97.283 10.474h1.56v-.578h-1.56z"/><path id="_240138192" class="fil0" d="M101.728 6.327h-.602a.08.08 0 0 0-.08.082v.524h-.525a.08.08 0 0 0-.08.08v.604a.08.08 0 0 0 .08.078h.526v.524c0 .045.034.08.079.08h.602c.047 0 .08-.035.08-.08v-.524h.526a.079.079 0 0 0 .078-.078v-.605a.077.077 0 0 0-.078-.079h-.527V6.41a.079.079 0 0 0-.079-.082z"/><path id="_240138744" class="fil0" d="M102.26 11.45v-1.235h.333v-.334h-2.33v.334h.334v1.531c.109-.006.219-.013.332-.026v-1.505h.998v1.327c.11-.029.222-.06.333-.091z"/><path id="_240138312" class="fil0" d="M99.23 5.398v2.584h-2.586a.248.248 0 0 0-.247.25v2.078c.162.11.327.217.497.32V8.48h2.335v3.154c.163.037.33.065.5.084V5.647h3.4v5.286l.497-.359V8.481h2.334v.999l.109.074a.58.58 0 0 1 .392-.228V8.232a.25.25 0 0 0-.248-.25h-2.587V5.398a.25.25 0 0 0-.25-.25h-3.898a.25.25 0 0 0-.249.25z"/><path id="_240138624" class="fil0" d="M101.186 28.596l-.035 1.856c.099.002.198.015.292.04.1.024.195.063.282.107l.848-1.65s-.519-.586-1.387-.353z"/><path id="_240138528" class="fil0" d="M100.724 30.514l-.566-1.764s-.78-.046-1.228.732l1.287 1.338c.142-.138.317-.244.507-.306z"/><path id="_240138600" class="fil0" d="M97.962 31.7l1.864.035c0-.098.01-.2.035-.301.025-.095.06-.184.103-.268l-1.651-.85s-.585.52-.351 1.385z"/><path id="_240137520" class="fil0" d="M98.845 33.958l1.35-1.297a1.31 1.31 0 0 1-.306-.5l-1.775.57s-.046.78.731 1.227z"/><path id="_240137400" class="fil0" d="M99.686 34.583a.03.03 0 0 0 .01.01l.002.004.019.015c.003.001.003.001.003.003l.023.02c.003.004.006.004.007.006.01.009.02.018.032.026.001.003.005.005.007.007.012.008.024.02.038.03h.002l.045.033c.001.004.007.005.01.008.015.01.033.02.05.033l.01.007c.02.01.041.02.06.032l.002.002.065.032c.004.001.007.005.014.007.022.01.046.02.069.027.005.004.01.006.015.008l.078.027h.001c.026.008.055.016.083.022.006 0 .01.003.018.004a.618.618 0 0 0 .086.018c.006 0 .012.003.019.004.032.003.064.008.096.01a.94.94 0 0 0 .102.005h.02c.029 0 .057 0 .084-.003h.001c.03-.003.06-.005.091-.01l.026-.002.068-.013c.01 0 .02-.001.028-.005.032-.007.063-.013.097-.022v-.045l.034-1.827a1.218 1.218 0 0 1-.296-.04 1.207 1.207 0 0 1-.27-.102l-.714 1.389-.14.273.004.003.001.004z"/><path id="_240137760" class="fil0" d="M103.322 34.044l-1.298-1.348a1.275 1.275 0 0 1-.5.296l.57 1.783s.782.047 1.228-.73z"/><path id="_240137568" class="fil0" d="M104.293 31.824l-1.866-.038a1.313 1.313 0 0 1-.148.567l1.663.855s.585-.519.351-1.384z"/><path id="_240137880" class="fil0" d="M104.139 30.795s.047-.78-.73-1.227l-1.342 1.29c.135.142.238.317.3.505l1.772-.568z"/><path id="_240137712" class="fil0" d="M102.067 31.753a.94.94 0 1 0-1.88.001.94.94 0 0 0 1.88-.001z"/><path id="_240138000" class="fil0" d="M101.781 21.392h-.576v.581h.576z"/><path id="_240137592" class="fil0" d="M101.781 22.362h-.576v.577h.576z"/><path id="_240137856" class="fil0" d="M107.986 21.392h-.58v.581h.58z"/><path id="_240137928" class="fil0" d="M107.986 22.362h-.58v.577h.58z"/><path id="_240136680" class="fil0" d="M109.263 12.947h-.579v.58h.579z"/><path id="_240136752" class="fil0" d="M105.207 11.71h.581v-.578h-.581z"/><path id="_240136584" class="fil0" d="M86.146 29.317c1.906.43 3.897 1.472 4.951 2.67l.657-.23c-1.104-1.392-3.317-2.59-5.465-3.074-1.897-.495-4.232-.342-6.149.516v.734c1.868-1.03 4.184-1.095 6.006-.616z"/><path id="_240137208" class="fil0" d="M89.767 26.277a10.23 10.23 0 0 1 3.15-.966c.264-.037.53-.064.795-.083.023 0 .045-.003.072-.004.242-.011.72-.015 1.016-.018h.637c-1.653.438-3.376 1.14-4.387 1.863a3.579 3.579 0 0 0-.495.414 11.14 11.14 0 0 0-1.601-.743c.26-.166.531-.32.813-.463zm2.14-3.335c-.427 0-.8-.29-.903-.7h.515c.404 0 .76.257.885.64v.06h-.498zm.38-1.891a.284.284 0 0 1-.256.052l-.013-.003a.3.3 0 0 1-.196-.17.304.304 0 0 1 .02-.264l.247-.43c.103.039.207.067.315.083v.498c0 .092-.04.178-.116.234zm-.73-2.35a1.112 1.112 0 0 1 2.223 0 1.111 1.111 0 0 1-2.222 0zm-.176 1.7a.287.287 0 0 1-.218.146.292.292 0 0 1-.245-.083l-.009-.01a.286.286 0 0 1-.085-.248.294.294 0 0 1 .147-.218l.43-.248c.067.084.145.162.23.229l-.25.432zm-.676-.87a.306.306 0 0 1-.264.015.287.287 0 0 1-.17-.192l-.005-.012a.295.295 0 0 1 .054-.259.293.293 0 0 1 .235-.116h.495c.017.107.045.214.085.315l-.43.249zm-.44-1.47l.007-.011a.284.284 0 0 1 .169-.193.298.298 0 0 1 .264.018l.43.247c-.04.104-.068.206-.085.315h-.495a.294.294 0 0 1-.235-.117.296.296 0 0 1-.054-.259zm.644-1.112l.009-.008a.28.28 0 0 1 .245-.082c.094.01.173.065.218.143l.25.431c-.085.07-.163.147-.23.23l-.43-.25a.292.292 0 0 1-.062-.464zm.913-.474a.299.299 0 0 1 .196-.169l.013-.004a.297.297 0 0 1 .373.284v.499a1.56 1.56 0 0 0-.315.082l-.248-.43a.301.301 0 0 1-.019-.262zm1.113.111a.28.28 0 0 1 .115-.229.3.3 0 0 1 .258-.055l.012.004a.294.294 0 0 1 .177.431l-.249.43a1.51 1.51 0 0 0-.313-.082v-.499zm1.02.417a.296.296 0 0 1 .218-.144.283.283 0 0 1 .248.082l.008.008a.297.297 0 0 1 .084.248.29.29 0 0 1-.145.216l-.43.25a1.689 1.689 0 0 0-.23-.23l.246-.43zm.675.875l.007-.006a.291.291 0 0 1 .257-.015c.088.034.15.105.174.193l.001.011a.294.294 0 0 1-.05.26.298.298 0 0 1-.236.116h-.494a1.484 1.484 0 0 0-.085-.315l.421-.244h.005zm.44 1.464l-.002.012a.286.286 0 0 1-.174.192.294.294 0 0 1-.255-.014l-.435-.25c.04-.1.068-.208.085-.315h.494c.094 0 .18.043.237.116a.293.293 0 0 1 .05.259zm-.64 1.112l-.01.01a.298.298 0 0 1-.466-.063l-.245-.432c.082-.067.161-.145.229-.23l.43.249a.299.299 0 0 1 .061.466zm-.916.475a.293.293 0 0 1-.194.171l-.012.003a.289.289 0 0 1-.258-.052.295.295 0 0 1-.115-.234v-.498a1.44 1.44 0 0 0 .313-.083l.25.43a.296.296 0 0 1 .016.263zm.328 1.312h.514a.93.93 0 0 1-.901.7h-.477v-.12a.933.933 0 0 1 .864-.58zm1.864 1.897c.148-.227.27-.46.372-.695a3.714 3.714 0 0 0 .217-2.282 14.421 14.421 0 0 1 1.89-.029 3.7 3.7 0 0 0 .02 2.013c.07.231.155.46.266.685l.064.12c.126.239.28.474.46.703a9.882 9.882 0 0 0-.463.273c-.016.012-.03.02-.045.03a11.224 11.224 0 0 0-1.625-.354c-.29-.043-.583-.076-.88-.096-.176-.011-.353-.016-.528-.02.089-.115.173-.23.252-.348zm4.26 2.184c.31.158.608.333.89.523-2.08-.093-5.541.838-7.192 1.833-.164.1-.314.202-.444.3-.005.002-.162.124-.264.201-.185-.164-.382-.33-.587-.489l.033-.027c.139-.117.311-.236.502-.354 1.516-.936 5.078-2.065 7.062-1.987zm-8.134 1.969c-.227-.16-.457-.315-.696-.463.129-.115.28-.23.454-.344 1.384-.919 4.064-1.813 5.94-2.029.07.014.14.03.209.046.294.072.583.155.863.247l.065.023c-2.061.192-4.83 1.148-6.259 2.084-.158.102-.3.205-.42.308a3.39 3.39 0 0 0-.156.128zm15.164-14.914l1.978-1.432.854.6a.23.23 0 0 0 .239.017.226.226 0 0 0 .124-.203v-.464h.226v.981c0 .071.037.142.095.186l.438.315v1.813c-.935-.106-1.857-.301-2.717-.503-.392-.089-.806-.183-1.237-.272v-1.038zm-4.852 7.558l.023 2.555-.106.02c-.424.09-.809.197-1.14.303l-.023-2.87 1.246-.008zm2.44-1.801l1.86 1.181.024 3.026a10.163 10.163 0 0 0-.974-.069l-.005-.926a.884.884 0 0 0-.883-.876.883.883 0 0 0-.877.886l.006.933c-.032.002-.063.002-.094.005-.297.019-.589.054-.877.095l-.026-3.054 1.846-1.201zm1.536-1.754l.002.326-1.248.007-.002-.326 1.248-.007zm-1.32 5.896a14.398 14.398 0 0 0-.714-.002l-.006-.92a.528.528 0 1 1 1.056-.006l.006.92c-.114 0-.226.003-.342.008zm3.49-2.376l.02 2.802a12.296 12.296 0 0 0-1.245-.275l-.023-2.52 1.247-.007zM87 28.19c1.995.453 4.395 1.968 5.429 3.265l.643-.227-.016-.024c-.988-1.348-3.317-2.9-5.42-3.52.118-.071.33-.194.372-.23a4 4 0 0 1 .291-.245c2.019.59 4.486 2.387 5.383 3.716.004.005.006.013.011.019l.632-.221c-.033-.054-.07-.109-.104-.16a6.587 6.587 0 0 0-.794-.937 18.2 18.2 0 0 1 .678-.456c1.54-.893 5.629-2.131 7.697-1.596.055.039.103.07.103.07.57.41 1.418.705 2.27.762.05.003.096.004.144.008.134.003.268.001.398-.005-.025.05.953-.135 1.243-.277.036-.016.072-.029.106-.045.364-.143.734-.175 1.178-.076.175.043.349.163.508.285a.644.644 0 0 1 .056.043l.21.167c.687.517 1.44 1.035 2.328 1.127a5.388 5.388 0 0 0 1.669-.114c.09-.02.185-.042.277-.067.31-.084.57-.281.9-.319.476-.055 1.146-.146 1.675.037-.12-.247-.238-.499-.26-.76-.398-.015-.023.004-.46-.023-.672-.042-1.141.015-1.868.303-.003.001-.126.04-.302.088-.308.079-.795.189-1.163.173-.028 0-.056 0-.08-.002-.653-.056-1.433-.365-2.031-.762-.047-.03-.093-.065-.14-.098-.208-.156-.414-.338-.636-.484a1.91 1.91 0 0 0-.378-.196 2.445 2.445 0 0 0-1.827.042c-.431.187-.96.254-1.497.235-1.027-.035-2.227-.88-2.227-.88-.745-.633-1.634-1.15-2.613-1.539-.002-.002-.008-.002-.012-.004a9.942 9.942 0 0 1 3.032-1.082 10.594 10.594 0 0 1 1.284-.167c.295-.02 1.34-.022 1.34-.022.294-.004.587.002.882.022 1.949.132 3.778.775 5.167 1.795.067-.244.252-.51.409-.672-.715-.52-1.625-.947-2.582-1.256l-.025-3.281a.291.291 0 0 0-.086-.21.284.284 0 0 0-.21-.087l-1.546.008-.003-.163a.29.29 0 0 0-.136-.248l-2.022-1.283v-.309l1.544-.008a.297.297 0 0 0 .296-.3l-.004-.92a.295.295 0 0 0-.298-.297h-.002l-1.842.011a.301.301 0 0 0-.212.088.297.297 0 0 0-.084.21l.007 1.527-2.007 1.306a.296.296 0 0 0-.135.252v.16l-1.543.01a.299.299 0 0 0-.298.3l.023 3.375a8.942 8.942 0 0 0-.56.237c-.037.019-.08.037-.118.055a4.217 4.217 0 0 1-.548-.855 3.329 3.329 0 0 1-.241-.687 2.95 2.95 0 0 1-.077-.74c.006-.256.044-.508.114-.758l.246-.796a16.086 16.086 0 0 0-.934-.069c0-.126 0-.251.004-.376a5.894 5.894 0 0 1 .032-.423 2.265 2.265 0 0 1 .089-.411c.009-.038.024-.08.037-.117a.675.675 0 0 1 .02-.045l.022-.05c.048-.09.1-.172.156-.254l.05-.07s.024-.029.032-.042c.028-.039.064-.076.094-.117.064-.07.13-.139.201-.204.028-.027.063-.054.095-.08.013-.01.024-.023.039-.033a2.429 2.429 0 0 1 .252-.165c.032-.018.065-.037.1-.053.018-.01.04-.02.061-.03a2.857 2.857 0 0 1 .482-.149c.028-.005.065-.016.093-.016.006 0 .008 0 .013-.002a2.716 2.716 0 0 1 .61.005c.007 0 .036.007.046.003.006.002.011.004.019.005a3.415 3.415 0 0 1 .64.17c.013.006.039.01.046.019l-.034-.015.031.015c.05.022.098.048.148.076.097.054.196.106.302.144.569.182 1.18-.033 1.741-.135.104-.021.21-.038.316-.055v-.589c-.082.016-.164.032-.245.046-.231.042-.462.088-.69.14a1.994 1.994 0 0 1-.207.039c-.024.006-.046.008-.07.012-.005 0-.028.002-.041.005l-.137.015a2.49 2.49 0 0 1-.283.006c-.023-.003-.047-.005-.072-.005l-.002-.001c-.033-.009-.067-.012-.1-.022-.028-.007-.054-.016-.08-.024h-.003l-.122-.065a2.715 2.715 0 0 0-.394-.183 3.413 3.413 0 0 0-1.054-.195 2.693 2.693 0 0 0-1.983.78c-.341.34-.62.76-.729 1.233-.087.393-.11.797-.101 1.2-.245 0-.532.011-.796.02.034-.631.081-1.238.291-1.843.058-.164.098-.254.182-.412a2.335 2.335 0 0 1 .22-.351c.005-.005.017-.024.024-.032.094-.115.196-.223.305-.322.031-.025.057-.051.088-.076a.26.26 0 0 0 .044-.035l.008-.006c.062-.044.124-.088.186-.128.13-.084.263-.156.4-.22.032-.013.062-.028.094-.042.007-.004.053-.02.063-.025.074-.028.151-.055.227-.078.3-.096.605-.143.913-.198.344-.058.673-.161.948-.385.247-.198.42-.47.661-.672a1.77 1.77 0 0 1 .17-.124c.069-.045.145-.089.217-.13.076-.04.154-.077.23-.111.014-.006.027-.015.04-.02l.01-.003c0-.002.007-.006.014-.007l.133-.052c.287-.107.58-.189.875-.27l.095-.02a6.586 6.586 0 0 1 1.618-.132c1.098.037 2.19.293 3.248.539.953.223 1.937.455 2.935.527.095.006.188.01.28.01 1.04 0 2.13-.403 2.884-1.063a69.78 69.78 0 0 0-.46-.372c-.654.527-1.616.885-2.37.87V13.26a.229.229 0 0 0-.094-.183l-.438-.317v-1.095a.23.23 0 0 0-.227-.228h-.685a.228.228 0 0 0-.226.228v.256l-.63-.442a.225.225 0 0 0-.266 0l-.86.623v-.598a.226.226 0 0 0-.095-.184l-.437-.317V9.91a.229.229 0 0 0-.228-.227h-.683a.229.229 0 0 0-.228.227v.253l-.628-.437a.218.218 0 0 0-.268 0l-2.205 1.596a.23.23 0 0 0-.088.148c-1.618.604-2.997.728-4.213.382-1.524-.434-2.836-1.36-4.03-2.296l-.05-.04c-1.083-.85-2.106-1.654-3.32-2.24-.146.16-.316.277-.491.399l-.006.003c1.222.555 2.3 1.377 3.345 2.176 1.299.993 2.645 2.02 4.278 2.52 1.312.402 2.819.304 4.483-.288v1.554l.455-.161V11.62l1.978-1.432.856.6c.068.049.159.055.234.018a.234.234 0 0 0 .126-.203v-.468h.227v.983c0 .076.036.143.094.185l.44.317v.812l-.891.645a.229.229 0 0 0-.094.183v1.07c-1.07-.186-2.218-.282-3.32-.056a.303.303 0 0 0-.077.01c-.372.1-.758.204-1.12.347-1.63.477-3.375.28-4.92-.428-1.62-.74-2.96-1.97-4.393-3-1.604-1.15-3.35-2.22-5.37-2.283-1.389-.043-2.784.047-4.174.05v.565c1.297-.006 2.595-.07 3.89-.058.765.01 1.502.094 2.219.377 1.135.454 2.217 1.161 3.203 1.872 1.138.822 2.218 1.764 3.43 2.483a15.248 15.248 0 0 0-2.648.065c-1.182.144-2.344.458-3.394 1.03a6.915 6.915 0 0 0-1.54 1.135l.407.406c.094-.092.191-.182.292-.267.048-.042.098-.083.146-.123l.08-.066c0 .003.011-.007.018-.013l.041-.032a7.15 7.15 0 0 1 1.419-.822c.028-.013.058-.025.086-.039a9.471 9.471 0 0 1 .637-.234c1.169-.38 2.362-.502 3.591-.49.733.005 1.463.058 2.193.13a.135.135 0 0 0 .048-.001c1.13.443 2.344.645 3.543.541-.072.08-.141.164-.217.242-.052.06-.11.113-.17.165l-.02.013a.744.744 0 0 1-.157.093.108.108 0 0 1-.032.017l-.032.014a4.1 4.1 0 0 1-.111.038 3.728 3.728 0 0 1-.247.058c-.318.063-.635.1-.947.191a4.239 4.239 0 0 0-.908.39 3.183 3.183 0 0 0-1.33 1.54c-.298.713-.364 1.489-.403 2.255l-.223.012c-.225.02-.45.047-.669.077 0 0 .227.763.233.796.05.231.072.465.067.7-.01.467-.133.926-.359 1.367a4.322 4.322 0 0 1-.815 1.086h-.301c-.175.005-.347.01-.522.022l-.327.028-.36.041v-1.221h.676c.098 0 .428-.038.568-.154.082-.07.2-.19.204-.194.27-.265.419-.618.419-.995a.231.231 0 0 0-.23-.23h-.773c-.314 0-.618.108-.864.303v-.482c.21.069.438.05.64-.05a.82.82 0 0 0 .412-.494.83.83 0 0 0 .772-.222.828.828 0 0 0 .225-.771.833.833 0 0 0 .555-.58.822.822 0 0 0-.191-.783c.194-.213.269-.501.19-.783a.829.829 0 0 0-.554-.58.826.826 0 0 0-.226-.772.826.826 0 0 0-.771-.222.818.818 0 0 0-.578-.552.825.825 0 0 0-.784.19.82.82 0 0 0-.783-.19.814.814 0 0 0-.576.552.831.831 0 0 0-.997.994.83.83 0 0 0-.557.58.826.826 0 0 0 .193.783.835.835 0 0 0 .364 1.363.827.827 0 0 0 .224.77.821.821 0 0 0 .771.223.813.813 0 0 0 .439.507.849.849 0 0 0 .658.024v.513a1.39 1.39 0 0 0-.885-.32h-.775a.23.23 0 0 0-.228.23c0 .376.149.729.416.989.007.012.21.273.527.335.204.04.734.027.945.022v1.305c-1.173.21-2.284.594-3.26 1.126.003-.047.007-.074.007-.076V25.483l.346-.124c.314-.116.623-.26.73-.31a.606.606 0 0 0 .362-.29l.005-.011a.729.729 0 0 0 .063-.454l-.004-.026a2.187 2.187 0 0 1-.03-.143l-.003-.015c-.006-.026-.01-.054-.018-.088a2.548 2.548 0 0 0-.06-.246 2.49 2.49 0 0 0-.077-.247c-.01-.027-.016-.055-.026-.08l-.047-.155-.007-.018a.714.714 0 0 0-.21-.3.374.374 0 0 0-.084-.064l-.008-.006-.06-.03-.009-.006a.578.578 0 0 0-.388-.037c-.116.01-.454.044-.784.1-.116.02-.243.043-.364.071a.92.92 0 0 0-.063-.107c-.021-.034-.039-.058-.048-.076a.19.19 0 0 1-.017-.026l-.015-.02-.123-.164c.07-.096.14-.2.209-.305.183-.28.353-.578.41-.681a.608.608 0 0 0 .119-.447l-.002-.011a.695.695 0 0 0-.215-.403l-.018-.02c-.007-.009-.05-.045-.11-.098l-.012-.012c-.017-.015-.039-.037-.064-.058a2.208 2.208 0 0 0-.207-.174l-.39-.294-.015-.01a.721.721 0 0 0-.54-.11.6.6 0 0 0-.337.198c-.088.077-.34.303-.574.545a6.817 6.817 0 0 0-.254.267c-.04-.017-.078-.035-.113-.048-.057-.018-.091-.031-.105-.036l-.122-.046-.066-.024-.044-.016a10.699 10.699 0 0 0-.057-.945l-.027-.206a.57.57 0 0 0-.107-.361.709.709 0 0 0-.473-.281 1.246 1.246 0 0 0-.192-.029h-.047c-.085-.007-.185-.014-.286-.02a3.628 3.628 0 0 0-.377-.01l-.144.004a.723.723 0 0 0-.507.226.555.555 0 0 0-.154.35c-.013.046-.029.124-.048.216-.034.173-.07.379-.099.567-.019.134-.034.258-.047.37-.008 0-.021.003-.03.004-.022.006-.042.012-.063.015l-.115.03a.96.96 0 0 0-.172.047c-.025.01-.052.02-.086.03a10.632 10.632 0 0 0-.748-.89.58.58 0 0 0-.322-.232.703.703 0 0 0-.554.072l-.418.248-.413.297a.847.847 0 0 0-.136.124v.916c.07.145.164.35.268.548.052.104.115.217.177.325a.804.804 0 0 1-.059.062.887.887 0 0 0-.106.134l-.001-.002-.08.104-.037.055-.006.004c-.004.008-.008.012-.013.018-.045-.014-.09-.03-.143-.042v.835c.078.024.138.046.175.058l.31.106.195-.333c.036-.057.075-.108.111-.155.023-.028.043-.054.06-.08l.07-.095c.003-.006.009-.013.01-.017.002 0 .012-.015.034-.038l.005-.006c.052-.056.126-.135.214-.232l.258-.262-.147-.242-.032-.056c-.009-.014-.02-.03-.032-.053-.084-.144-.177-.31-.255-.458-.125-.24-.241-.502-.298-.624l.295-.216.315-.183a9.438 9.438 0 0 1 .774.934l.012.017.045.064.175.25.288-.105.047-.018.014-.006c.123-.04.225-.075.298-.102l.01-.003a.214.214 0 0 1 .053-.015l.128-.03c.025-.003.054-.013.084-.02h.01c.053-.017.119-.033.182-.041l.39-.05.027-.326c.003-.05.026-.32.07-.616.026-.175.06-.366.093-.53.011-.06.02-.111.031-.15l.078-.003c.072-.004.19.003.285.01.105.006.208.011.293.017l.032.003.045.003.017.166c.02.19.035.363.043.526.012.256.012.5.012.628l-.006.311.42.11c.036.009.069.017.098.026l.06.021.062.024.11.037.114.045c.032.011.09.04.142.065.037.016.077.036.122.057.014.006.03.016.043.022l.282.146.22-.26.055-.063c.106-.123.234-.26.35-.38.193-.2.402-.387.503-.474l.309.23c.046.033.097.08.146.125.026.025.052.047.076.066.014.016.028.027.04.038-.072.129-.211.369-.358.594-.13.196-.267.386-.358.508l-.186.255.203.242c.008.012.02.024.028.035l.006.004c.104.142.176.24.23.31l.004.01.004.007c.002.004.004.006.01.012l.174.303c.007.014.015.026.021.04.006.007.007.013.013.021.004.008.01.018.012.026l.14.283.31-.072c.122-.027.36-.08.614-.122.267-.045.55-.078.683-.091l.015.048.096.3c.026.112.05.22.072.305.002.016.003.034.008.05-.133.06-.386.174-.636.269-.223.084-.443.154-.591.203l-.3.092.021.318.004.045.001.008c0 .173 0 .295.004.385l-.044.425v.006l-.01.047-.034.194c-.214.149-.42.306-.616.472 0 0-.556.343-1.191.603-1.678-.3-3.902-.296-5.714.308l.04-.027-.171-.293-.004-.007a.807.807 0 0 0-.025-.055l-.145-.269-.3.069v1.563c2.036-1.06 5.062-.967 6.861-.507z"/><path id="_240136920" class="fil0" d="M84.044 52.342l.453-.567c.258.167.488.335.672.49l-.488.635a5.479 5.479 0 0 0-.637-.558zm-.977-.612l.44-.55c.232.126.459.258.674.39l-.444.556a7.796 7.796 0 0 0-.67-.396zm-1.384-.573l.469-.587c.336.122.679.27 1.015.436l-.445.553a8.694 8.694 0 0 0-1.04-.402zm-.734-.19a7.787 7.787 0 0 0-.492-.083l.464-.599c.08.009.16.016.24.028.193.027.399.073.611.134l-.48.599a9.498 9.498 0 0 0-.343-.08zm5.295 2.243l-.307.397c-.295-.09-.624-.278-.872-.439l.457-.595.29-.375a8.276 8.276 0 0 1-.366-.293c-.944-.76-2.835-1.836-4.215-2.03-.003 0-.005-.003-.009-.003a30.625 30.625 0 0 0-1.03-.097l-.019.773-.033.295v.49l.024-.038c.215.024.43.058.646.1 1.433.289 2.76.97 3.59 1.872.031.037.155.14.155.14.315.28.796.519 1.306.639-.15.572-.296.81-.565 1.065a1.548 1.548 0 0 0-.336-.32 1.721 1.721 0 0 0-1.174-.269c-.007 0-.666-.02-1.02-.167-.396-.165-.82-.503-1.112-.853-.184-.221-.316-.501-.562-.687a1.73 1.73 0 0 0-.952-.348v.442c.216.01.42.068.637.195.14.081.525.636.693.885.01.018.59.544.915.687.4.173 1.23.324 1.443.289h.005v-.002c.023-.003.047-.005.07-.009.255-.027.497.012.767.148.059.03.169.14.29.274-.006.002-.01.008-.019.01l.247.386.071-.042c.004 0 .007-.003.01-.004l.01.01c.021-.02.044-.036.065-.055.098-.06.194-.12.281-.187l-.041-.042c.375-.395.628-.843.747-1.326.005.002.032-.132.032-.132.011-.059.038-.312.038-.312a2.46 2.46 0 0 1-.244-.028l.226-.295.192-.247.224-.273-1.1-.208.545.579z"/><path id="_240137160" class="fil0" d="M84.835 46.592c1.075.14 1.924.744 2.37 1.123l.318-.594c-.5-.425-1.134-.99-2.379-1.154l-.309.625z"/><path id="_240136872" class="fil0" d="M83.563 48.887c1.075.14 1.942.782 2.387 1.162l.315-.607c-.498-.427-1.117-1.02-2.362-1.185l-.34.63z"/><path id="_240137256" class="fil0" d="M84.211 47.692c1.075.14 1.939.78 2.38 1.158l.322-.6c-.5-.427-1.141-.979-2.385-1.142l-.317.584z"/><path id="_240137064" class="fil0" d="M83.19 46.39c-.281-.238-.822-.568-1.465-.837.005-.006.013-.01.018-.016.065-.063.25-.322.164-.38-.08-.055-.246.012-.368.093-.016-.127-.062-.264-.142-.289-.097-.032-.194.27-.202.363-.003.007-.004.019-.005.03a5.524 5.524 0 0 0-1.03-.243l-.02.373v.32c1.063.143 2.294.802 2.733 1.172l.318-.586z"/><path id="_240137088" class="fil0" d="M80.16 47.211c0 .007.086.006.095.008a5.84 5.84 0 0 1 1.94 1.038l.31-.587c-.4-.34-1.344-.877-2.322-1.148-.046.156-.023.595-.023.689z"/><path id="_240136848" class="fil0" d="M83.955 45.025c-.044-.026-.059-.036-.105-.062-.125-.067-.25-.132-.38-.196.065-.002.124-.048.177-.099.066-.062.251-.32.165-.378-.079-.058-.248.013-.37.093-.015-.127-.06-.256-.14-.283-.097-.033-.193.27-.204.36a.45.45 0 0 0 0 .131c-.62-.273-1.29-.486-1.978-.643a.324.324 0 0 0 .097-.156c.03-.085.082-.398-.021-.414-.105-.015-.236.148-.307.281-.066-.133-.2-.296-.306-.28-.102.015-.05.328-.02.413l.02.05a8.033 8.033 0 0 0-.443-.072v.677c1.266.201 2.471.647 3.465 1.224l.35-.646z"/><path id="_240135912" class="fil0" d="M84.826 55.806a1.616 1.616 0 0 0-.38-.371 1.73 1.73 0 0 0-1.171-.273c-.007 0-.669-.014-1.02-.163-.399-.165-.823-.503-1.114-.856-.184-.22-.318-.499-.56-.686a1.754 1.754 0 0 0-.44-.238v.463c.042.02.082.04.123.064.142.082.526.637.693.885.01.019.591.544.913.685.4.177 1.231.327 1.445.29h.007v-.002a1.328 1.328 0 0 1 .833.14c.06.028.171.14.294.274-.007.005-.012.009-.02.011l.247.384a3.3 3.3 0 0 0 .437-.278c-.018-.018-.037-.034-.055-.054-.08-.085-.157-.182-.232-.275z"/><path id="_240136440" class="fil0" d="M88.922 37.53a.313.313 0 0 0-.626 0 .313.313 0 1 0 .626 0z"/><path id="_240136224" class="fil0" d="M87.692 37.437c.174 0 .315-.14.315-.313a.314.314 0 0 0-.628 0c0 .173.138.313.313.313z"/><path id="_240135816" class="fil0" d="M92.721 37.655l.859-1.572-.393-.216-.859 1.574z"/><path id="_240135960" class="fil0" d="M93.704 38.192l.857-1.574-.392-.215-.86 1.574z"/><path id="_240136152" class="fil0" d="M94.69 38.727l.856-1.572-.393-.216-.857 1.574z"/><path id="_240135864" class="fil0" d="M87.523 45.989c.336.224.665.476.836.616l-2.364 4.524c-.386-.268-1.243-.828-1.556-.995-.317-.167-1.345-.576-1.802-.758l2.503-4.447c.365.132 1.136.403 1.693.658.192.085.445.237.69.402zm-2.272-4.967c.008-.002.013-.003.02-.007a.242.242 0 0 0 .042.035l-.062-.028zm14.36.638a1.608 1.608 0 0 0-.732-.067c-.446.052-.86.21-1.293.32-.286.073-.567.172-.853.251a2.67 2.67 0 0 1-.815.115c-.067 0-.132-.006-.2-.012-.03-.004-.062-.005-.094-.01a.314.314 0 0 0-.035-.002 3.403 3.403 0 0 1-.435-.096 3.836 3.836 0 0 1-.747-.3 6.298 6.298 0 0 1-.709-.445c-.232-.163-.464-.333-.725-.45a2.488 2.488 0 0 0-.905-.22 2.875 2.875 0 0 0-.912.127c-.248.07-.493.138-.746.194a9.295 9.295 0 0 1-.305.062c-.047.01-.096.014-.144.024l-.065.01h-.006c-.012.002-.025.002-.026.002a3.604 3.604 0 0 1-.87.007l-.006-.001h-.006c-.021-.006-.045-.006-.068-.01a3.926 3.926 0 0 1-1.098-.369c-.12-.06-.236-.126-.355-.193-.08-.045-.156-.093-.238-.142a.013.013 0 0 0-.006-.003c-.046-.03-.093-.057-.137-.085a10.173 10.173 0 0 0-3.359-1.811 12.43 12.43 0 0 0-2.982-.553 14.235 14.235 0 0 0-.599-.026v.58c.147.001.293.006.438.014.199.01.4.027.598.046.113.013.224.024.339.04l.073.008a.393.393 0 0 0 .03.004c.063.01.124.018.185.029.511.08 1.02.192 1.517.339.275.08.546.172.813.274l.204.081.081.03a.031.031 0 0 0 .017.008c.023.014.05.022.074.035a9.526 9.526 0 0 1 1.325.703c.324.207.608.412.885.644.005.001.006.006.01.007l.009.008a7.122 7.122 0 0 0-.638.61 12.038 12.038 0 0 0-.752-.372c.081.027.157-.026.225-.093.065-.061.253-.32.17-.377-.085-.058-.253.014-.372.095-.016-.13-.064-.258-.142-.284-.098-.032-.192.271-.204.36a.373.373 0 0 0 .008.163 12.403 12.403 0 0 0-2.08-.657.404.404 0 0 0 .087-.092c.052-.074.189-.361.094-.404-.09-.04-.243.06-.345.16-.039-.127-.11-.249-.192-.26-.103-.013-.14.302-.136.392.004.036.007.077.018.11-.46-.084-.929-.146-1.403-.181a.543.543 0 0 0 .046-.103c.031-.085.081-.397-.02-.413-.107-.016-.24.15-.308.28-.067-.13-.2-.296-.305-.28-.103.016-.052.328-.022.413a.46.46 0 0 0 .029.069h-.055c-.072-.004-.214-.005-.288-.007l-.013.82h.076l.2.004c1.884.059 3.671.534 5.15 1.312a6.697 6.697 0 0 0-.449.736 9.78 9.78 0 0 0-.796-.369.487.487 0 0 0 .072-.06c.065-.061.253-.317.168-.377-.083-.059-.25.011-.372.093-.017-.127-.06-.257-.14-.283-.097-.033-.193.267-.206.36a.943.943 0 0 0-.005.083 10.478 10.478 0 0 0-1.351-.38l.014-.021c.052-.074.188-.362.096-.403-.09-.041-.244.057-.347.157-.04-.123-.107-.25-.19-.261-.103-.013-.142.301-.136.392 0 .01 0 .021.002.03a11 11 0 0 0-.93-.113.749.749 0 0 0 .04-.087c.028-.085.08-.398-.02-.412-.107-.017-.242.145-.309.28-.067-.135-.2-.297-.306-.28-.101.014-.05.327-.02.412.005.018.013.035.021.055l-.236-.004-.013.721.248.005c2.723.085 5.211 1.187 6.624 2.849a24.83 24.83 0 0 0-1.897-.738l-.262-.09-2.637 4.645c-.45-.365-1.097-.74-2.056-.926-.015-.002-.027.025-.033.07v.344l.012.176c.79.18 1.394.502 1.887 1.002v.004l.005.002c.001.002.001.002.004.002l.328.13c.016.003 1.422.556 1.838.778.414.22 1.581 1.036 1.592 1.045l.302.211 2.818-5.3-.189-.168c-.015-.014-.015-.02-.231-.193l-.071-.16c-.36-.742-.887-1.422-1.558-2.02a6.04 6.04 0 0 1 1.024-1.21l.006-.88a7.685 7.685 0 0 0-1.59 1.635 8.826 8.826 0 0 0-.534-.365.372.372 0 0 0 .06-.096c.05-.123.28-.543.36-.654.162-.222.343-.434.542-.636a6.65 6.65 0 0 1 .659-.598c.653.34 1.353.57 2.102.544.42-.013.838-.094 1.245-.19.279-.066.552-.16.83-.22l.102-.02a.094.094 0 0 0 .022-.004c.012 0 .042-.005.045-.005.068-.008.135-.011.205-.011.16 0 .248.01.387.04.546.118.961.511 1.442.811.487.299 1.031.536 1.595.632.294.047.586.068.88.038.31-.032.607-.109.9-.197.254-.078.509-.147.764-.223.202-.059.403-.127.61-.178a5.37 5.37 0 0 1 .332-.068h.004c.01-.002.023-.005.039-.006.025-.003.05-.005.079-.006.06-.005.12-.006.18-.003.028 0 .06.005.087.005h.001c.01.001.017.001.023.005a.938.938 0 0 1 .194.053c.004.001.005.004.009.006.022.012.043.021.066.035l.11.068c.03.02.063.039.092.059.328-.01.655-.029.981-.056-.191-.115-.379-.24-.567-.362-.177-.117-.35-.239-.552-.312z"/><path id="_240136368" class="fil0" d="M100.25 40.389a3.142 3.142 0 0 0-.98-.163l.512-2.017.605.152-.137 2.028zm-1.574-.103c-.237.051-.466.12-.702.177-.197.05-.389.111-.583.17l1.242-2.714.605.153-.562 2.214zm-9.573-6.189l1.353.451-1.822.993.469-1.444zm-1.064 1.454c-.19-.107-.31-.183-.31-.183a7.965 7.965 0 0 0-.844-.63l.03-.053 1.584-.562-.46 1.428zm-1.741-1.247l-.091.033a11.642 11.642 0 0 0-4.47-1.32 12.23 12.23 0 0 0-1.314-.025l.579-1.067c.12 0 .244-.002.367 0 2.002.021 3.91.586 5.37 1.57l-.441.809zm4.978-1.165l-.315.984-1.264-.424 1.579-.56zm.625-.102l.879.248-1.16.632.28-.88zm4.473-1.706l-2.887 1.57-.854-.241 3.74-1.329zm.112 5.82L95.2 39.507l-3.845-2.08 1.286-2.361 3.845 2.083zm-1.17-2.388l.598 1.567-2.414-1.308 1.815-.259zm8.745 6.201c-.2.044-.399.106-.596.163-.137.036-.27.073-.409.096h-.003l-.046.005a1.005 1.005 0 0 1-.104.004c-.073 0-.146-.007-.216-.014.043.005-.068-.007-.084-.013-.045-.007-.09-.014-.134-.025a6.405 6.405 0 0 1-1.174-.369l-.06-.022c-.007-.006-.012-.007-.016-.01-.005-.001-.011-.001-.02-.006l-.14-.06c-.086-.036-.175-.075-.265-.111l.348-5.322a1.85 1.85 0 0 1-.565.06l-.155 2.454-.503-.13.59-2.327a1.758 1.758 0 0 1-.542-.139l-.591 2.33-.504-.128 1.032-2.23a1.742 1.742 0 0 1-.465-.326l-2.612 5.675-.143.292h.005a3.05 3.05 0 0 1-.656.007c-.064-.006-.115-.016-.192-.029a4.005 4.005 0 0 1-.717-.215c-.01-.002-.018-.007-.024-.008l-.022-.01c-.02-.009-.04-.02-.058-.024l-.172-.083a4.603 4.603 0 0 1-.332-.184c-.218-.129-.42-.279-.627-.424-.441-.308-.922-.52-1.465-.542-.522-.023-1.005.172-1.505.29-.176.04-.353.078-.532.108l-.12.018h-.002c-.004 0-.006 0-.01.002-.02.001-.043.005-.066.007a3.697 3.697 0 0 1-.824 0h-.007l-.005-.001c-.03-.005-.06-.008-.088-.014h-.002c.674-.819 1.074-1.746 1.18-2.705.001.001.016-.226.016-.226.007-.09.01-.187.01-.28h-.01v-.228c-.166.011-.338.013-.51 0-.303-.024-.651-.133-.982-.268l7.674-4.174-.65 1.233a.22.22 0 0 0 .09.302l.099.055c.273.148.37.488.222.758a.558.558 0 1 1-.98-.535l-.394-.215a.99.99 0 0 0-.036.877l-2.182.345-.152-.08a.22.22 0 0 0-.301.088l-1.503 2.754a.22.22 0 0 0 .09.301l4.238 2.298c.11.059.244.019.305-.089l1.498-2.754a.224.224 0 0 0-.087-.304l-.345-.185-.607-1.764c.556-.015.991-.48.974-1.034a1.002 1.002 0 0 0-.43-.795l.937-1.683.014-.007-.258-.949-9.866 3.5.014-.028.36-.667c-.113-.055-.182-.092-.182-.092a9.44 9.44 0 0 0-1.81-1.05l.387-.706.346-.633.411-.703-2.443-.155 1.343 1.187-.46.839a11.22 11.22 0 0 0-3.89-.735h-.016a9.882 9.882 0 0 0-.816.02l-.412.756-.008.016v1.73c.485-.028.978-.025 1.468.013 2.21.169 4.335.993 5.76 2.278.057.05.26.19.26.19.528.39 1.298.676 2.088.767-.151 1.258-.454 1.741-1.19 2.526a4.581 4.581 0 0 1-.328-.148 7.218 7.218 0 0 1-.747-.431 10.222 10.222 0 0 0-3.36-1.809 12.52 12.52 0 0 0-2.983-.553c-.322-.02-.645-.03-.968-.027v.578c.27 0 .538.003.809.018.198.011.398.026.598.046.114.01.225.024.337.039l.073.01c-.078-.012.01 0 .032.003a11.605 11.605 0 0 1 2.515.641l.203.08a1.64 1.64 0 0 0 .096.042 8.576 8.576 0 0 1 .485.222 8.806 8.806 0 0 1 1.8 1.157l.01.007c.016.014.031.027.049.037.742.48 1.561.87 2.458.913a4.75 4.75 0 0 0 1.08-.096c.188-.035.375-.077.563-.123.256-.065.508-.153.771-.204.442-.083.91.021 1.311.266.21.127.402.273.605.413.205.143.424.272.65.383.468.231.963.39 1.489.436.449.04.88-.04 1.306-.16.088-.025.177-.05.263-.077.223-.07.448-.127.673-.189l.14-.042.06-.014a4.15 4.15 0 0 1 .307-.072c.036-.009.074-.013.11-.02a.325.325 0 0 1 .036-.005c.034-.002.065-.007.097-.008.017-.002.037-.002.056-.003a2.375 2.375 0 0 1 .46.014c.011 0 .028.005.034.005l.104.018c.153.03.301.072.449.124.014.006.027.012.04.016.094.037.191.075.284.114.049.018.093.038.139.057l.05.02a.95.95 0 0 1 .048.02l.026.011c.17.071.337.145.508.213.367.147.746.26 1.133.333.331.065.643.073.972-.006.162-.038.322-.086.482-.13l.3-.081.109-.024.07-.003c.041-.002.081 0 .121.002.011.001.024.002.037.005a.431.431 0 0 1 .046.006c.095.017.187.047.276.079.25-.066.494-.135.732-.207a1.692 1.692 0 0 0-.923-.44 1.482 1.482 0 0 0-.559.01z"/><path id="_240136176" class="fil0" d="M109.883 26.547c-.005-.018-.007-.036-.013-.05l-.175-.438a.207.207 0 0 0 .06-.202.236.236 0 0 0-.184-.186c-.032-.008-.045-.016-.059-.065-.015-.041-.03-.085-.062-.119-.12-.129-.25-.259-.37-.38a.175.175 0 0 0-.233-.01.179.179 0 0 0-.07.127.204.204 0 0 0 .054.144l.076.077c.08.08.159.163.241.243a.21.21 0 0 1 .024.038.226.226 0 0 0 .001.334.291.291 0 0 0 .168.08c.059.147.114.294.175.435.011.032.041.066.081.07.051.003.102.004.157.01l.16.006-.031-.115z"/><path id="_240136344" class="fil0" d="M108.748 28.005c.09.06.187.118.286.174.01-.043.014-.088.026-.133.08-.285.224-.56.416-.79l.031-.036a.38.38 0 0 1 .074 0l1.191.059.072.003c.008.007.016.023.029.043.166.245.283.534.336.828.031.167.036.326.011.473l-.022.13c.181-.02.37-.055.537-.092l.006-.067a2.148 2.148 0 0 0-.026-.536 2.672 2.672 0 0 0-.417-1.022.564.564 0 0 0-.19-.195c-.112-.07-.232-.074-.31-.078l-1.194-.059a.623.623 0 0 0-.315.047.603.603 0 0 0-.21.174 2.68 2.68 0 0 0-.503.952l.033.027c.047.033.09.069.139.098z"/></g><path fill="none" d="M-120.213-31.721h465.425V91.722h-465.425z"/></g></svg>