<?xml version="1.0" encoding="utf-8"?>
<!-- Generator: Adobe Illustrator 22.1.0, SVG Export Plug-In . SVG Version: 6.00 Build 0)  -->
<svg version="1.1" id="Layer_1" xmlns="http://www.w3.org/2000/svg" xmlns:xlink="http://www.w3.org/1999/xlink" x="0px" y="0px"
	 viewBox="0 0 1311 264.6" style="enable-background:new 0 0 1311 264.6;" xml:space="preserve">
<style type="text/css">
	.st0{fill:url(#SVGID_1_);}
	.st1{opacity:0.7;}
	.st2{fill:url(#SVGID_2_);}
	.st3{fill:url(#SVGID_3_);}
	.st4{fill:#3F3F51;}
	.st5{opacity:0.3;}
	.st6{fill:url(#SVGID_4_);}
</style>
<g>
	
		<linearGradient id="SVGID_1_" gradientUnits="userSpaceOnUse" x1="191.2553" y1="272.374" x2="81.4159" y2="115.2428" gradientTransform="matrix(1 0 0 -1 0 384)">
		<stop  offset="0" style="stop-color:#4DFFA5"/>
		<stop  offset="1" style="stop-color:#00B7FF"/>
	</linearGradient>
	<path class="st0" d="M215,94.8h-79.6c-11.4,0-20.7,4.1-28.9,11.4c-7.2,7.2-11.4,17.6-11.4,28.9v79.6c0,21.7,17.6,40.3,40.3,40.3
		s40.3-17.6,40.3-40.3v-39.3H215c21.7,0,40.3-17.6,40.3-40.3C255.3,112.4,237.7,94.8,215,94.8z"/>
</g>
<g class="st1">
	
		<linearGradient id="SVGID_2_" gradientUnits="userSpaceOnUse" x1="41.1893" y1="191.3495" x2="162.438" y2="330.8997" gradientTransform="matrix(1 0 0 -1 0 384)">
		<stop  offset="0" style="stop-color:#4DD5FF;stop-opacity:0"/>
		<stop  offset="0" style="stop-color:#5ED9FF;stop-opacity:0.9"/>
		<stop  offset="1" style="stop-color:#5252FF"/>
	</linearGradient>
	<path class="st2" d="M51.6,174.4h79.6c11.4,0,20.7-4.1,28.9-11.4c7.2-7.2,11.4-17.6,11.4-28.9V54.5c0-21.7-17.6-40.3-40.3-40.3
		S90.9,32.8,90.9,54.5v39.3H51.6c-22.7,1-40.3,18.6-40.3,41.4C11.3,156.8,28.9,174.4,51.6,174.4z"/>
</g>
<linearGradient id="SVGID_3_" gradientUnits="userSpaceOnUse" x1="41.1893" y1="191.3495" x2="162.438" y2="330.8997" gradientTransform="matrix(1 0 0 -1 0 384)">
	<stop  offset="0" style="stop-color:#4DD5FF;stop-opacity:0"/>
	<stop  offset="0" style="stop-color:#2FA9FF;stop-opacity:0.9"/>
	<stop  offset="1" style="stop-color:#0000FF"/>
</linearGradient>
<path class="st3" d="M51.6,174.4h79.6c11.4,0,20.7-4.1,28.9-11.4c7.2-7.2,11.4-17.6,11.4-28.9V54.5c0-21.7-17.6-40.3-40.3-40.3
	S90.9,32.8,90.9,54.5v39.3H51.6c-22.7,1-40.3,18.6-40.3,41.4C11.3,156.8,28.9,174.4,51.6,174.4z"/>
<g>
	<path class="st4" d="M319.8,206h19.6c6.2,0,10.3-5.2,10.3-10.3v-44.5h56.9v44.5c0,6.2,5.2,10.3,10.3,10.3h19.6
		c6.2,0,10.3-5.2,10.3-10.3v-123c0-6.2-5.2-10.3-10.3-10.3H417c-6.2,0-10.3,5.2-10.3,10.3v42.4h-56.9V72.7c0-6.2-5.2-10.3-10.3-10.3
		h-19.6c-6.2,0-10.3,5.2-10.3,10.3v123C309.5,200.9,313.6,206,319.8,206z"/>
	<path class="st4" d="M539,207.1c46.5,0,63.1-24.8,63.1-45.5c0-33.1-32-40.3-55.8-45.5c-11.4-3.1-26.9-6.2-26.9-11.4
		c0-6.2,12.4-9.3,22.7-9.3c11.4,0,22.7,3.1,32,8.3c2.1,1,5.2,2.1,8.3,1c3.1-1,5.2-3.1,6.2-5.2l6.2-14.5c2.1-5.2,0-10.3-4.1-13.4
		c-12.4-8.3-31-12.4-48.6-12.4c-46.5,0-62,24.8-62,45.5c0,34.1,32,40.3,55.8,45.5c11.4,3.1,26.9,6.2,26.9,10.3
		c0,6.2-12.4,8.3-22.7,8.3c-14.5,0-28.9-5.2-38.3-11.4c-2.1-2.1-5.2-3.1-8.3-2.1c-3.1,1-6.2,3.1-7.2,5.2L479,174
		c-2.1,4.1-1,9.3,2.1,12.4C493.5,199.8,516.2,207.1,539,207.1z"/>
	<path class="st4" d="M663,61.3h-19.6c-6.2,0-10.3,5.2-10.3,10.3v123c0,6.2,5.2,10.3,10.3,10.3H663c6.2,0,10.3-5.2,10.3-10.3v-122
		C673.4,66.5,668.2,61.3,663,61.3z"/>
</g>
<g class="st5">
	
		<linearGradient id="SVGID_4_" gradientUnits="userSpaceOnUse" x1="191.2553" y1="272.374" x2="81.4159" y2="115.2428" gradientTransform="matrix(1 0 0 -1 0 384)">
		<stop  offset="0" style="stop-color:#4DFFA5"/>
		<stop  offset="1" style="stop-color:#00B7FF"/>
	</linearGradient>
	<path class="st6" d="M215,94.8h-79.6c-11.4,0-20.7,4.1-28.9,11.4c-7.2,7.2-11.4,17.6-11.4,28.9v79.6c0,21.7,17.6,40.3,40.3,40.3
		s40.3-17.6,40.3-40.3v-39.3H215c21.7,0,40.3-17.6,40.3-40.3C255.3,112.4,237.7,94.8,215,94.8z"/>
</g>
<g>
	<path class="st4" d="M771.2,117.6c0,1.1,0.9,2,2,2h2c1.1,0,2-0.9,2-2V71.8c0-1.1-0.9-2-2-2h-2c-1.1,0-2,0.9-2,2v19.4h-24.4V71.8
		c0-1.1-0.9-2-2-2h-2c-1.1,0-2,0.9-2,2v45.8c0,1.1,0.9,2,2,2h2c1.1,0,2-0.9,2-2V97.1h24.4V117.6z"/>
	<path class="st4" d="M791.3,84.2h-1.9c-1.1,0-2,0.9-2,2v31.4c0,1.1,0.9,2,2,2h1.9c1.1,0,2-0.9,2-2V86.2
		C793.4,85.1,792.5,84.2,791.3,84.2z"/>
	<path class="st4" d="M790.4,80.2c2.1,0,3.8-1.7,3.8-3.8c0-2.1-1.7-3.8-3.8-3.8s-3.8,1.7-3.8,3.8C786.6,78.6,788.3,80.2,790.4,80.2z
		"/>
	<path class="st4" d="M802.5,116.5c3.3,2.6,7.8,3.8,13.6,3.8c8.3,0,13.2-4,13.2-10.7c0-7.5-7-9.9-13.1-11.1l0,0
		c-8.1-1.6-8.1-3.7-8.1-5c0-3.7,5-4.1,7.2-4.1c4,0,7,1.1,8.9,2.1c0.9,0.5,2,0.2,2.6-0.7l1-1.5c0.3-0.5,0.4-1,0.3-1.6
		c-0.1-0.5-0.5-1-0.9-1.3c-0.8-0.5-1.9-1-3.1-1.4c-2.6-0.9-5.6-1.4-8.7-1.4c-9.6,0-13.1,5.1-13.1,9.8c0,5.8,4,9.1,13,10.8
		c8.2,1.6,8.2,4.2,8.2,5.4c0,3.3-2.5,4.9-7.3,4.9c-4.1,0-7.4-0.9-10.3-2.8c-0.4-0.3-1-0.4-1.5-0.3c-0.5,0.1-1,0.4-1.3,0.9l-1,1.5
		C801.5,114.7,801.7,115.8,802.5,116.5z"/>
	<path class="st4" d="M858.6,115.5c-0.3-1.1-1.4-1.6-2.5-1.3c-0.4,0.1-1.5,0.4-2.8,0.4c-1.9,0-3.1-0.4-3.9-1.1
		c-1.4-1.4-1.4-4.9-1.4-8.9V90h8.3c1.1,0,2-0.9,2-2v-1.7c0-1.1-0.9-2-2-2H848v-7.6c0-1.1-0.9-2-2-2h-1.9c-1.1,0-2,0.9-2,2v7.6H837
		c-1.1,0-2,0.9-2,2V88c0,1.1,0.9,2,2,2h5.1v13.6c0,8.2,0,16.7,11.2,16.7c1.7,0,3.4-0.2,4.6-0.7c1-0.4,1.6-1.5,1.3-2.5L858.6,115.5z"
		/>
	<path class="st4" d="M883.1,83.6c-10.6,0-17.7,7.4-17.7,18.4c0,11,7.1,18.4,17.7,18.4c10.6,0,17.7-7.4,17.7-18.4
		C900.8,91,893.7,83.6,883.1,83.6z M894.8,101.9c0,7.9-4.4,12.6-11.7,12.6c-7.3,0-11.7-4.7-11.7-12.6c0-7.8,4.5-12.6,11.7-12.6
		C890.3,89.3,894.8,94.2,894.8,101.9z"/>
	<path class="st4" d="M930.5,84.9c-1.9-0.9-4.2-1.3-6.7-1.3c-3.6,0-6.7,1-9,2.9v-0.3c0-1.1-0.9-2-2-2H911c-1.1,0-2,0.9-2,2v31.4
		c0,1.1,0.9,2,2,2h1.9c1.1,0,2-0.9,2-2V101c0-10.3,4.8-11.7,9-11.7c1.4,0,2.9,0.3,4.2,0.7c0.9,0.3,1.9,0,2.4-0.8l1-1.5
		c0.3-0.5,0.4-1.1,0.3-1.7C931.5,85.6,931.1,85.1,930.5,84.9z"/>
	<path class="st4" d="M943,84.2h-1.9c-1.1,0-2,0.9-2,2v31.4c0,1.1,0.9,2,2,2h1.9c1.1,0,2-0.9,2-2V86.2C945,85.1,944.1,84.2,943,84.2
		z"/>
	<path class="st4" d="M942.1,80.2c2.1,0,3.8-1.7,3.8-3.8c0-2.1-1.7-3.8-3.8-3.8c-2.1,0-3.8,1.7-3.8,3.8
		C938.3,78.6,940,80.2,942.1,80.2z"/>
	<path class="st4" d="M977.7,117.6c0,1.1,0.9,2,2,2h1.9c1.1,0,2-0.9,2-2V99c0-8-1.7-15.5-13.8-15.5c-4.5,0-8.5,1-11.7,2.8
		c-1,0.5-1.3,1.7-0.8,2.7l0.9,1.6c0.3,0.5,0.7,0.8,1.2,1c0.5,0.2,1.1,0.1,1.5-0.2c2.4-1.3,5.9-2.2,8.9-2.2c5.9,0,7.3,1.3,7.7,7.1
		c-5.2-0.4-14.7-0.5-19.9,4.1c-2.4,2.1-3.6,4.9-3.6,8.2c0,7.1,5.1,11.6,13.4,11.6c4.2,0,7.6-1.3,10.3-3.8V117.6z M977.7,102.1v1.7
		c0,4.1-2.8,10.7-10.3,10.7c-3.4,0-7.3-1-7.3-5.8c0-1.6,0.6-2.9,1.8-3.9c2.9-2.5,8.7-2.9,11.8-2.9C975,101.9,976.4,102,977.7,102.1z
		"/>
	<path class="st4" d="M1045,67.1h-1.9c-1.1,0-2,0.9-2,2v18.7c-2.8-2.8-6.6-4.3-10.9-4.3c-9.8,0-16.9,7.7-16.9,18.4
		c0,10.6,7.1,18.4,16.9,18.4c4.3,0,8-1.5,10.9-4.3v1.7c0,1.1,0.9,2,2,2h1.9c1.1,0,2-0.9,2-2V69.2C1047,68,1046.1,67.1,1045,67.1z
		 M1041.1,101.9c0,6.3-3.4,12.6-10.9,12.6c-8,0-10.9-6.8-10.9-12.6c0-5.8,2.8-12.6,10.9-12.6C1037.7,89.3,1041.1,95.7,1041.1,101.9z
		"/>
	<path class="st4" d="M1071.5,83.6c-9.6,0-16.4,7.6-16.4,18.4c0,10.8,6.7,18.4,16.4,18.4c7.3,0,11.6-2.8,13.5-4.5
		c0.4-0.4,0.7-0.9,0.7-1.5c0-0.6-0.2-1.1-0.6-1.5l-1.4-1.3c-0.7-0.7-1.9-0.8-2.7-0.1c-1.4,1.2-4.6,3.1-9.5,3.1
		c-5.5,0-9.2-3.5-10.1-9.7h24.5c1.1,0,2-0.9,2-2C1087.9,88.6,1079.4,83.6,1071.5,83.6z M1081.6,99h-20.2c1-6.1,4.8-9.7,10.1-9.7
		C1078.6,89.3,1080.9,94.6,1081.6,99z"/>
	<path class="st4" d="M1133.8,90.8L1133.8,90.8L1133.8,90.8c-11.3-2.3-11.3-6.4-11.3-8c0-6.8,6.3-7.8,10.1-7.8c4.7,0,8.8,1,11.7,2.8
		c0.9,0.6,2.1,0.3,2.7-0.5l1.2-1.6c0.3-0.4,0.5-1,0.4-1.5c-0.1-0.5-0.4-1-0.8-1.3c-3.7-2.5-8.7-3.8-15.1-3.8
		c-15,0-16.2,10.5-16.2,13.7c0,7.2,5.3,11.8,16.4,14c10.9,2.3,11.8,5.4,11.8,9c0,5.5-3.8,8.6-10.6,8.6c-5.7,0-10.1-1.2-13.8-3.8
		c-0.9-0.6-2.1-0.4-2.8,0.5l-1.1,1.6c-0.7,0.9-0.5,2.2,0.4,2.8c4.4,3.3,10.1,4.9,17.4,4.9c10.3,0,16.7-5.5,16.7-14.5
		C1150.6,97.6,1145.7,93.3,1133.8,90.8z"/>
	<path class="st4" d="M1172.6,83.6c-4.5,0-8.5,1-11.7,2.8c-1,0.5-1.3,1.7-0.8,2.7l0.9,1.6c0.3,0.5,0.7,0.8,1.2,1
		c0.5,0.2,1.1,0.1,1.5-0.2c2.4-1.3,5.9-2.2,8.9-2.2c5.9,0,7.3,1.3,7.7,7.1c-5.2-0.4-14.7-0.5-19.9,4.1c-2.4,2.1-3.6,4.9-3.6,8.2
		c0,7.1,5.1,11.6,13.4,11.6c4.2,0,7.6-1.3,10.3-3.8v1.1c0,1.1,0.9,2,2,2h1.9c1.1,0,2-0.9,2-2V99C1186.4,91,1184.7,83.6,1172.6,83.6z
		 M1180.5,102.1v1.7c0,4.1-2.8,10.7-10.3,10.7c-3.4,0-7.3-1-7.3-5.8c0-1.6,0.6-2.9,1.8-3.9c2.9-2.5,8.7-2.9,11.8-2.9
		C1177.8,101.9,1179.2,102,1180.5,102.1z"/>
	<path class="st4" d="M1203.1,113.9h-0.6c-0.5,0-0.7,0-0.7-1.9V69.2c0-1.1-0.9-2-2-2h-1.9c-1.1,0-2,0.9-2,2V112c0,1,0,2.7,0.8,4.3
		c0.7,1.5,2.3,3.3,5.8,3.3h0.6c1.1,0,2-0.9,2-2v-1.7C1205.1,114.8,1204.2,113.9,1203.1,113.9z"/>
	<path class="st4" d="M1241.1,84.2h-1.9c-1.1,0-2,0.9-2,2v16.6c0,10.5-5.1,11.7-9,11.7c-4.2,0-9-1.3-9-11.7V86.2c0-1.1-0.9-2-2-2
		h-1.9c-1.1,0-2,0.9-2,2v16.6c0,11.2,5.3,17.4,14.9,17.4c3.6,0,6.7-1,9-3v0.3c0,1.1,0.9,2,2,2h1.9c1.1,0,2-0.9,2-2V86.2
		C1243.1,85.1,1242.2,84.2,1241.1,84.2z"/>
	<path class="st4" d="M1282.9,67.1h-1.9c-1.1,0-2,0.9-2,2v18.7c-2.8-2.8-6.6-4.3-10.9-4.3c-9.8,0-16.9,7.7-16.9,18.4
		c0,10.6,7.1,18.4,16.9,18.4c4.3,0,8-1.5,10.9-4.3v1.7c0,1.1,0.9,2,2,2h1.9c1.1,0,2-0.9,2-2V69.2C1284.9,68,1284,67.1,1282.9,67.1z
		 M1268.1,114.5c-8,0-10.9-6.8-10.9-12.6c0-5.8,2.8-12.6,10.9-12.6c7.5,0,10.9,6.3,10.9,12.6C1279,108.2,1275.6,114.5,1268.1,114.5z
		"/>
	<path class="st4" d="M744.7,146h-2c-1.1,0-2,0.9-2,2v45.8c0,1.1,0.9,2,2,2h2c1.1,0,2-0.9,2-2V148C746.7,146.9,745.8,146,744.7,146z
		"/>
	<path class="st4" d="M771.1,159.8c-3.6,0-6.7,1-9,2.9v-0.3c0-1.1-0.9-2-2-2h-1.9c-1.1,0-2,0.9-2,2v31.4c0,1.1,0.9,2,2,2h1.9
		c1.1,0,2-0.9,2-2v-16.6c0-10.3,4.8-11.7,9-11.7c3.9,0,9,1.2,9,11.7v16.6c0,1.1,0.9,2,2,2h1.9c1.1,0,2-0.9,2-2v-16.6
		C785.9,166,780.6,159.8,771.1,159.8z"/>
	<path class="st4" d="M817.1,191.7c-0.3-1.1-1.4-1.6-2.5-1.3c-0.4,0.1-1.5,0.4-2.8,0.4c-1.9,0-3.1-0.4-3.9-1.1
		c-1.4-1.4-1.4-4.9-1.4-8.9v-14.5h8.3c1.1,0,2-0.9,2-2v-1.7c0-1.1-0.9-2-2-2h-8.3v-7.6c0-1.1-0.9-2-2-2h-1.9c-1.1,0-2,0.9-2,2v7.6
		h-5.1c-1.1,0-2,0.9-2,2v1.7c0,1.1,0.9,2,2,2h5.1v13.6c0,8.2,0,16.7,11.2,16.7c1.7,0,3.4-0.2,4.6-0.7c1-0.4,1.6-1.5,1.3-2.5
		L817.1,191.7z"/>
	<path class="st4" d="M840.3,159.8c-9.6,0-16.4,7.6-16.4,18.4c0,10.8,6.7,18.4,16.4,18.4c7.3,0,11.6-2.8,13.5-4.5
		c0.4-0.4,0.7-0.9,0.7-1.5c0-0.6-0.2-1.1-0.6-1.5l-1.4-1.3c-0.7-0.7-1.9-0.8-2.7-0.1c-1.4,1.2-4.6,3.1-9.5,3.1
		c-5.5,0-9.2-3.5-10.1-9.7h24.5c1.1,0,2-0.9,2-2C856.7,164.9,848.2,159.8,840.3,159.8z M850.4,175.3h-20.2c1-6.1,4.8-9.7,10.1-9.7
		C847.8,165.6,849.8,171.6,850.4,175.3z"/>
	<path class="st4" d="M895.2,160.5h-1.9c-1.1,0-2,0.9-2,2v1.7c-2.8-2.8-6.6-4.3-10.9-4.3c-9.8,0-16.9,7.7-16.9,18.4
		c0,10.6,7.1,18.4,16.9,18.4c4.3,0,8.1-1.5,10.9-4.3v1.7c0,8.9-3.6,13.3-10.9,13.3c-3.5,0-6.8-1-9.5-2.8c-0.9-0.6-2.1-0.4-2.8,0.5
		l-1.1,1.5c-0.6,0.9-0.4,2.2,0.4,2.8c3.2,2.4,7.9,3.7,12.9,3.7c6.3,0,16.8-2.5,16.8-19v-31.4C897.2,161.4,896.3,160.5,895.2,160.5z
		 M891.3,178.2c0,6.3-3.4,12.6-10.9,12.6c-8,0-10.9-6.8-10.9-12.6c0-5.8,2.8-12.6,10.9-12.6C888,165.6,891.3,171.9,891.3,178.2z"/>
	<path class="st4" d="M928.2,161.1c-1.9-0.9-4.2-1.3-6.7-1.3c-3.6,0-6.7,1-9,2.9v-0.3c0-1.1-0.9-2-2-2h-1.9c-1.1,0-2,0.9-2,2v31.4
		c0,1.1,0.9,2,2,2h1.9c1.1,0,2-0.9,2-2v-16.6c0-10.3,4.8-11.7,9-11.7c1.4,0,2.9,0.3,4.2,0.7c0.9,0.3,1.9,0,2.4-0.8l1-1.5
		c0.3-0.5,0.4-1.1,0.3-1.7C929.2,161.8,928.8,161.4,928.2,161.1z"/>
	<path class="st4" d="M949.5,159.8c-4.5,0-8.5,1-11.7,2.8c-1,0.5-1.3,1.7-0.8,2.7l0.9,1.6c0.3,0.5,0.7,0.8,1.2,1
		c0.5,0.2,1.1,0.1,1.5-0.2c2.4-1.3,5.9-2.2,8.9-2.2c5.9,0,7.3,1.3,7.7,7.1c-5.2-0.5-14.6-0.5-19.9,4.1c-2.4,2.1-3.6,4.9-3.6,8.2
		c0,7.1,5.1,11.6,13.4,11.6c4.2,0,7.6-1.3,10.3-3.8v1.1c0,1.1,0.9,2,2,2h1.9c1.1,0,2-0.9,2-2v-18.6
		C963.3,167.2,961.6,159.8,949.5,159.8z M957.4,178.4v1.7c0,4.1-2.8,10.7-10.3,10.7c-3.4,0-7.3-1-7.3-5.8c0-1.6,0.6-2.9,1.7-3.9
		c2.9-2.5,8.7-2.9,11.8-2.9C954.7,178.2,956.1,178.2,957.4,178.4z"/>
	<path class="st4" d="M1003.1,143.4h-1.9c-1.1,0-2,0.9-2,2v18.7c-2.8-2.8-6.6-4.3-10.9-4.3c-9.8,0-16.9,7.7-16.9,18.4
		c0,10.6,7.1,18.4,16.9,18.4c4.3,0,8.1-1.5,10.9-4.3v1.7c0,1.1,0.9,2,2,2h1.9c1.1,0,2-0.9,2-2v-48.5
		C1005.1,144.3,1004.2,143.4,1003.1,143.4z M999.2,178.2c0,6.3-3.4,12.6-10.9,12.6c-8,0-10.9-6.8-10.9-12.6
		c0-5.8,2.8-12.6,10.9-12.6C995.8,165.6,999.2,171.9,999.2,178.2z"/>
	<path class="st4" d="M1029,159.8c-4.5,0-8.5,1-11.7,2.8c-1,0.5-1.3,1.7-0.8,2.7l0.9,1.6c0.3,0.5,0.7,0.8,1.2,1
		c0.5,0.2,1.1,0.1,1.5-0.2c2.4-1.3,5.9-2.2,8.9-2.2c5.9,0,7.3,1.3,7.7,7.1c-5.2-0.5-14.6-0.5-19.9,4.1c-2.4,2.1-3.6,4.9-3.6,8.2
		c0,7.1,5.1,11.6,13.4,11.6c4.2,0,7.6-1.3,10.3-3.8v1.1c0,1.1,0.9,2,2,2h1.9c1.1,0,2-0.9,2-2v-18.6
		C1042.8,167.2,1041.1,159.8,1029,159.8z M1036.9,178.4v1.7c0,4.1-2.8,10.7-10.3,10.7c-3.4,0-7.3-1-7.3-5.8c0-1.6,0.6-2.9,1.8-3.9
		c2.9-2.5,8.7-2.9,11.8-2.9C1034.2,178.2,1035.6,178.2,1036.9,178.4z"/>
</g>
</svg>
