<?xml version="1.0" encoding="UTF-8" standalone="no"?>
<!-- Generator: Adobe Illustrator 22.1.0, SVG Export Plug-In . SVG Version: 6.00 Build 0)  -->

<svg
   version="1.1"
   id="Layer_1"
   x="0px"
   y="0px"
   viewBox="0 0 1311 264.6"
   style="enable-background:new 0 0 1311 264.6;"
   xml:space="preserve"
   sodipodi:docname="app_logo.svg"
   inkscape:version="1.1.1 (c3084ef, 2021-09-22)"
   xmlns:inkscape="http://www.inkscape.org/namespaces/inkscape"
   xmlns:sodipodi="http://sodipodi.sourceforge.net/DTD/sodipodi-0.dtd"
   xmlns="http://www.w3.org/2000/svg"
   xmlns:svg="http://www.w3.org/2000/svg"><defs
   id="defs488"><clipPath
     id="clip0_2_9"><rect
       width="140.166"
       height="140.92"
       fill="#ffffff"
       transform="translate(0,61.0391)"
       id="rect114"
       x="0"
       y="0" /></clipPath><linearGradient
     id="paint0_linear_2_9"
     x1="150.07001"
     y1="213.379"
     x2="27.034901"
     y2="88.777199"
     gradientUnits="userSpaceOnUse"><stop
       stop-color="#1DD1DA"
       id="stop94" /><stop
       offset="1"
       stop-color="#4AFEA6"
       id="stop96" /></linearGradient><linearGradient
     id="paint1_linear_2_9"
     x1="94.955101"
     y1="121.756"
     x2="47.655201"
     y2="189.06"
     gradientUnits="userSpaceOnUse"><stop
       stop-color="white"
       stop-opacity="0.9"
       id="stop99" /><stop
       offset="1"
       stop-color="white"
       stop-opacity="0.3"
       id="stop101" /></linearGradient><linearGradient
     id="paint2_linear_2_9"
     x1="30.5826"
     y1="156.493"
     x2="82.781898"
     y2="96.736504"
     gradientUnits="userSpaceOnUse"><stop
       stop-color="white"
       stop-opacity="0.6"
       id="stop104" /><stop
       offset="1"
       stop-color="white"
       id="stop106" /></linearGradient><linearGradient
     id="paint3_linear_2_9"
     x1="766.54999"
     y1="166.41901"
     x2="686.32599"
     y2="62.380798"
     gradientUnits="userSpaceOnUse"
     gradientTransform="translate(79.114772,1.9376383)"><stop
       stop-color="#1DD1DA"
       id="stop109" /><stop
       offset="1"
       stop-color="#4AFEA6"
       id="stop111" /></linearGradient></defs><sodipodi:namedview
   id="namedview486"
   pagecolor="#ffffff"
   bordercolor="#666666"
   borderopacity="1.0"
   inkscape:pageshadow="2"
   inkscape:pageopacity="0.0"
   inkscape:pagecheckerboard="0"
   showgrid="false"
   inkscape:zoom="0.50960308"
   inkscape:cx="683.86557"
   inkscape:cy="434.652"
   inkscape:window-width="1440"
   inkscape:window-height="789"
   inkscape:window-x="0"
   inkscape:window-y="25"
   inkscape:window-maximized="1"
   inkscape:current-layer="Layer_1" />
<style
   type="text/css"
   id="style383">
	.st0{fill:url(#SVGID_1_);}
	.st1{opacity:0.7;}
	.st2{fill:url(#SVGID_2_);}
	.st3{fill:url(#SVGID_3_);}
	.st4{fill:#3F3F51;}
	.st5{opacity:0.3;}
	.st6{fill:url(#SVGID_4_);}
</style>


<linearGradient
   id="SVGID_3_"
   gradientUnits="userSpaceOnUse"
   x1="41.1893"
   y1="191.3495"
   x2="162.438"
   y2="330.8997"
   gradientTransform="matrix(1 0 0 -1 0 384)">
	<stop
   offset="0"
   style="stop-color:#4DD5FF;stop-opacity:0"
   id="stop405" />
	<stop
   offset="0"
   style="stop-color:#2FA9FF;stop-opacity:0.9"
   id="stop407" />
	<stop
   offset="1"
   style="stop-color:#0000FF"
   id="stop409" />
</linearGradient>




<path
   d="m 311.00977,172.27564 c -12.157,0 -21.971,-2.398 -29.444,-7.193 -3.569,-2.119 -5.353,-5.131 -5.353,-9.034 0,-2.231 0.613,-4.015 1.84,-5.354 1.227,-1.45 2.732,-2.175 4.517,-2.175 1.896,0 4.517,0.893 7.863,2.677 3.569,1.673 6.803,2.956 9.703,3.848 3.011,0.892 6.803,1.338 11.376,1.338 4.684,0 8.309,-0.78 10.874,-2.342 2.677,-1.561 4.015,-3.736 4.015,-6.524 0,-1.896 -0.557,-3.402 -1.673,-4.517 -1.004,-1.116 -2.9,-2.119 -5.688,-3.012 -2.677,-1.003 -6.803,-2.119 -12.38,-3.345 -9.926,-2.008 -17.064,-4.852 -21.413,-8.533 -4.239,-3.68 -6.358,-8.755 -6.358,-15.223 0,-4.908 1.45,-9.313 4.35,-13.216602 2.9,-4.0151 6.859,-7.0822 11.878,-9.2013 5.13,-2.2306 10.93,-3.3459 17.399,-3.3459 4.684,0 9.201,0.6135 13.551,1.8403 4.349,1.1153 8.253,2.7882 11.71,5.0188 3.569,2.2306 5.354,5.1862 5.354,8.866702 0,2.231 -0.614,4.127 -1.841,5.688 -1.226,1.45 -2.732,2.175 -4.517,2.175 -1.226,0 -2.453,-0.223 -3.68,-0.669 -1.115,-0.558 -2.565,-1.339 -4.35,-2.342 -3.234,-1.673 -6.022,-2.9 -8.364,-3.681 -2.343,-0.892 -5.242,-1.338 -8.7,-1.338 -4.126,0 -7.417,0.836 -9.87,2.509 -2.342,1.673 -3.513,3.959 -3.513,6.859 0,2.788 1.226,4.908 3.68,6.357 2.454,1.45 7.194,2.9 14.22,4.35 7.473,1.561 13.328,3.346 17.566,5.353 4.238,2.008 7.25,4.517 9.034,7.529 1.896,3.011 2.844,6.859 2.844,11.543 0,7.584 -3.179,13.663 -9.536,18.235 -6.245,4.573 -14.61,6.859 -25.094,6.859 z m 88.892,0 c -8.364,0 -15.725,-1.728 -22.082,-5.186 -6.246,-3.457 -11.098,-8.42 -14.555,-14.889 -3.458,-6.469 -5.186,-13.997 -5.186,-22.585 0,-8.588 1.728,-16.06 5.186,-22.417 3.457,-6.4691 8.309,-11.432202 14.555,-14.889602 6.357,-3.4574 13.718,-5.1862 22.082,-5.1862 8.365,0 15.67,1.7288 21.916,5.1862 6.357,3.4574 11.209,8.420502 14.555,14.889602 3.457,6.357 5.186,13.829 5.186,22.417 0,8.588 -1.729,16.116 -5.186,22.585 -3.346,6.469 -8.198,11.432 -14.555,14.889 -6.246,3.458 -13.551,5.186 -21.916,5.186 z m -0.167,-16.227 c 6.803,0 11.99,-2.231 15.559,-6.692 3.569,-4.461 5.353,-11.042 5.353,-19.741 0,-8.588 -1.784,-15.112 -5.353,-19.573 -3.569,-4.573 -8.7,-6.859 -15.392,-6.859 -6.691,0 -11.877,2.286 -15.558,6.859 -3.569,4.461 -5.353,10.985 -5.353,19.573 0,8.699 1.784,15.28 5.353,19.741 3.569,4.461 8.699,6.692 15.391,6.692 z m 156.286,-68.925802 c 8.923,0 15.726,2.6768 20.41,8.0302 4.796,5.241902 7.194,13.773602 7.194,25.596602 v 41.154 c 0,3.234 -1.004,5.744 -3.011,7.528 -1.896,1.673 -4.406,2.51 -7.529,2.51 -3.011,0 -5.52,-0.837 -7.528,-2.51 -1.896,-1.784 -2.844,-4.294 -2.844,-7.528 v -41.154 c 0,-6.135 -1.115,-10.484 -3.346,-13.049 -2.119,-2.677 -5.409,-4.016 -9.87,-4.016 -5.465,0 -9.815,1.896 -13.049,5.688 -3.235,3.681 -4.852,8.756 -4.852,15.224 v 37.307 c 0,3.234 -1.004,5.744 -3.011,7.528 -1.896,1.673 -4.35,2.51 -7.361,2.51 -3.011,0 -5.521,-0.837 -7.528,-2.51 -2.008,-1.784 -3.012,-4.294 -3.012,-7.528 v -41.154 c 0,-6.135 -1.115,-10.484 -3.346,-13.049 -2.119,-2.677 -5.409,-4.016 -9.87,-4.016 -5.465,0 -9.815,1.896 -13.049,5.688 -3.123,3.681 -4.684,8.756 -4.684,15.224 v 37.307 c 0,3.234 -1.004,5.744 -3.012,7.528 -2.007,1.673 -4.516,2.51 -7.528,2.51 -3.011,0 -5.521,-0.837 -7.528,-2.51 -1.896,-1.784 -2.844,-4.294 -2.844,-7.528 V 97.160538 c 0,-3.1228 1.004,-5.5207 3.011,-7.1936 2.008,-1.673 4.517,-2.5095 7.529,-2.5095 2.899,0 5.241,0.8365 7.026,2.5095 1.896,1.5614 2.844,3.8477 2.844,6.859 v 4.015102 c 2.565,-4.461202 5.967,-7.862802 10.205,-10.205002 4.35,-2.3421 9.313,-3.5132 14.889,-3.5132 12.268,0 20.466,5.1304 24.593,15.390802 2.453,-4.683902 6.078,-8.420102 10.874,-11.208402 4.795,-2.7882 10.205,-4.1824 16.227,-4.1824 z m 84.325,0 c 11.376,0 19.796,2.8441 25.261,8.5321 5.57698,5.576502 8.36498,14.108702 8.36498,25.595702 v 40.82 c 0,3.012 -0.892,5.41 -2.677,7.194 -1.784,1.673 -4.23798,2.509 -7.36098,2.509 -2.899,0 -5.297,-0.892 -7.193,-2.676 -1.785,-1.785 -2.677,-4.127 -2.677,-7.027 v -3.68 c -1.896,4.35 -4.907,7.751 -9.034,10.205 -4.015,2.454 -8.699,3.68 -14.053,3.68 -5.465,0 -10.428,-1.115 -14.889,-3.346 -4.461,-2.23 -7.974,-5.297 -10.54,-9.201 -2.565,-3.903 -3.847,-8.253 -3.847,-13.049 0,-6.022 1.505,-10.762 4.517,-14.22 3.122,-3.457 8.141,-5.967 15.056,-7.528 6.915,-1.562 16.451,-2.342 28.608,-2.342 h 4.182 v -3.848 c 0,-5.465 -1.171,-9.424 -3.513,-11.878 -2.342,-2.565 -6.134,-3.848 -11.376,-3.848 -3.235,0 -6.525,0.502 -9.871,1.506 -3.346,0.892 -7.305,2.231 -11.878,4.015 -2.899,1.45 -5.018,2.175 -6.357,2.175 -2.007,0 -3.68,-0.725 -5.019,-2.175 -1.227,-1.45 -1.84,-3.346 -1.84,-5.688 0,-1.896 0.446,-3.513202 1.338,-4.851602 1.004,-1.4499 2.621,-2.7882 4.852,-4.0151 3.904,-2.119 8.532,-3.792 13.885,-5.0188 5.465,-1.2268 10.819,-1.8403 16.061,-1.8403 z m -5.186,70.096802 c 5.576,0 10.093,-1.84 13.551,-5.521 3.568,-3.792 5.353,-8.643 5.353,-14.555 v -3.513 h -3.011 c -7.473,0 -13.272,0.335 -17.399,1.004 -4.127,0.669 -7.082,1.84 -8.867,3.513 -1.784,1.673 -2.676,3.96 -2.676,6.859 0,3.569 1.226,6.525 3.68,8.867 2.565,2.231 5.688,3.346 9.369,3.346 z"
   fill="#0b1b41"
   id="path82" /><g
   clip-path="url(#clip0_2_9)"
   id="g90"
   transform="translate(79.114772,1.9376383)"><path
     d="M 107.905,201.96 H 32.2599 C 14.4611,201.96 -4.88281e-4,187.42 -4.88281e-4,169.526 V 93.4739 C -4.88281e-4,75.5794 14.4611,61.04 32.2599,61.04 h 75.6451 c 17.799,0 32.261,14.5394 32.261,32.4339 v 76.0521 c 0,17.95 -14.406,32.434 -32.261,32.434 z"
     fill="url(#paint0_linear_2_9)"
     id="path84"
     style="fill:url(#paint0_linear_2_9)" /><path
     d="M 105.069,114.445 H 71.0842 c -4.8947,0 -8.8438,1.789 -12.348,4.921 -3.1148,3.131 -4.8946,7.493 -4.8946,12.414 v 34.167 c 0,9.283 7.4532,17.392 17.2982,17.392 9.845,0 17.2983,-7.494 17.2983,-17.392 v -16.999 h 16.9089 c 9.233,0 17.298,-7.494 17.298,-17.392 -0.333,-9.618 -7.954,-17.111 -17.576,-17.111 z"
     fill="url(#paint1_linear_2_9)"
     id="path86"
     style="fill:url(#paint1_linear_2_9)" /><path
     d="m 35.1529,148.78 h 33.9847 c 4.8947,0 8.8438,-1.79 12.348,-4.921 3.1148,-3.132 4.8947,-7.494 4.8947,-12.415 V 97.0533 c 0,-9.2828 -7.4533,-17.3913 -17.2983,-17.3913 -9.845,0 -17.2426,8.1085 -17.2426,17.3913 V 114.053 H 34.9305 c -9.845,0.392 -17.2983,8.109 -17.2983,17.783 0.2225,9.227 7.6758,16.944 17.5207,16.944 z"
     fill="url(#paint2_linear_2_9)"
     id="path88"
     style="fill:url(#paint2_linear_2_9)" /></g><path
   d="m 726.54475,137.28864 c -1.773,0 -3.127,-0.49 -4.06,-1.47 -0.933,-0.98 -1.4,-2.357 -1.4,-4.13 V 92.278338 c 0,-1.7733 0.467,-3.15 1.4,-4.13 0.933,-0.98 2.287,-1.47 4.06,-1.47 1.727,0 3.057,0.49 3.99,1.47 0.933,0.98 1.4,2.3567 1.4,4.13 v 14.840302 h 22.96 V 92.278338 c 0,-1.7733 0.467,-3.15 1.4,-4.13 0.933,-0.98 2.263,-1.47 3.99,-1.47 1.773,0 3.127,0.49 4.06,1.47 0.933,0.98 1.4,2.3567 1.4,4.13 v 39.410302 c 0,1.773 -0.467,3.15 -1.4,4.13 -0.933,0.98 -2.287,1.47 -4.06,1.47 -1.727,0 -3.057,-0.49 -3.99,-1.47 -0.933,-0.98 -1.4,-2.357 -1.4,-4.13 v -15.54 h -22.96 v 15.54 c 0,1.773 -0.467,3.15 -1.4,4.13 -0.887,0.98 -2.217,1.47 -3.99,1.47 z m 66.799,0.14 c -1.96,0 -3.967,-0.164 -6.02,-0.49 -2.007,-0.28 -3.943,-0.7 -5.81,-1.26 -1.82,-0.56 -3.453,-1.26 -4.9,-2.1 -1.027,-0.56 -1.75,-1.284 -2.17,-2.17 -0.42,-0.934 -0.583,-1.867 -0.49,-2.8 0.14,-0.934 0.49,-1.75 1.05,-2.45 0.607,-0.747 1.353,-1.214 2.24,-1.4 0.933,-0.234 1.96,-0.07 3.08,0.49 1.913,1.073 3.99,1.866 6.23,2.38 2.287,0.513 4.55,0.77 6.79,0.77 3.407,0 5.833,-0.514 7.28,-1.54 1.447,-1.074 2.17,-2.404 2.17,-3.99 0,-1.354 -0.513,-2.427 -1.54,-3.22 -1.027,-0.794 -2.823,-1.47 -5.39,-2.03 l -7.91,-1.68 c -4.48,-0.934 -7.817,-2.52 -10.01,-4.76 -2.147,-2.287 -3.22,-5.274 -3.22,-8.96 0,-2.333602 0.49,-4.457002 1.47,-6.370302 0.98,-1.9133 2.357,-3.57 4.13,-4.97 1.773,-1.4 3.873,-2.4733 6.3,-3.22 2.473,-0.7467 5.18,-1.12 8.12,-1.12 2.613,0 5.18,0.3267 7.7,0.98 2.52,0.6067 4.737,1.5167 6.65,2.73 0.933,0.56 1.563,1.2833 1.89,2.17 0.373,0.84 0.49,1.7033 0.35,2.59 -0.093,0.84 -0.443,1.5867 -1.05,2.24 -0.56,0.6533 -1.283,1.0733 -2.17,1.26 -0.887,0.1867 -1.96,-0.0233 -3.22,-0.63 -1.54,-0.7933 -3.173,-1.3767 -4.9,-1.75 -1.727,-0.3733 -3.5,-0.56 -5.32,-0.56 -1.96,0 -3.64,0.2567 -5.04,0.77 -1.353,0.5133 -2.403,1.2367 -3.15,2.17 -0.7,0.9333 -1.05,2.006702 -1.05,3.220002 0,1.3533 0.49,2.4503 1.47,3.2903 0.98,0.84 2.683,1.516 5.11,2.03 l 7.91,1.68 c 4.573,0.98 7.98,2.566 10.22,4.76 2.24,2.146 3.36,4.993 3.36,8.54 0,2.333 -0.467,4.456 -1.4,6.37 -0.933,1.866 -2.287,3.476 -4.06,4.83 -1.773,1.353 -3.897,2.403 -6.37,3.15 -2.473,0.7 -5.25,1.05 -8.33,1.05 z m 32.664,-0.14 c -1.773,0 -3.127,-0.49 -4.06,-1.47 -0.933,-0.98 -1.4,-2.357 -1.4,-4.13 V 92.278338 c 0,-1.7733 0.467,-3.15 1.4,-4.13 0.933,-0.98 2.287,-1.47 4.06,-1.47 1.727,0 3.057,0.49 3.99,1.47 0.933,0.98 1.4,2.3567 1.4,4.13 v 39.410302 c 0,1.773 -0.467,3.15 -1.4,4.13 -0.887,0.98 -2.217,1.47 -3.99,1.47 z"
   fill="url(#paint3_linear_2_9)"
   id="path92"
   style="fill:url(#paint3_linear_2_9)" /></svg>
