<svg width="32" height="32" viewBox="0 0 32 32" fill="none" xmlns="http://www.w3.org/2000/svg">
<path d="M27.9945 8.12182V6.67215C27.9945 6.66134 27.9945 6.65052 27.9945 6.6397V6.50988C27.9945 6.4071 27.9835 6.30433 27.967 6.19614C27.7308 4.8222 26.7143 4 25.2528 4C22.2253 4 19.1978 4 16.1703 4H6.74176C5.0989 4 4 5.08725 4 6.70461C4 12.0056 4 17.3013 4 22.6023V26.3238C4 26.5997 4.16484 26.8431 4.42308 26.9459C4.50549 26.9784 4.59341 27 4.68681 27C4.86813 27 5.04396 26.9297 5.17033 26.7999L5.57143 26.405C6.65385 25.3448 7.76923 24.2467 8.86264 23.1595C8.98901 23.035 9.1044 22.9864 9.28572 22.9864C14.3297 22.9918 19.3352 22.9918 25.3022 22.9918C25.5 22.9918 25.7198 22.9864 25.9286 22.9377C27.2033 22.6618 27.9945 21.6665 27.9945 20.3304C28 16.2248 28 12.103 27.9945 8.12182ZM25.1484 6.80738V20.2168H22.1484C17.6044 20.2168 12.9066 20.2168 8.28572 20.2114C7.96703 20.2114 7.73077 20.3088 7.53297 20.5252C7.31868 20.7524 7.0989 20.9741 6.86264 21.2067V6.80738H25.1484Z" fill="#2687C5"/>
<path d="M10.5765 14.8837H12.0105C12.3896 14.8837 12.6973 14.5808 12.6973 14.2075V12.8012C12.6973 12.4279 12.3896 12.125 12.0105 12.125H10.5765C10.1973 12.125 9.88965 12.4279 9.88965 12.8012V14.2075C9.88965 14.5808 10.1973 14.8837 10.5765 14.8837Z" fill="#2687C5"/>
<path d="M19.9886 14.8832H21.4116C21.7908 14.8832 22.0985 14.5803 22.0985 14.2071V12.7953C22.0985 12.4221 21.7908 12.1191 21.4116 12.1191H19.9886C19.6094 12.1191 19.3018 12.4221 19.3018 12.7953V14.2071C19.3018 14.5803 19.6094 14.8832 19.9886 14.8832Z" fill="#2687C5"/>
<path d="M15.302 14.8891H16.7086C17.0878 14.8891 17.3954 14.5862 17.3954 14.213V12.8012C17.3954 12.4279 17.0878 12.125 16.7086 12.125H15.302C14.9229 12.125 14.6152 12.4279 14.6152 12.8012V14.213C14.6152 14.5808 14.9229 14.8891 15.302 14.8891Z" fill="#2687C5"/>
</svg>
