<?xml version="1.0" encoding="UTF-8" standalone="no"?>
<!-- Created with Inkscape (http://www.inkscape.org/) -->

<svg
   xmlns:dc="http://purl.org/dc/elements/1.1/"
   xmlns:cc="http://creativecommons.org/ns#"
   xmlns:rdf="http://www.w3.org/1999/02/22-rdf-syntax-ns#"
   xmlns:svg="http://www.w3.org/2000/svg"
   xmlns="http://www.w3.org/2000/svg"
   xmlns:sodipodi="http://sodipodi.sourceforge.net/DTD/sodipodi-0.dtd"
   xmlns:inkscape="http://www.inkscape.org/namespaces/inkscape"
   width="17.324875mm"
   height="16.499916mm"
   viewBox="0 0 17.324875 16.499917"
   version="1.1"
   id="svg8"
   inkscape:version="0.92.4 (5da689c313, 2019-01-14)"
   sodipodi:docname="appointment_call.svg">
  <defs
     id="defs2" />
  <sodipodi:namedview
     id="base"
     pagecolor="#ffffff"
     bordercolor="#666666"
     borderopacity="1.0"
     inkscape:pageopacity="0.0"
     inkscape:pageshadow="2"
     inkscape:zoom="3.959798"
     inkscape:cx="35.386224"
     inkscape:cy="47.063349"
     inkscape:document-units="mm"
     inkscape:current-layer="layer1"
     showgrid="false"
     inkscape:window-width="1920"
     inkscape:window-height="1017"
     inkscape:window-x="-8"
     inkscape:window-y="-8"
     inkscape:window-maximized="1"
     fit-margin-top="0"
     fit-margin-left="0"
     fit-margin-right="0"
     fit-margin-bottom="0" />
  <metadata
     id="metadata5">
    <rdf:RDF>
      <cc:Work
         rdf:about="">
        <dc:format>image/svg+xml</dc:format>
        <dc:type
           rdf:resource="http://purl.org/dc/dcmitype/StillImage" />
        <dc:title></dc:title>
      </cc:Work>
    </rdf:RDF>
  </metadata>
  <g
     inkscape:label="Capa 1"
     inkscape:groupmode="layer"
     id="layer1"
     transform="translate(-14.444879,-162.97188)">
    <path
       style="fill:#000000;stroke-width:0.03877063"
       d="m 22.644869,179.42965 c -0.625468,-0.20697 -1.097587,-0.7543 -1.167249,-1.35322 l -0.02593,-0.22293 h 1.658085 1.658085 l -0.02548,0.19211 c -0.07638,0.57583 -0.439071,1.05992 -0.981604,1.31021 -0.184036,0.0849 -0.290128,0.10538 -0.592498,0.11429 -0.230356,0.007 -0.426412,-0.008 -0.523404,-0.0404 z m -6.571623,-2.82684 v -0.39774 l 0.831841,-0.83116 0.831841,-0.83117 0.01368,-2.65785 c 0.01314,-2.55385 0.01692,-2.67151 0.09649,-3.00679 0.315736,-1.33024 0.975175,-2.36917 1.992852,-3.13969 0.569676,-0.43131 1.234074,-0.76638 1.814789,-0.91521 l 0.195338,-0.05 7.8e-4,-0.235 c 0.002,-0.60332 0.123334,-0.95645 0.425889,-1.23944 0.591414,-0.55321 1.554937,-0.38157 1.93001,0.3438 0.08678,0.16783 0.104077,0.26063 0.122534,0.65755 l 0.0215,0.46216 0.116312,0.0344 c 1.00698,0.29809 1.673235,0.67871 2.363301,1.3501 0.801563,0.77985 1.273062,1.62647 1.542751,2.77012 0.0788,0.33415 0.08288,0.46074 0.09646,2.98764 l 0.01418,2.63871 0.831603,0.83093 0.831602,0.83092 v 0.39773 0.39775 h -7.036871 -7.036871 z m 10.730147,-4.26443 -0.01203,-3.0338 -0.08903,-0.2906 c -0.252647,-0.82464 -0.65299,-1.43507 -1.259337,-1.92021 -1.191911,-0.95364 -2.765381,-1.09284 -4.130629,-0.36541 -0.832876,0.44378 -1.539599,1.33294 -1.787402,2.24882 -0.134367,0.49663 -0.154196,0.97302 -0.155231,3.72953 l -9.99e-4,2.66547 h 3.723326 3.723327 z m -12.358514,-2.95651 c 0,-0.25029 0.102008,-0.8994 0.219309,-1.3955 0.297304,-1.2574 0.980005,-2.60562 1.812542,-3.57945 0.313213,-0.36638 0.809725,-0.85983 1.149519,-1.14244 l 0.215416,-0.17916 0.591683,0.5926 0.591681,0.59261 -0.225538,0.16851 c -0.301629,0.22537 -0.860758,0.77007 -1.134053,1.10479 -0.870868,1.0666 -1.402509,2.34861 -1.571613,3.78983 l -0.02615,0.22293 h -0.811394 -0.811393 z m 15.627042,-0.24207 c -0.151731,-1.24227 -0.646531,-2.46684 -1.387394,-3.43362 -0.279976,-0.36535 -0.807853,-0.89972 -1.164249,-1.17857 -0.175921,-0.13765 -0.319858,-0.26212 -0.319858,-0.27661 0,-0.0146 0.259176,-0.28509 0.575946,-0.60134 l 0.575947,-0.57498 0.344856,0.28957 c 1.763999,1.48121 2.853233,3.61049 3.053644,5.96941 l 0.01894,0.22293 H 30.94629 30.122826 Z"
       id="path816"
       inkscape:connector-curvature="0" />
  </g>
</svg>
