<svg width="26" height="26" viewBox="0 0 26 26" fill="none" xmlns="http://www.w3.org/2000/svg">
<path d="M18.8292 13.3355L20.0577 9.8254L22.4495 8.68645L22.7339 8.55102L22.4495 8.41559L20.0714 7.2832L18.8309 3.26629L18.6876 2.80219L18.5443 3.26629L17.3038 7.2832L14.9257 8.41559L14.6413 8.55102L14.9257 8.68645L17.3175 9.8254L18.546 13.3355L18.6876 13.74L18.8292 13.3355ZM18.387 8.29954L18.4464 8.27124L18.4658 8.20837L18.6876 7.49031L18.9094 8.20837L18.9288 8.27125L18.9882 8.29954L19.5163 8.55102L18.9989 8.79741L18.9425 8.82429L18.9218 8.88329L18.6876 9.55252L18.4534 8.88329L18.4327 8.82429L18.3763 8.79741L17.8589 8.55102L18.387 8.29954Z" fill="#BDBDBD" stroke="#BDBDBD" stroke-width="0.3"/>
<path d="M10.9792 6.46362L10.6881 6.46362L10.1664 8.5504L8.61956 9.06603L8.19265 9.20833L8.61956 9.35064L10.1664 9.86626L10.6881 11.953H10.9792L11.5009 9.86626L13.0478 9.35064L13.4747 9.20833L13.0478 9.06603L11.5009 8.5504L10.9792 6.46362Z" fill="#BDBDBD" stroke="#BDBDBD" stroke-width="0.3"/>
<path d="M8.76223 14.6395L8.76228 14.6395C9.00528 14.5288 9.27869 14.4938 9.49391 14.4813L9.49393 14.4813C9.72277 14.4681 9.95798 14.4773 10.1612 14.4931L8.76223 14.6395ZM8.76223 14.6395C8.52983 14.7455 7.79237 15.0179 7.10934 15.2649C6.93111 14.8031 6.48314 14.4754 5.95833 14.4754H4.33333C3.65218 14.4754 3.1 15.0276 3.1 15.7087V21.6646C3.1 22.3457 3.65218 22.8979 4.33333 22.8979H5.95833C6.63635 22.8979 7.18655 22.3508 7.19163 21.674C7.53796 21.6584 7.88588 21.6475 8.06771 21.6548L8.06772 21.6548C8.98599 21.6918 9.67892 21.9009 10.4399 22.1424L10.5296 22.171L10.5296 22.171L10.533 22.172C11.2706 22.4066 12.0859 22.6659 13.1476 22.7463L13.1477 22.7463C13.3566 22.7621 13.5842 22.7847 13.8152 22.8077L13.8216 22.8083L13.8216 22.8083L8.76223 14.6395ZM10.9368 14.5935L14.5529 15.4047L14.566 15.4076L14.5658 15.4082L14.5867 15.4149L14.5885 15.4155L14.5927 15.4168L14.5929 15.4168L14.6171 15.4242C14.6388 15.4308 14.6723 15.4406 14.7159 15.4526L14.716 15.4526C14.8032 15.4768 14.929 15.5096 15.0791 15.5423L15.0791 15.5423C15.3856 15.6091 15.7661 15.6702 16.1166 15.6702C16.4887 15.6702 16.9009 15.8102 17.1227 16.2165C17.3104 16.5603 17.263 16.9291 17.199 17.1673L17.199 17.1673C17.1568 17.3239 17.0918 17.4831 17.0099 17.6368C17.1474 17.5814 17.2904 17.5229 17.4387 17.462L17.5053 17.4347L17.5054 17.4346L17.5151 17.4307C18.3881 17.0724 19.4428 16.6396 20.3789 16.4848C21.4791 16.3028 22.3162 16.7015 22.699 17.4486C23.0326 18.0998 22.961 18.9619 22.4454 19.4908C22.316 19.6235 22.1257 19.7567 21.947 19.8726L21.947 19.8726C21.7531 19.9983 21.5157 20.1395 21.2537 20.2881C20.7288 20.5859 20.0803 20.9274 19.4304 21.257C18.147 21.9079 16.7922 22.5458 16.3545 22.7061C15.83 22.8982 15.273 22.9142 14.7542 22.8875C14.7542 22.8875 14.7542 22.8875 14.7542 22.8875L14.7619 22.7377L10.9368 14.5935ZM10.9368 14.5935L10.7763 14.5132L10.7668 14.5642C10.7426 14.5604 10.7159 14.5564 10.6869 14.5521L10.6868 14.5521C10.5527 14.5326 10.3667 14.5089 10.1612 14.4931L10.9368 14.5935ZM14.219 16.7491L14.2186 16.7489L14.1995 16.7431L10.6509 15.9471L10.6192 15.9416L14.219 16.7491ZM14.219 16.7491C14.2496 16.7582 14.2927 16.7708 14.3464 16.7857L14.3464 16.7857M14.219 16.7491L14.3464 16.7857M14.3464 16.7857C14.4538 16.8155 14.6049 16.8547 14.7843 16.8938C15.0509 16.952 15.395 17.0134 15.7587 17.04M14.3464 16.7857L15.7587 17.04M15.7587 17.04C15.7448 17.0633 15.7296 17.0869 15.7132 17.1107L15.7132 17.1107C15.6342 17.2256 15.5509 17.3089 15.4903 17.3521L15.4903 17.3521C15.2801 17.5023 15.1149 17.5621 15.0215 17.5863C14.9739 17.5987 14.9427 17.6024 14.931 17.6034L14.929 17.6036L12.0303 17.5685L11.8925 17.5669L11.8792 17.7041L11.7755 18.7786L11.7756 18.7786L11.751 18.9141L11.8987 18.9407L11.9276 18.9459L11.9277 18.946L12.0103 18.9608L12.0103 18.9608L15.7587 17.04ZM16.6565 19.2469C17.0596 19.1124 17.5134 18.9266 17.9637 18.7418M16.6565 19.2469L10.0545 15.8722C9.8861 15.8592 9.71812 15.854 9.57368 15.8624C9.49687 15.8668 9.43932 15.8745 9.39881 15.8822C9.37856 15.8861 9.36315 15.8898 9.3521 15.893C9.34052 15.8963 9.33577 15.8984 9.33595 15.8983C9.00034 16.0513 7.94567 16.4352 7.19167 16.7055V20.2893C7.53842 20.2743 7.90288 20.2637 8.12339 20.2726L8.1234 20.2726C9.23991 20.3175 10.0837 20.578 10.8585 20.824L10.8585 20.824L10.9266 20.8456L10.8812 20.9886L10.9266 20.8456C11.6734 21.0829 12.3551 21.299 13.2522 21.367L13.2408 21.5165L13.2522 21.367C13.5351 21.3884 13.7823 21.4135 14.0122 21.4369L14.0122 21.4369C14.2973 21.4659 14.5546 21.4921 14.8254 21.506L14.8254 21.506C15.2848 21.5297 15.6181 21.5026 15.8788 21.4071L15.8788 21.4071C16.2263 21.2799 17.5078 20.681 18.8047 20.0233C19.4449 19.6985 20.0724 19.3678 20.5712 19.0849C20.8211 18.9432 21.0324 18.817 21.1943 18.712C21.2809 18.6558 21.3439 18.6117 21.3872 18.5794C21.4089 18.5633 21.4253 18.5504 21.437 18.5407C21.4429 18.5359 21.4473 18.532 21.4505 18.5292C21.4538 18.5262 21.4551 18.5249 21.455 18.525M16.6565 19.2469C16.2743 19.3745 15.8408 19.4913 15.458 19.4682M16.6565 19.2469L15.458 19.4682M17.9637 18.7418C18.8993 18.3581 19.829 17.9779 20.6047 17.8496L20.6047 17.8496C20.9292 17.7959 21.131 17.8314 21.255 17.8863C21.3769 17.9403 21.4368 18.0188 21.4678 18.0794C21.5154 18.1723 21.5267 18.2715 21.5164 18.3576C21.5054 18.4484 21.473 18.5064 21.455 18.525M17.9637 18.7418L17.9069 18.6034L17.9637 18.7418C17.9637 18.7418 17.9637 18.7418 17.9637 18.7418ZM21.455 18.525C21.455 18.525 21.4549 18.525 21.4549 18.5251L21.5621 18.6296L21.455 18.525ZM15.458 19.4682C14.9399 19.437 14.0349 19.3011 13.292 19.1801L15.458 19.4682ZM5.80833 15.8587V21.5146H4.48333V15.8587H5.80833Z" fill="#BDBDBD" stroke="#BDBDBD" stroke-width="0.3"/>
</svg>
