<svg width="32" height="32" viewBox="0 0 32 32" fill="none" xmlns="http://www.w3.org/2000/svg">
<path d="M29.7673 11.8181C29.7617 11.8181 29.7617 11.8181 29.7673 11.8181C28.0535 10.8543 26.317 9.87293 24.6372 8.9268L21.8338 7.346C19.9497 6.28234 18.0032 5.17754 16.0908 4.09037C15.8808 3.96696 15.7049 3.97283 15.4949 4.09037C14.7799 4.5076 14.0422 4.91897 13.3328 5.32445L12.8674 5.5889C11.6927 6.25295 10.5237 6.91113 9.34901 7.57519C8.06648 8.29801 6.78962 9.02083 5.50709 9.74365C4.63316 10.2373 3.75355 10.7368 2.87394 11.2304L2.23835 11.5889C2.0908 11.6712 2 11.8298 2 12.0003C2 12.1707 2.0908 12.3293 2.23835 12.4116L2.70369 12.6761C3.95784 13.3871 5.2574 14.1217 6.53993 14.8387C6.68747 14.9209 6.73287 14.9973 6.73287 15.1677C6.7272 16.3078 6.7272 17.4714 6.7272 18.5938V18.6114C6.7272 19.9043 6.7272 21.2383 6.72152 22.5664C6.72152 22.6486 6.7272 22.7133 6.74422 22.7721C6.76692 22.8602 6.81232 22.9366 6.87475 22.9954C6.91447 23.0306 6.95987 23.0659 7.02229 23.1011C9.71788 24.6173 12.5156 26.1981 15.5744 27.9317C15.5857 27.9376 15.5914 27.9435 15.6028 27.9493C15.6652 27.9846 15.739 27.9963 15.8071 27.9963C15.8752 27.9963 15.9433 27.9787 16.0057 27.9493C16.017 27.9435 16.0284 27.9376 16.0397 27.9317C18.9737 26.2686 21.8622 24.6408 24.6145 23.0894C24.6486 23.0718 24.6769 23.0541 24.6996 23.0306C24.7961 22.9542 24.8585 22.8484 24.8756 22.725C24.8812 22.6898 24.8812 22.6486 24.8812 22.6016C24.8756 21.3558 24.8756 20.0923 24.8756 18.87V18.8289C24.8756 17.63 24.8756 16.3901 24.8699 15.1736C24.8699 14.9973 24.9153 14.9209 25.0572 14.8445C25.4033 14.6624 25.7495 14.4626 26.0786 14.2745C26.2375 14.1864 26.3908 14.0923 26.5497 14.0042C26.7313 13.8984 26.9185 13.7985 27.1171 13.6868L27.276 13.5987V22.2432C27.276 22.5017 27.4803 22.7133 27.73 22.7133H29.5403C29.79 22.7133 29.9943 22.5017 29.9943 22.2432V19.9278C29.9943 17.4067 29.9943 14.7975 30 12.2353C30 12.059 29.9092 11.9004 29.7673 11.8181ZM9.45116 17.5125C9.45116 17.1775 9.45116 16.8426 9.45116 16.5076C9.45683 16.5135 9.46818 16.5135 9.47385 16.5194L9.6668 16.0962L9.47953 16.5252C9.576 16.5722 9.66113 16.6134 9.74625 16.6604C10.1321 16.8778 10.5237 17.1011 10.9153 17.3186L10.9323 17.3245C12.4078 18.1589 13.94 19.0228 15.4325 19.8866C15.739 20.0629 15.966 20.0042 16.2327 19.8514C17.7933 18.9581 19.3879 18.059 20.9258 17.1893L22.1176 16.5135C22.1289 16.5076 22.1403 16.5017 22.1516 16.4959V16.7485C22.1516 17.0953 22.1516 17.442 22.1516 17.7828V17.8005C22.1516 18.8582 22.1516 19.9572 22.1573 21.0385C22.1573 21.1912 22.1346 21.2735 21.9927 21.3558C20.2108 22.3548 18.304 23.4361 15.9773 24.7583C15.8525 24.8289 15.7673 24.8289 15.6425 24.7642C13.4463 23.5125 11.4884 22.4077 9.65545 21.3793C9.50223 21.2912 9.45116 21.2089 9.45116 21.0267C9.45116 19.8573 9.45116 18.7172 9.45116 17.5125ZM21.1812 13.822C19.4901 14.7799 17.7365 15.7672 16.017 16.7427C15.9262 16.7956 15.8581 16.8191 15.79 16.8191C15.7276 16.8191 15.6595 16.8014 15.5857 16.7544C13.4463 15.538 11.2671 14.3098 9.16173 13.1168L7.36279 12.1002C7.31171 12.0708 7.26631 12.0414 7.20389 12.0061L10.921 9.90819L10.9493 9.89056C12.4816 9.0267 14.0705 8.12758 15.6255 7.24022C15.756 7.1697 15.8411 7.16382 15.9603 7.23434C18.0373 8.41554 20.154 9.60849 22.2027 10.7662L24.2854 11.9415C24.3194 11.9591 24.3478 11.9768 24.3875 12.0061L24.013 12.2177C23.6952 12.3999 23.3887 12.5762 23.0823 12.7466C22.458 13.0992 21.8338 13.4518 21.2096 13.8044L21.1812 13.822Z" fill="#2687C5"/>
</svg>
