<svg width="32" height="32" viewBox="0 0 32 32" fill="none" xmlns="http://www.w3.org/2000/svg">
<path d="M18.6236 10.7836C18.3796 10.7836 18.1356 10.7679 17.9241 10.7365C17.9079 10.5323 17.8916 10.3124 17.8916 10.1082C17.8916 9.27566 17.8753 8.31747 16.5252 8.30176C16.0535 8.30176 15.7119 8.39601 15.4842 8.61592C15.1101 8.9615 15.1101 9.54269 15.1101 10.0925C15.1101 10.3124 15.1101 10.548 15.0775 10.7522C14.8661 10.7836 14.6383 10.7836 14.3943 10.7836C13.825 10.7836 13.2394 10.7836 12.8815 11.1292C12.6538 11.3491 12.54 11.679 12.5562 12.1345C12.5725 13.4383 13.4997 13.454 14.4106 13.4697C14.6546 13.4697 14.8986 13.4697 15.1263 13.5011C15.1263 13.6268 15.1263 13.7524 15.1263 13.8781C15.1263 14.1766 15.1101 14.4593 15.1426 14.7421C15.1914 15.496 15.7119 15.9673 16.4764 15.9987C16.4927 15.9987 16.509 15.9987 16.5252 15.9987C17.306 15.9987 17.8265 15.5275 17.8916 14.7421C17.9079 14.4436 17.9079 14.1451 17.9079 13.831C17.9079 13.721 17.9079 13.5954 17.9079 13.4854C18.1356 13.4697 18.3796 13.4697 18.6073 13.4697C19.502 13.4697 20.4129 13.4697 20.4617 12.2288C20.478 11.7575 20.3804 11.4119 20.1689 11.1763C19.7948 10.7993 19.1929 10.7993 18.6236 10.7836Z" fill="#2687C5"/>
<path d="M26.9837 4.65732C26.9837 2.17546 25.3083 0.573242 22.7057 0.573242C18.5414 0.573242 14.3122 0.573242 10.3431 0.573242C7.67545 0.573242 6 2.17546 6 4.75157C6 9.85668 6 13.5009 6 18.339V19.847C6 22.5016 7.64291 24.0881 10.3757 24.0881C10.8799 24.0881 11.3842 24.0881 11.9047 24.0881H12.5229V24.685C12.5229 25.1406 12.5229 25.5647 12.5229 25.9888C12.5229 27.2454 12.8482 27.7167 13.8567 27.8266H15.0767V29.6331C15.0767 30.387 15.7111 30.9997 16.4919 30.9997H16.5407C17.3215 30.9997 17.9558 30.387 17.9558 29.6331V27.8266H19.1921C20.1681 27.7167 20.5097 27.2611 20.5097 26.0516C20.5097 25.5961 20.5097 25.1406 20.5097 24.6693V24.0724H21.2417C21.7947 24.0724 22.299 24.0724 22.8033 24.0724C25.3083 24.0567 27 22.4231 27 19.9883C27 14.1135 27 10.2337 26.9837 4.65732ZM24.2184 13.925C24.2184 15.92 24.2184 17.9306 24.2184 19.9255C24.2184 21.0408 23.828 21.4178 22.6894 21.4178C18.2161 21.4178 14.1332 21.4178 10.2455 21.4178C9.15569 21.4178 8.7653 21.0251 8.7653 19.9726C8.7653 14.2706 8.7653 10.4222 8.7653 4.70445C8.7653 3.65201 9.17196 3.25931 10.2455 3.25931C12.2301 3.25931 14.2959 3.25931 16.5569 3.25931C18.4764 3.25931 20.5259 3.25931 22.7545 3.25931C23.7792 3.25931 24.2022 3.66772 24.2022 4.67303C24.2022 6.65224 24.2022 7.79893 24.2022 9.25977V11.4589L24.2184 13.925ZM17.7119 24.1353V25.1249H15.3369V24.1353H17.7119Z" fill="#2687C5"/>
</svg>
