<svg width="32" height="32" viewBox="0 0 32 32" fill="none" xmlns="http://www.w3.org/2000/svg">
<g clip-path="url(#clip0_17616_79942)">
<path d="M29.8159 11.3045C29.381 8.55902 28.1991 6.21232 26.3162 4.32576C25.7278 3.7378 25.0217 3.05782 24.244 2.45964C23.2616 1.70809 22.0848 1.11502 20.6522 0.654882C18.273 -0.106901 15.8068 -0.204042 13.3355 0.373687C11.1354 0.884951 9.13996 1.97906 7.23149 3.70713C6.72495 4.16727 6.29005 4.71432 5.87561 5.24092C5.76816 5.37385 5.66071 5.51189 5.55326 5.64482C5.39465 5.8391 5.27697 6.05894 5.15929 6.27367C5.10812 6.37081 5.05696 6.46284 5.00579 6.54976C4.93416 6.67246 4.8523 6.80027 4.77555 6.92298C4.6067 7.19395 4.43274 7.47003 4.28948 7.76656C3.67549 9.0345 3.2764 10.4251 3.10244 11.9078C2.92848 13.4109 2.99499 14.8834 3.29687 16.2893C3.89039 19.0297 5.16441 21.3099 7.09334 23.0687C7.19056 23.1607 7.20079 23.1812 7.10357 23.2988C7.00124 23.4317 6.87333 23.6362 6.85798 23.8509L6.85286 23.9481C6.8017 24.6894 6.75053 25.4563 6.74542 26.2181C6.74542 27.031 7.03194 27.7672 7.55895 28.2887C8.08595 28.8051 8.82273 29.0965 9.64138 29.0965C9.89721 29.0965 10.1479 29.0965 10.4037 29.0965C10.4037 29.1118 10.3986 29.1323 10.3986 29.1476V31.3921C10.3986 31.7295 10.6749 32.0056 11.0126 32.0056H12.2969C12.6346 32.0056 12.9108 31.7295 12.9108 31.3921V29.1476C12.9108 29.1323 12.9108 29.1118 12.9057 29.0965C13.4276 29.0965 13.9444 29.0965 14.456 29.0965C15.1365 29.0965 15.8119 29.0965 16.4924 29.0965C17.1473 29.0965 17.8023 29.0965 18.4572 29.0965C19.0302 29.0965 19.6084 29.0965 20.1917 29.0965C20.1917 29.1118 20.1866 29.1323 20.1866 29.1476V31.3921C20.1866 31.7295 20.4629 32.0056 20.8006 32.0056H22.0848C22.4225 32.0056 22.6988 31.7295 22.6988 31.3921V29.1476C22.6988 29.1323 22.6988 29.1118 22.6937 29.0965C22.9495 29.0965 23.2002 29.0965 23.456 29.0965C24.2747 29.0965 24.9705 28.7846 25.5282 28.1762C26.2343 27.4093 26.5567 24.5411 26.045 23.5902C26.0297 23.5646 26.0143 23.5391 25.999 23.5135C25.9836 23.4879 25.9683 23.4624 25.958 23.4368C25.8813 23.2885 25.871 23.2067 26.0552 22.992C26.1422 22.8898 26.2292 22.7824 26.3213 22.6801C26.9506 21.9388 27.6056 21.1719 28.1172 20.3283C29.7647 17.6186 30.3378 14.5817 29.8159 11.3045ZM23.8551 26.1261V26.1618C23.85 26.5606 23.7374 26.6731 23.3332 26.6731C21.6601 26.6731 19.9819 26.6731 18.3088 26.6731H16.7073V26.668H14.6761H9.72836C9.20647 26.668 9.12973 26.5862 9.12973 26.0545C9.12973 25.717 9.12973 25.2774 9.12973 24.8326C9.13484 24.3162 9.21159 24.2395 9.71813 24.2395C11.335 24.2344 12.9774 24.2344 14.5686 24.2344H15.5766C17.9865 24.2344 20.3963 24.2344 22.8062 24.2395H23.323C23.763 24.2395 23.8398 24.3111 23.85 24.7354C23.8705 25.2007 23.8654 25.671 23.8551 26.1261ZM11.4373 20.3539C11.7801 19.7404 12.1331 19.1064 12.4708 18.4724C12.5578 18.3139 12.6346 18.2679 12.8239 18.273C15.1058 18.2833 17.5157 18.2833 20.2019 18.273C20.2019 18.273 20.2019 18.273 20.207 18.273C20.3708 18.273 20.4322 18.3088 20.5038 18.4366C20.9182 19.2035 21.348 19.9755 21.7625 20.7271C21.962 21.0901 22.1667 21.4582 22.3662 21.8212H10.6391C10.7261 21.6525 10.8131 21.4889 10.9 21.3304C11.0791 21.0032 11.2582 20.676 11.4373 20.3539ZM11.4629 11.4681C12.2099 10.057 13.402 9.31569 15.0086 9.26457L15.2133 9.25946C15.6994 9.24412 16.1957 9.22878 16.6869 9.22878C17.3264 9.22878 17.9711 9.25434 18.5902 9.34637C19.9256 9.54065 21.0666 10.4149 21.6397 11.6828C22.2332 12.9917 22.1257 14.4743 21.3583 15.6554C21.2508 15.8241 21.1485 15.8803 20.9541 15.8803H20.9489C19.8489 15.8752 18.7284 15.8752 17.6436 15.8752C17.265 15.8752 16.8813 15.8752 16.5027 15.8752H16.2724C15.9654 15.8752 15.6584 15.8752 15.3463 15.8752C14.2667 15.8752 13.1513 15.8701 12.0513 15.8803C11.8313 15.8803 11.7238 15.8241 11.6215 15.6503C10.7977 14.2443 10.7414 12.8383 11.4629 11.4681ZM24.6431 20.9521C24.6328 20.9367 24.6226 20.9163 24.6124 20.9009C24.4179 20.5533 24.2286 20.2056 24.0393 19.8631C23.6709 19.1933 23.2923 18.5031 22.9086 17.8282C22.8421 17.7055 22.8421 17.6749 22.9342 17.5624C24.0496 16.182 24.5714 14.4795 24.4077 12.7718C24.244 11.0642 23.41 9.49464 22.049 8.35963C20.9745 7.46492 19.8386 6.97922 18.6618 6.91787C17.3469 6.8514 15.8222 6.79005 14.3384 6.91787C12.9569 7.03546 11.6266 7.64897 10.5931 8.63571C9.56975 9.61223 8.88413 10.9108 8.65389 12.2964C8.33666 14.2085 8.79715 15.9621 10.02 17.5061C10.1428 17.6595 10.1479 17.726 10.0507 17.8998C9.66696 18.5747 9.28322 19.27 8.91483 19.9346C8.74087 20.2465 8.57202 20.5584 8.39806 20.8703C8.38271 20.8958 8.36736 20.9265 8.34689 20.9521C6.02398 18.6207 4.50949 14.1369 6.02398 9.83718C7.59988 5.3534 11.775 2.40852 16.4975 2.40852C16.6357 2.40852 16.7738 2.40852 16.9069 2.41363C21.4811 2.57723 25.5436 5.60903 27.0069 9.94966C28.5163 14.413 26.8688 18.723 24.6431 20.9521Z" fill="#2687C5"/>
<path d="M25.8966 12.4859C26.4799 12.4092 26.8944 11.8775 26.8176 11.2947C26.7409 10.7118 26.2088 10.2977 25.6255 10.3744C25.0422 10.4511 24.6277 10.9828 24.7045 11.5656C24.7761 12.1485 25.3133 12.5626 25.8966 12.4859Z" fill="#2687C5"/>
<path d="M25.7436 13.3802C25.1603 13.4569 24.7459 13.9886 24.8226 14.5715C24.8994 15.1543 25.4315 15.5684 26.0148 15.4917C26.598 15.4151 27.0125 14.8833 26.9357 14.3005C26.8641 13.7176 26.3269 13.3086 25.7436 13.3802Z" fill="#2687C5"/>
<path d="M18.4263 3.86035H14.3894C14.0517 3.86035 13.7754 4.13643 13.7754 4.47387V5.34302C13.7754 5.68045 14.0517 5.95653 14.3894 5.95653H18.4263C18.764 5.95653 19.0403 5.68045 19.0403 5.34302V4.47387C19.0403 4.13643 18.7692 3.86035 18.4263 3.86035Z" fill="#2687C5"/>
</g>
<defs>
<clipPath id="clip0_17616_79942">
<rect width="27" height="32" fill="white" transform="translate(3)"/>
</clipPath>
</defs>
</svg>
