<svg width="32" height="32" viewBox="0 0 32 32" fill="none" xmlns="http://www.w3.org/2000/svg">
<g clip-path="url(#clip0_17616_79942)">
<path d="M25.8145 9.05566C19.2398 9.05566 12.6601 9.05566 6.08541 9.05566C5.2851 9.05566 4.87988 9.45201 4.87988 10.2397C4.87988 13.9422 4.87988 17.6498 4.87988 21.3523C4.87988 22.1601 5.25978 22.5363 6.07528 22.5363H18.3939H25.7993C26.6148 22.5363 26.9998 22.1651 26.9998 21.3624C26.9998 17.6498 26.9998 13.9372 26.9998 10.2246C26.9998 9.44699 26.5996 9.05566 25.8145 9.05566ZM17.4265 20.5647H14.4734C14.9901 20.083 15.4764 19.8673 16.0133 19.8723C16.5097 19.8823 16.9554 20.0981 17.4265 20.5647ZM25.0345 14.6496C25.0345 15.0409 25.0345 15.4273 25.0345 15.8186C25.0345 16.1949 25.0345 16.5711 25.0345 16.9474C25.0345 18.1063 25.0345 19.3054 25.0395 20.4844C25.0395 20.5446 25.0345 20.5747 25.0294 20.5847C25.0193 20.5897 24.9889 20.5948 24.9332 20.5948C24.0569 20.5897 23.1857 20.5897 22.355 20.5897C21.4027 20.5897 20.5061 20.5897 19.7413 20.5948C19.7413 20.5948 19.7413 20.5948 19.7362 20.5948C19.6501 20.5948 19.6248 20.5847 19.6248 20.5847C19.6248 20.5847 19.6197 20.5747 19.6147 20.5396C19.5488 20.0178 19.25 19.6315 18.9967 19.3505C18.4699 18.7736 17.8216 18.3522 17.0567 18.0963C16.92 18.0511 16.9098 18.0261 16.9149 17.9207C16.9351 17.5344 16.925 17.128 16.92 16.8069C16.92 16.7919 16.92 16.7818 16.92 16.7768C16.9301 16.7768 16.9503 16.7718 16.9807 16.7668C17.9735 16.6815 18.8397 17.0277 19.7058 17.8505C19.7919 17.9357 20.0249 18.1565 20.3238 17.8655C20.5973 17.5996 20.8962 17.3437 21.1798 17.0979C21.2203 17.0628 21.3368 16.9675 21.3368 16.817C21.3419 16.6664 21.2305 16.5661 21.195 16.531C20.1111 15.5125 19.0828 14.9757 17.9583 14.8352C17.6696 14.8001 17.3758 14.8102 17.0922 14.8152L16.9706 14.8202C16.9503 14.8202 16.9351 14.8202 16.925 14.8202C16.925 14.8102 16.925 14.7951 16.925 14.77C16.9351 14.4289 16.9351 14.0877 16.925 13.7566C16.925 13.7365 16.925 13.7215 16.925 13.7114C16.9351 13.7114 16.9554 13.7064 16.9858 13.7064C17.7152 13.6813 18.4193 13.8569 19.098 14.2282C19.3513 14.3687 19.5437 14.3185 19.6957 14.0727C19.9236 13.7064 20.1212 13.4205 20.3086 13.1646C20.3643 13.0843 20.4403 12.9639 20.4099 12.8284C20.3795 12.693 20.263 12.6127 20.1668 12.5625C19.1183 11.9906 18.1103 11.7247 17.082 11.7598C17.0365 11.7598 16.9706 11.7648 16.9301 11.7598C16.9301 11.7197 16.9301 11.6595 16.9301 11.6143C16.9301 11.5441 16.9301 11.4739 16.925 11.4036C16.92 11.2782 16.9098 11.0926 16.9503 11.0424C17.001 11.0173 17.1833 11.0273 17.2846 11.0374C17.3556 11.0424 17.4315 11.0474 17.4974 11.0474C18.3028 11.0474 19.1081 11.0474 19.9186 11.0474C21.5496 11.0474 23.2312 11.0474 24.8926 11.0424C24.9889 11.0424 25.0243 11.0524 25.0294 11.0574C25.0345 11.0675 25.0446 11.0976 25.0446 11.1829C25.0294 12.3318 25.0345 13.5108 25.0345 14.6496ZM6.88065 11.1177C6.88065 11.0775 6.88572 11.0524 6.88572 11.0424C6.89585 11.0374 6.92117 11.0374 6.9617 11.0374C9.50444 11.0424 12.0978 11.0424 14.8888 11.0374C14.9242 11.0374 14.9445 11.0424 14.9546 11.0424C14.9546 11.0524 14.9546 11.0675 14.9546 11.0926C14.9394 11.3133 14.9394 11.509 14.9546 11.6946C14.9546 11.7197 14.9546 11.7398 14.9546 11.7498C14.9394 11.7548 14.9141 11.7548 14.8685 11.7548C13.6833 11.7347 12.6398 12.1562 11.5913 12.6278L11.4242 12.703L11.5052 12.8686C11.5609 12.9739 11.6116 13.0793 11.6622 13.1796C11.8395 13.5258 12.0016 13.8569 12.1789 14.178C12.2599 14.3285 12.5132 14.3386 12.6297 14.3034C12.8526 14.2332 13.0805 14.1579 13.2983 14.0827C13.6124 13.9773 13.9315 13.867 14.2556 13.7716C14.3924 13.7315 14.5494 13.7215 14.7115 13.7165C14.7875 13.7114 14.8685 13.7064 14.9445 13.7014C14.9445 13.7014 14.9445 13.7014 14.9496 13.7014C14.9496 13.7064 14.9496 13.7064 14.9496 13.7114C14.9445 14.1278 14.9445 14.469 14.9496 14.7951C14.9496 14.8051 14.9496 14.8102 14.9496 14.8152C14.9445 14.8152 14.9344 14.8152 14.9242 14.8152C13.2477 14.7449 11.9813 15.5878 10.7252 16.531C10.6897 16.5561 10.6694 16.5912 10.6492 16.6163C10.6441 16.6263 10.634 16.6414 10.6239 16.6564L10.5428 16.7668L10.634 16.8721C10.6998 16.9474 10.7657 17.0277 10.8265 17.1029C11.0747 17.3939 11.3279 17.6999 11.5913 17.9909C11.718 18.1364 11.9813 18.021 12.0421 17.9859C12.2346 17.8705 12.422 17.7501 12.6094 17.6347C12.9133 17.4441 13.2274 17.2484 13.5414 17.0728C13.9467 16.8521 14.3975 16.7467 14.8837 16.7618C14.9192 16.7618 14.9394 16.7668 14.9496 16.7668C14.9496 16.7768 14.9546 16.7969 14.9546 16.827C14.9445 17.1983 14.9445 17.5846 14.9546 17.9658C14.9546 18.0511 14.9546 18.0662 14.8533 18.1013C14.0024 18.3973 13.3338 18.8338 12.812 19.4308C12.5993 19.6766 12.3106 20.063 12.265 20.5697C12.265 20.5747 12.265 20.5747 12.265 20.5797C12.2498 20.5797 12.2245 20.5847 12.1941 20.5847C11.6572 20.5847 11.1203 20.5847 10.5833 20.5847H10.016C9.75264 20.5847 9.48418 20.5847 9.22079 20.5847C8.48633 20.5847 7.72655 20.5847 6.97689 20.5897C6.92117 20.5897 6.89585 20.5847 6.88572 20.5847C6.88065 20.5747 6.87559 20.5496 6.87559 20.4994C6.88572 17.4993 6.88572 14.3436 6.88065 11.1177Z" fill="#2687C5"/>
<path d="M15.9182 8.06228C15.9233 8.06228 15.9283 8.06228 15.9334 8.06228C17.0782 8.05726 18.1317 7.61075 18.9067 6.80803C19.6513 6.03541 20.0565 5.02198 20.016 4.02359C20.0616 3.01016 19.6564 1.98168 18.9016 1.19902C18.1317 0.406339 17.0832 -0.0351562 15.9486 -0.0351562C15.9435 -0.0351562 15.9385 -0.0351562 15.9385 -0.0351562C14.814 -0.0301393 13.7756 0.406339 13.0108 1.19401C12.2814 1.94656 11.8711 2.97002 11.8711 3.99851C11.8762 5.09723 12.3067 6.13073 13.0918 6.89833C13.8465 7.65088 14.8545 8.06228 15.9182 8.06228ZM13.8364 4.02861C13.8313 2.87972 14.7532 1.96161 15.9334 1.93652C15.9486 1.93652 15.9638 1.93652 15.979 1.93652C16.5058 1.93652 17.0275 2.15225 17.4175 2.52853C17.8227 2.91985 18.0456 3.43159 18.0456 3.97342C18.0507 5.17249 17.1541 6.08558 15.9638 6.0906C15.3965 6.09561 14.8646 5.87988 14.4594 5.48856C14.0593 5.09723 13.8364 4.58048 13.8364 4.02861Z" fill="#2687C5"/>
<path d="M21.543 23.8609C21.4975 23.7957 21.4063 23.6603 21.2594 23.6552C20.8846 23.6502 20.5199 23.6502 20.1248 23.6502C20.0133 23.6502 19.9019 23.6502 19.7854 23.6502H19.6081V29.0184C19.6081 29.0385 19.6081 29.0585 19.6081 29.0786C19.6081 29.1238 19.6081 29.1639 19.6081 29.199C19.5777 29.5251 19.3498 29.7559 19.0459 29.771C18.6964 29.786 18.4735 29.6054 18.4279 29.2642C18.3925 29.0084 18.3722 28.7475 18.3469 28.4916C18.3367 28.3762 18.3266 28.2659 18.3165 28.1505L18.2202 27.1019C18.1747 26.5952 18.124 26.0935 18.0784 25.5868L18.0531 25.2908C18.0126 24.8543 17.972 24.4078 17.9214 23.9663C17.9062 23.8459 17.7846 23.6603 17.6276 23.6603C17.2376 23.6502 16.8476 23.6502 16.4423 23.6552C16.336 23.6552 16.2245 23.6552 16.1131 23.6552H15.9713V23.6502H15.7788C15.6522 23.6502 15.5306 23.6502 15.4141 23.6502C15.0291 23.6502 14.6644 23.6452 14.2947 23.6603C14.1225 23.6653 13.9756 23.886 13.9553 24.0265C13.8996 24.5081 13.854 24.9948 13.8135 25.4664L13.7983 25.647C13.7375 26.3393 13.6767 27.0317 13.6159 27.724C13.5704 28.2207 13.5298 28.7124 13.4842 29.2091C13.4539 29.5602 13.2057 29.781 12.8511 29.771C12.5219 29.7609 12.3041 29.5301 12.3041 29.1789C12.299 28.8328 12.3041 28.4766 12.3041 28.1354C12.3041 27.9899 12.3041 27.8444 12.3041 27.704C12.3041 27.3979 12.3041 27.0919 12.3041 26.7858C12.3041 25.9179 12.304 25.0249 12.3091 24.1469C12.3091 24.0114 12.2939 23.8609 12.1825 23.7556C12.071 23.6502 11.914 23.6452 11.8077 23.6552C11.4784 23.6753 11.134 23.6753 10.7895 23.6552C10.6832 23.6502 10.5262 23.6552 10.4147 23.7556C10.3033 23.8609 10.2881 24.0165 10.2881 24.1419C10.2932 25.0901 10.2932 26.0534 10.2932 26.9865C10.2932 27.6086 10.2932 28.2307 10.2932 28.8579C10.2932 29.0836 10.3083 29.3244 10.3387 29.5753C10.4704 30.6891 11.448 31.6323 12.5624 31.7276C12.6586 31.7376 12.7549 31.7376 12.8511 31.7376C14.239 31.7376 15.1406 30.8647 15.3229 29.9415C15.4546 29.2793 15.5154 28.592 15.5762 27.9297C15.5965 27.6738 15.6218 27.4079 15.6471 27.1521C15.713 26.55 15.7687 25.933 15.8193 25.3359L15.8295 25.2105C15.8548 24.9095 15.8801 24.6085 15.9054 24.2924C15.9156 24.172 15.9257 24.0516 15.9358 23.9262L15.9561 24.167C15.9763 24.3877 15.9915 24.5934 16.0067 24.8041L16.0422 25.1904C16.0827 25.6871 16.1283 26.1989 16.1739 26.7006C16.1992 26.9765 16.2296 27.2524 16.26 27.5183C16.3208 28.0602 16.3816 28.6271 16.4018 29.1789C16.4272 29.9215 16.726 30.5887 17.2427 31.0603C17.7188 31.4968 18.3469 31.7426 18.98 31.7426C19.0104 31.7426 19.0408 31.7426 19.0712 31.7426C20.4388 31.6925 21.5633 30.5937 21.5684 29.2893C21.5734 28.0702 21.5734 26.831 21.5734 25.6319C21.5734 25.1202 21.5734 24.6085 21.5734 24.0967C21.5734 24.0917 21.5734 24.0817 21.5734 24.0716C21.5886 24.0114 21.5937 23.9312 21.543 23.8609Z" fill="#2687C5"/>
</g>
<defs>
<clipPath id="clip0_17616_79942">
<rect width="30" height="32" fill="white" transform="translate(1)"/>
</clipPath>
</defs>
</svg>
