<svg width="32" height="32" viewBox="0 0 32 32" fill="none" xmlns="http://www.w3.org/2000/svg">
<g clip-path="url(#clip0_17619_80006)">
<path d="M27.4604 23.6453C25.5836 19.8324 23.7068 16.0065 21.83 12.1937C21.6629 11.853 21.5215 11.46 21.5086 11.08C21.4829 9.15392 21.4829 7.24096 21.5086 5.31489C21.5086 5.13146 21.7014 4.8432 21.8685 4.76459C22.6141 4.39772 22.9484 3.87362 22.807 3.11367C22.6913 2.47165 22.1514 2.02617 21.4058 1.99996C20.763 1.98686 20.0946 1.99996 19.4261 1.99996C16.5338 1.99996 13.6414 1.99996 10.7491 1.99996C9.64359 1.99996 8.98799 2.7337 9.16796 3.71639C9.29651 4.41082 9.82356 4.69908 10.4792 4.88251C10.4792 6.88719 10.5049 8.82636 10.4663 10.7655C10.4534 11.2503 10.3506 11.7613 10.1321 12.1937C8.28098 16.0196 6.39131 19.8324 4.51451 23.6584C2.97192 26.803 4.90015 29.9869 8.34525 30C13.4358 30.0131 18.5391 30 23.6297 30C27.0876 30 29.003 26.7899 27.4604 23.6453ZM13.2558 10.7524C13.3329 8.81325 13.2815 6.87409 13.2815 4.86941C15.1198 4.86941 16.868 4.86941 18.7191 4.86941C18.7191 5.11835 18.7191 5.3411 18.7191 5.57694C18.7191 7.31957 18.6548 9.0753 18.7448 10.8179C18.7834 11.6434 18.9634 12.5213 19.3104 13.255C19.7989 14.2901 20.3003 15.3252 20.8016 16.3603C19.7732 16.9368 17.7679 17.6836 15.3769 16.6092C13.86 15.9279 12.5616 15.679 11.5461 15.6265C11.9189 14.8404 12.3045 14.0411 12.6773 13.255C13.0373 12.5082 13.2172 11.6041 13.2558 10.7524ZM23.5654 27.1829C18.5134 27.1174 13.4615 27.1567 8.40952 27.1567C6.95693 27.1567 6.40417 26.2658 7.04691 24.9162C8.08815 22.7674 9.14225 20.6186 10.1835 18.4698C10.5948 18.3781 12.0603 18.1422 14.297 19.138C15.5697 19.7014 16.7652 19.9242 17.845 19.9242C19.5932 19.9242 21.033 19.3608 21.9971 18.8367C22.9741 20.8413 23.9767 22.846 24.9794 24.8376C25.6479 26.1216 24.8766 27.2091 23.5654 27.1829Z" fill="#2687C5"/>
</g>
<defs>
<clipPath id="clip0_17619_80006">
<rect width="24" height="28" fill="white" transform="translate(4 2)"/>
</clipPath>
</defs>
</svg>
