<svg width="32" height="32" viewBox="0 0 32 32" fill="none" xmlns="http://www.w3.org/2000/svg">
<path d="M28.9785 11.8753C28.9613 9.0919 27.2911 7.41138 24.5361 7.41138C23.6924 7.41138 22.8487 7.41138 22.005 7.41138H21.1613V7.34136C21.1613 6.93873 21.1613 6.44858 21.1613 6.27352C21.144 4.08534 20.0765 3.01751 17.907 3H17.752C16.495 3 15.2209 3 13.9467 3C11.9493 3.01751 10.8473 4.13786 10.8301 6.15098C10.8301 6.36105 10.8301 6.86871 10.8301 7.28884V7.41138H9.98642C9.14271 7.41138 8.31622 7.41138 7.48973 7.41138C4.70033 7.42888 3.03013 9.10941 3.01291 11.9278C2.9957 15.3589 2.9957 18.895 3.01291 22.4311C3.03013 25.2319 4.75199 26.9825 7.48973 26.9825C10.1242 26.9825 12.8619 26.9825 15.7546 26.9825C18.5096 26.9825 21.3851 26.9825 24.4328 26.9825C27.205 26.9825 28.9268 25.2495 28.9613 22.4661C28.9957 18.8775 28.9957 15.3238 28.9785 11.8753ZM13.6023 5.94092C13.6195 5.92341 13.6884 5.8709 13.9811 5.8709C14.7904 5.8884 15.5997 5.8884 16.3917 5.8709C16.7189 5.8709 17.0632 5.8709 17.3904 5.8709C17.8553 5.8709 18.148 5.94092 18.2685 6.08096C18.4407 6.27352 18.4235 6.72866 18.3546 7.37637H13.6195C13.6195 7.30635 13.6195 7.25383 13.6195 7.18381C13.6195 6.79869 13.6023 6.41357 13.5851 6.22101C13.5507 6.06346 13.5851 5.95842 13.6023 5.94092ZM26.1719 22.4661C26.1719 23.6565 25.7242 24.1116 24.5877 24.1116C18.9573 24.1291 13.1719 24.1291 7.38642 24.1116C6.23278 24.1116 5.80232 23.6565 5.80232 22.4661C5.80232 18.93 5.80232 15.3764 5.80232 11.8928C5.80232 10.7024 6.28444 10.2298 7.4553 10.2298C8.64338 10.2298 9.81424 10.2298 11.0023 10.2298C11.8288 10.2298 12.6553 10.2298 13.4818 10.2298H15.9613H18.4407C20.4209 10.2298 22.401 10.2298 24.3983 10.2298C25.707 10.2298 26.1546 10.6674 26.1546 11.9803C26.1891 15.884 26.1891 19.3151 26.1719 22.4661Z" fill="#2687C5"/>
<path d="M18.8711 15.779C18.8539 15.779 18.8366 15.779 18.8194 15.779C18.4234 15.779 18.0274 15.779 17.5969 15.779C17.528 15.779 17.4419 15.779 17.3731 15.779C17.3731 15.674 17.3731 15.569 17.3731 15.4639C17.3731 15.0263 17.3731 14.6412 17.3731 14.2386C17.3903 13.3458 16.9082 12.7856 16.0645 12.7156C15.7029 12.6806 15.3929 12.7856 15.1347 13.0132C14.8247 13.2933 14.6525 13.7309 14.6353 14.2561C14.6181 14.6762 14.6353 15.0788 14.6353 15.5165C14.6353 15.604 14.6353 15.6915 14.6353 15.779C14.5492 15.779 14.4459 15.779 14.3598 15.779C13.9466 15.779 13.5505 15.779 13.1717 15.779C12.6724 15.779 12.2592 15.9191 11.9837 16.1817C11.7426 16.4267 11.6221 16.7769 11.6221 17.1795C11.6221 18.0547 12.2247 18.5974 13.1717 18.5974H14.6525C14.6525 18.7025 14.6525 18.8075 14.6525 18.9125C14.6525 19.3677 14.6525 19.7878 14.6525 20.2079C14.6698 21.0832 15.1519 21.6084 15.9784 21.6259C15.9956 21.6259 16.0128 21.6259 16.03 21.6259C16.426 21.6259 16.7532 21.5033 16.9943 21.2758C17.2525 21.0307 17.3903 20.6631 17.3903 20.2079C17.3903 19.7878 17.3903 19.3677 17.3903 18.93C17.3903 18.825 17.3903 18.7375 17.3903 18.6324C17.4764 18.6324 17.5625 18.6324 17.6486 18.6324C18.0446 18.6324 18.4234 18.6324 18.8022 18.6324C19.3532 18.6149 19.8181 18.4224 20.1108 18.0898C20.3347 17.8272 20.438 17.5121 20.4207 17.162C20.3174 16.2692 19.7664 15.779 18.8711 15.779Z" fill="#2687C5"/>
</svg>
