<svg width="15" height="22" viewBox="0 0 15 22" fill="none" xmlns="http://www.w3.org/2000/svg">
<path d="M7.71437 0C8.16755 0.196624 8.31483 0.535253 8.28084 0.994042C8.25818 1.3436 8.28084 1.70407 8.28084 2.07547C8.39413 2.07547 8.47344 2.07547 8.56407 2.07547C9.47041 2.0864 10.9546 2.06455 11.8609 2.09732C13.4017 2.15194 14.7952 3.41907 14.9651 4.89374C14.9878 5.12314 15.0104 5.35253 15.0104 5.58193C15.0104 8.48759 15.0104 11.3932 15.0104 14.2989C15.0104 15.7845 14.1154 17.0189 12.6766 17.4667C12.2914 17.5869 11.8609 17.6087 11.453 17.6524C11.1472 17.6852 10.2635 17.6634 9.93492 17.6634C9.93492 17.9146 9.92359 18.5919 9.93492 18.8213C9.9689 19.5531 9.49307 20.0447 8.73401 19.9791C8.67736 19.9791 8.62072 19.9792 8.54141 20.0119C8.62072 20.0556 8.70002 20.0993 8.79066 20.1321C9.36845 20.3724 9.98023 20.4598 10.592 20.4707C11.657 20.4816 12.7333 20.4816 13.7982 20.4816C14.3647 20.4816 14.7159 20.8421 14.6592 21.3337C14.6139 21.6832 14.3194 21.9782 13.9455 21.9782C12.5973 21.9672 11.2491 21.9782 9.91226 21.9235C9.02857 21.8908 8.1902 21.5849 7.43114 21.137C6.92132 20.8421 6.7174 20.5472 6.59277 19.9573C6.44549 19.9573 6.28688 19.9573 6.12827 19.9573C5.49383 19.9464 5.09731 19.5641 5.08598 18.9523C5.08598 18.6683 5.08598 17.9583 5.08598 17.6415C4.75743 17.6415 3.87374 17.6634 3.56785 17.6306C3.14867 17.5978 2.71815 17.565 2.32163 17.4449C0.882806 17.0298 0.0104501 15.8173 0.0104501 14.3098C-0.0008792 11.3605 -0.0008792 8.4002 0.0104501 5.45085C0.0217794 3.82324 1.03009 2.56703 2.63885 2.18471C2.93341 2.11917 3.26196 2.09732 3.56785 2.09732C4.32691 2.0864 5.66377 2.09732 6.42283 2.09732C6.51347 2.09732 6.59277 2.09732 6.70607 2.09732C6.70607 1.68222 6.69474 1.28898 6.71739 0.884807C6.72872 0.71003 6.75138 0.502483 6.85335 0.3714C6.95531 0.218471 7.15924 0.131082 7.31785 0.0109235C7.44247 0 7.57842 0 7.71437 0ZM13.4357 8.94638C12.6426 8.94638 11.8722 8.89176 11.1132 8.9573C9.99156 9.05561 8.3035 9.25224 7.1819 9.40517C5.85637 9.57994 3.9757 9.54717 2.66151 9.31778C2.29897 9.25224 1.94776 9.1867 1.58522 9.11023C1.58522 9.41609 1.58522 9.7001 1.58522 9.99504C1.80048 9.99504 1.99308 9.99504 2.18568 9.99504C2.48024 9.99504 2.78613 9.98411 3.08069 10.0169C3.49987 10.0606 3.76045 10.3883 3.73779 10.7925C3.72646 11.1748 3.40924 11.4806 3.01271 11.4916C2.63885 11.5025 2.25365 11.4916 1.87978 11.5025C1.77782 11.5025 1.68719 11.5025 1.57389 11.5025C1.57389 11.9067 1.57389 12.289 1.57389 12.6822C1.82314 12.6822 2.06105 12.6822 2.29897 12.6822C2.57087 12.6822 2.84277 12.6713 3.10335 12.715C3.52253 12.7696 3.77178 13.1192 3.72646 13.5343C3.69247 13.8947 3.36392 14.1788 2.9674 14.1897C2.5822 14.2006 2.197 14.1897 1.81181 14.1897C1.7325 14.1897 1.64187 14.1897 1.52858 14.1897C1.56256 14.4191 1.56256 14.6157 1.61921 14.8014C1.86846 15.6644 2.54821 16.1559 3.49987 16.1668C5.77706 16.1668 9.18718 16.1778 11.4644 16.1559C11.7703 16.1559 12.0988 16.0904 12.3707 15.9702C13.0845 15.6534 13.413 15.0636 13.4243 14.3098C13.4243 12.5839 13.4243 10.858 13.4243 9.13208C13.4357 9.06654 13.4357 9.00099 13.4357 8.94638ZM1.56256 6.81629C1.56256 6.92552 1.56256 7.02383 1.56256 7.11122C1.56256 7.54816 1.56256 7.54816 1.99308 7.64648C3.60184 8.0288 5.78839 8.12711 7.43114 7.85402C9.13054 7.58094 11.3964 7.32969 13.1298 7.39523C13.2204 7.39523 13.311 7.39523 13.4017 7.39523C13.413 7.35154 13.4243 7.32969 13.4243 7.31877C13.4243 6.64151 13.4357 5.97517 13.4243 5.29792C13.4017 4.74082 13.1524 4.29295 12.6879 3.9434C12.3141 3.67031 11.8836 3.58292 11.4191 3.58292C9.3118 3.58292 6.08295 3.58292 3.9757 3.58292C3.7038 3.58292 3.44323 3.59384 3.17132 3.61569C2.32163 3.68123 1.57389 4.4568 1.59655 5.30884C1.66453 5.30884 1.7325 5.30884 1.81181 5.30884C2.18568 5.30884 2.55954 5.30884 2.92208 5.30884C3.19398 5.30884 3.4319 5.40715 3.60184 5.62562C3.77178 5.86594 3.79444 6.1281 3.66981 6.37935C3.53386 6.65243 3.29595 6.80536 2.97873 6.80536C2.51423 6.82721 2.04972 6.81629 1.56256 6.81629ZM8.34881 18.4717C8.34881 18.3406 8.34881 17.7944 8.34881 17.6852C7.78235 17.6852 7.22721 17.6852 6.66075 17.6852C6.66075 17.8054 6.66075 18.3515 6.66075 18.4717C7.22721 18.4717 7.78235 18.4717 8.34881 18.4717Z" fill="#2687C5"/>
</svg>
