<svg width="32" height="32" viewBox="0 0 32 32" fill="none" xmlns="http://www.w3.org/2000/svg">
<path d="M29.7734 3.80472C28.8835 2.51968 28.1419 1.53701 27.4745 0.629921C26.9554 -0.125984 26.2879 -0.201575 25.5463 0.40315C25.1014 0.705512 24.6564 1.00787 24.2857 1.38583L23.989 1.46142C23.3958 0.856693 22.8767 0.856693 22.2092 1.38583C21.4676 1.91496 20.7261 2.51968 19.9103 3.04882C19.1687 3.57795 18.5013 4.10709 17.7597 4.63622L17.389 4.86299C15.3867 6.3748 13.3103 7.88661 11.308 9.39842C10.4922 10.0787 10.3439 10.5323 10.6406 11.2882C10.2698 11.5906 9.6765 12.0441 9.37987 12.1953C9.00908 12.422 8.63829 12.7244 8.56413 13.178C8.48997 13.6315 8.71245 14.0094 9.00908 14.3874L9.52819 15.0677C10.1215 15.8236 10.6406 16.6551 11.2338 17.4866C11.8271 18.3181 12.4204 18.3937 13.2361 17.8646C13.5327 17.6378 14.2001 17.1842 14.6451 16.8819C15.4608 17.4866 15.7575 17.411 16.6474 16.7307L19.2429 14.8409C20.5036 13.9339 21.6901 13.0268 22.9508 12.0441C23.1733 11.8929 23.3958 11.7417 23.6182 11.5906C25.2497 15.1433 25.1014 18.5449 23.2474 21.5685C21.0227 25.2724 17.7597 26.8598 13.4586 26.4819C10.9372 26.2551 8.7866 25.1213 7.08097 23.0803C7.15513 23.0803 7.22928 23.0803 7.30344 23.0803C7.74839 23.0803 8.04502 22.9291 8.19334 22.7024C8.34166 22.4756 8.56413 22.022 8.48997 21.6441C8.48997 21.4173 8.2675 20.737 7.22928 20.737C6.41354 20.737 5.59781 20.737 4.93038 20.737H4.26296C4.11464 20.737 3.89217 20.737 3.74385 20.737C3.2989 20.737 2.7798 20.737 2.33485 20.737C1.96406 20.737 1.66742 20.8882 1.44495 21.115C1.07416 21.2661 1 21.5685 1 21.9465C1 22.6268 1.51911 23.0803 2.26069 23.0803C2.33485 23.0803 2.48316 23.0803 2.55732 23.0803C2.92811 23.0803 3.22474 23.0803 3.59554 23.0803C3.89217 23.0047 4.04048 23.0803 4.33712 23.5339C5.59781 25.4236 7.22928 26.8598 9.08324 27.6157C9.82482 27.9181 9.97313 28.8252 9.89898 29.5055V29.5811C8.41581 29.5811 6.85849 29.5811 5.52365 29.5811C5.0787 29.5811 4.63375 29.5811 4.1888 29.5811H4.11464C3.96633 29.5811 3.81801 29.5811 3.66969 29.5811C3.07643 29.6567 2.70564 30.1102 2.70564 30.6394C2.48316 31.2441 2.7798 31.6976 3.37306 31.9244C3.59554 32 3.74385 32 3.96633 32H4.04048C6.41354 32 8.86076 32 11.2338 32C15.8316 32 20.4294 32 25.0272 32H25.1014C25.2497 32 25.4722 32 25.6205 31.9244C25.9913 31.8488 26.2879 31.622 26.4362 31.3197C26.5846 31.0173 26.5846 30.6394 26.4362 30.337C26.2138 29.8835 25.7688 29.5811 25.1756 29.5811C24.5823 29.5811 23.989 29.5811 23.3216 29.5811H23.0991C22.2092 29.5811 21.3193 29.5811 20.4294 29.5811C20.4294 29.052 20.4294 28.0693 20.4294 27.5402V27.4646C20.4294 27.4646 20.4294 27.4646 20.5036 27.389C22.3575 26.4063 23.8407 24.9701 24.9531 23.2315C26.8812 20.2079 27.4745 17.0331 26.7329 13.6315C26.5104 12.5732 26.0655 11.5906 25.6947 10.6835C25.6205 10.5323 25.5463 10.3811 25.5463 10.2299C25.5463 10.1543 25.4722 10.1543 25.4722 10.0787C25.4722 10.0787 25.5463 10.0787 25.5463 10.0031C25.9171 9.77638 26.2879 9.47402 26.6587 9.17165C26.807 9.09606 26.8812 8.94488 27.0295 8.86929C27.6228 8.41575 27.9194 8.18898 28.0677 7.73543C28.1419 7.35748 28.0677 7.05512 27.8452 6.67716C27.9194 6.60157 27.9194 6.60157 27.9936 6.52598C28.1419 6.3748 28.3644 6.22362 28.5127 6.14803C28.8093 5.92126 29.1801 5.69449 29.4767 5.39213C30.07 5.01417 30.1441 4.40945 29.7734 3.80472ZM13.2361 14.9165C13.1619 14.9921 13.0878 14.9921 13.0136 15.0677H12.9395C12.8653 15.1433 12.717 15.2189 12.6428 15.2945L12.5687 15.2189C12.1979 14.6898 11.8271 14.1606 11.4563 13.6315C11.6046 13.4803 11.8271 13.3291 12.0496 13.2535L13.2361 14.9165ZM27.1778 4.25827L26.5104 4.7874L25.4722 3.35118L26.1396 2.82205L27.1778 4.25827ZM25.2497 7.28189L15.7575 14.3874L13.3103 10.9858C15.4608 9.39843 17.5373 7.81102 19.6879 6.22362L22.8025 3.88031C23.3216 4.63622 23.8407 5.39213 24.3598 6.07244L25.2497 7.28189ZM18.1305 29.5055C16.0541 29.5055 14.126 29.5055 12.272 29.5055C12.272 29.2787 12.272 28.9764 12.272 28.674C14.2743 29.052 16.2024 28.9764 18.2047 28.3717C18.1305 28.7496 18.1305 29.2031 18.1305 29.5055Z" fill="#2687C5"/>
</svg>
