<svg xmlns="http://www.w3.org/2000/svg" height="17" viewBox="0 0 20 17" width="20">
	<path
		d="M8.45878 2.03592C9.67742 2.03592 10.6093 3.04705 10.6093 4.27485C10.6093 5.50264 9.67742 6.51377 8.45878 6.51377C7.24014 6.51377 6.23656 5.50264 6.23656 4.27485C6.23656 3.04705 7.24014 2.03592 8.45878 2.03592ZM8.45878 11.5694C9.46237 11.5694 10.5376 11.7861 11.5412 12.0027L9.46237 9.61937C9.10394 9.54715 8.74552 9.54715 8.45878 9.54715C5.5914 9.54715 0 10.9916 0 13.8083V16.9862H11.0394L9.10394 14.9639H2.00717V13.8083C2.00717 13.1583 5.30466 11.5694 8.45878 11.5694ZM8.45878 0.0136719C6.09319 0.0136719 4.22939 1.89148 4.22939 4.27485C4.22939 6.58599 6.09319 8.53602 8.45878 8.53602C10.7527 8.53602 12.6165 6.58599 12.6165 4.27485C12.6165 1.89148 10.7527 0.0136719 8.45878 0.0136719Z"/>
	<path
		d="M19.9998 15.2529L18.4944 16.7695L15.7704 14.0251L13.0464 16.7695L11.541 15.2529L14.265 12.5084L11.541 9.76388L13.0464 8.24719L15.7704 10.9917L18.4944 8.24719L19.9998 9.76388L17.2758 12.5084L19.9998 15.2529Z"/>
</svg>
