<svg width="22" height="20" viewBox="0 0 22 20" fill="none" xmlns="http://www.w3.org/2000/svg">
<path d="M18.1959 10.1329C20.3958 11.433 21.4405 13.2557 20.826 15.7102C20.3344 17.7029 18.9333 18.918 16.8809 19.2339C15.1726 19.5012 13.1816 19.0152 11.7314 16.5121C11.3135 16.9252 10.9202 17.3019 10.5269 17.7029C9.43312 18.8086 8.09351 19.4162 6.52039 19.3919C4.22216 19.3554 2.50156 18.2983 1.55523 16.2205C0.608898 14.1548 0.854698 12.1013 2.42782 10.461C5.08246 7.6784 7.83542 4.9809 10.6253 2.34415C12.6039 0.472914 15.8608 0.594423 17.9009 2.46566C19.9288 4.32475 20.2238 7.45968 18.5769 9.64685C18.4663 9.79266 18.3434 9.93847 18.1959 10.1329ZM7.39298 7.76346C5.99192 9.07576 4.57857 10.2422 3.38644 11.5788C1.9608 13.1828 2.25576 15.5643 3.86575 16.9738C5.41429 18.3469 7.79855 18.2861 9.3348 16.8402C9.81412 16.3906 10.2443 15.9046 10.7359 15.4793C11.1537 15.1148 11.3749 14.7138 11.3872 14.1305C11.3872 13.6445 11.5716 13.1342 11.7436 12.6724C11.8665 12.3565 11.8174 12.1742 11.5839 11.9434C10.7604 11.1536 9.94931 10.3516 9.15045 9.53749C8.52366 8.92994 7.92145 8.31025 7.39298 7.76346ZM12.8252 11.0442C13.8084 10.2058 14.9145 9.71975 16.2295 9.74406C16.377 9.74406 16.549 9.67115 16.6596 9.57394C18.368 8.22519 18.6875 5.73426 17.3725 4.02098C16.0943 2.34415 13.5626 1.88242 11.9157 3.19472C10.613 4.21539 9.48228 5.45479 8.31473 6.57267C9.83869 8.09153 11.3135 9.53749 12.8252 11.0442ZM16.168 17.8609C18.0607 17.8609 19.5601 16.3785 19.5478 14.5072C19.5355 12.6846 18.0361 11.19 16.1926 11.1657C14.3491 11.1414 12.7883 12.6724 12.776 14.5194C12.7637 16.3785 14.2631 17.8609 16.168 17.8609Z" fill="#2687C5" stroke="#2687C5" stroke-width="0.2"/>
</svg>
