<svg width="32" height="32" viewBox="0 0 32 32" fill="none" xmlns="http://www.w3.org/2000/svg">
<g clip-path="url(#clip0_17616_79950)">
<path d="M28.976 18.4594C28.6184 17.4471 27.8912 16.7562 27.1879 16.0893C27.1163 16.0178 27.0448 15.9582 26.9733 15.8868C26.1984 15.1483 25.1732 14.8148 24.1599 14.9816C23.1347 15.1483 22.2406 15.7915 21.728 16.7562C21.7041 16.8039 21.6803 16.8396 21.6565 16.8873L20.3213 15.3746C20.2617 15.3032 20.1663 15.2555 20.071 15.2555C19.9756 15.2555 19.8802 15.2913 19.8087 15.3508L18.6523 16.4466C18.5808 16.518 18.545 16.6014 18.545 16.7086C18.545 16.8039 18.5808 16.8992 18.6523 16.9706L20.8577 19.0907L20.1186 19.853C20.0829 19.8172 20.0471 19.7696 19.9994 19.7339C19.7133 19.4361 19.4511 19.1502 19.1888 18.8644C18.9146 18.5547 18.6404 18.2331 18.3901 17.9592C18.2828 17.8401 18.1874 17.721 18.092 17.6138C18.0324 17.5423 17.9371 17.4947 17.8417 17.4947C17.7463 17.4947 17.651 17.5304 17.5794 17.59L16.2919 18.8287C16.2204 18.9001 16.1847 18.9954 16.1847 19.0907C16.1847 19.186 16.2323 19.2813 16.3039 19.3527L17.794 20.7224C16.8284 21.2465 16.1847 22.0921 16.0178 23.0926C15.8389 24.1288 16.1847 25.2007 16.9834 26.0345C17.2576 26.3203 17.5437 26.6062 17.8775 26.9278C18.6046 27.6424 19.4987 27.9997 20.369 27.9997C21.1915 27.9997 21.9903 27.6781 22.6459 27.0469C23.2777 26.4275 23.6354 25.6176 23.6473 24.7601C23.6592 23.843 23.2658 22.9497 22.5625 22.247C22.324 22.0087 22.0737 21.7944 21.8353 21.58C21.8234 21.5681 21.8114 21.5561 21.7995 21.5561L22.5505 20.7701C22.5863 20.8058 22.6221 20.8415 22.6459 20.8773C22.9082 21.1631 23.1585 21.437 23.4327 21.6991C24.303 22.509 25.3163 22.7829 26.4488 22.5328C27.6647 22.2589 28.4992 21.437 28.9999 20.0435C29.0118 20.0078 29.0237 19.9602 29.0237 19.9244V18.6143C28.9999 18.5428 28.988 18.5071 28.976 18.4594ZM26.6157 19.7577C26.4488 20.0793 26.1865 20.2936 25.4593 20.3175C25.352 20.3175 24.9586 20.115 24.4699 19.6267C23.993 19.1383 23.6592 18.5905 23.6592 18.3046C23.6711 17.8996 23.85 17.59 24.1957 17.3875C24.3268 17.316 24.5175 17.2327 24.7321 17.2327C24.8871 17.2327 25.0421 17.2803 25.197 17.3994C25.6739 17.7925 26.1388 18.245 26.568 18.7691C26.866 19.1145 26.7587 19.4956 26.6157 19.7577ZM18.5093 24.2955C18.1874 23.9144 18.1993 23.4142 18.5212 23.0092C18.7239 22.771 19.0219 22.5924 19.308 22.5924C19.4391 22.5924 19.5583 22.6281 19.6776 22.7115C20.1544 23.0688 20.5716 23.5333 20.9889 23.9859C21.0723 24.0812 21.1677 24.1764 21.2511 24.2717C21.2631 24.3075 21.275 24.4027 21.2869 24.4385C21.2869 24.4623 21.2988 24.498 21.2988 24.5218C21.2988 25.034 21.1319 25.3437 20.7505 25.5223C20.3332 25.7248 19.9637 25.6891 19.6418 25.4151C19.2245 25.0816 18.8431 24.7005 18.5093 24.2955Z" fill="#2687C5"/>
<path d="M24.9942 7.93043C25.781 6.92995 25.7929 5.52452 25.018 4.51213C24.5293 3.86897 23.8378 3.48784 23.0749 3.4402C22.2404 3.38064 21.4059 3.72605 20.7384 4.39303L20.2138 4.91709C16.9951 8.121 12.5843 12.516 9.4252 15.7199C8.97219 16.1725 8.6384 16.3154 8.1854 16.232C7.50589 16.1129 7.07673 16.4702 6.7787 16.7918C4.96669 18.7332 3.75074 21.0915 3.14276 23.7832C2.74936 25.546 3.21428 26.8918 4.56137 27.9161C4.62098 27.9638 4.70443 27.9876 4.77595 27.9876C4.8594 27.9876 4.95477 27.9519 5.0263 27.8923C5.07398 27.8447 5.12167 27.809 5.15743 27.7613C5.24088 27.6779 5.32433 27.6065 5.39585 27.5231C11.3803 21.5679 18.6164 14.3382 24.6008 8.35921C24.7319 8.22819 24.875 8.08527 24.9942 7.93043ZM10.9988 18.4831L5.45546 24.0214C5.62235 23.3902 5.78925 22.7947 5.99191 22.223C6.43299 20.9724 7.14826 19.817 8.10195 18.7689C8.22116 18.6379 8.47151 18.5188 8.6384 18.5188C9.13909 18.495 9.6517 18.495 10.1524 18.495C10.4266 18.4831 10.7127 18.4831 10.9988 18.4831ZM23.0749 6.66792C20.4999 9.25249 16.4944 13.2544 13.6572 16.0653C13.5738 16.1367 13.4307 16.2082 13.3353 16.2082C12.9419 16.232 12.5485 16.232 12.1075 16.2201L20.2854 8.06145C20.4999 7.84706 20.7026 7.64458 20.9172 7.43019C21.394 6.94186 21.8947 6.45354 22.3954 5.96521C22.8484 5.51261 23.0749 5.73891 23.1941 5.85801C23.4683 6.15578 23.2776 6.46545 23.0749 6.66792Z" fill="#2687C5"/>
<path d="M6.79076 9.5266C7.32721 10.0626 7.88751 10.6224 8.43588 11.1702C8.76967 11.5037 9.07962 11.8491 9.37765 12.1945C9.50878 12.3375 9.63991 12.4804 9.75912 12.6233C9.83065 12.6948 9.92602 12.7424 10.0214 12.7424C10.1048 12.7424 10.1883 12.7186 10.2598 12.659L11.5235 11.5633C11.595 11.5037 11.6427 11.4084 11.6427 11.3013C11.6427 11.206 11.6069 11.1107 11.5354 11.0392L10.6532 10.1459C9.96178 9.46705 9.2942 8.80007 8.6147 8.12117L8.2213 7.72813C7.69677 7.21598 7.16032 6.68001 6.64771 6.13213C6.42121 5.89392 6.42121 5.67953 6.63579 5.45323C6.77884 5.2984 6.9815 5.17929 7.33914 5.45323C7.41066 5.50087 7.47027 5.57234 7.54179 5.6438C7.57756 5.67953 7.6014 5.71526 7.63716 5.75099L9.03194 7.14451C9.93794 8.04971 10.8559 8.96681 11.7738 9.872C11.8811 9.9792 11.9884 10.0864 12.0957 10.1698C12.1434 10.2055 12.1791 10.2412 12.2149 10.277C12.3579 10.408 12.5725 10.408 12.7036 10.277L13.7646 9.27648C13.8362 9.20502 13.8719 9.12165 13.8719 9.02636C13.8719 8.93108 13.8362 8.8358 13.7646 8.76433C13.2878 8.28792 12.8229 7.79959 12.346 7.32317C11.1539 6.0964 9.9141 4.83389 8.6743 3.61903C8.10209 3.08306 7.29145 2.88058 6.40929 3.07115C5.36023 3.30936 4.64496 3.95252 4.32309 4.94108C3.9893 5.96538 4.22772 6.94204 5.02644 7.76386C5.61057 8.34747 6.20663 8.9549 6.79076 9.5266Z" fill="#2687C5"/>
</g>
<defs>
<clipPath id="clip0_17616_79950">
<rect width="26" height="25" fill="white" transform="translate(3 3)"/>
</clipPath>
</defs>
</svg>
